<svg version="1.1" id="Layer_1" xmlns="http://www.w3.org/2000/svg" xmlns:xlink="http://www.w3.org/1999/xlink" x="0px" y="0px" width="100%" viewBox="0 0 1024 1024" enable-background="new 0 0 1024 1024" xml:space="preserve">

<path fill="#090909" opacity="1.000000" stroke="none" d="
M1.000000,393.468658 
	C1.333635,394.730560 1.959034,396.461029 1.959469,398.191650 
	C2.003504,573.451904 2.001356,748.712219 1.982811,923.972473 
	C1.982655,925.449280 1.722275,926.926025 1.291695,928.701416 
	C1.000000,750.645752 1.000000,572.291565 1.000000,393.468658 
z" data-index="1" style="visibility: hidden;"></path>

<path fill="#090909" opacity="1.000000" stroke="none" d="
M0.999999,353.468658 
	C1.333331,354.718750 1.957486,356.438599 1.951071,358.156067 
	C1.918392,366.905457 1.722611,375.654205 1.291959,384.701599 
	C1.000000,374.645782 1.000000,364.291534 0.999999,353.468658 
z" data-index="3" style="visibility: hidden;"></path>

<path fill="#090909" opacity="1.000000" stroke="none" d="
M1.000000,937.468628 
	C1.194454,944.800964 1.388908,952.601929 1.291681,960.701416 
	C1.000000,953.312439 1.000000,945.624817 1.000000,937.468628 
z" data-index="5" style="visibility: hidden;"></path>

<path fill="#090909" opacity="1.000000" stroke="none" d="
M1.000000,297.466858 
	C1.194038,302.135071 1.388075,307.270111 1.291056,312.702576 
	C1.000000,307.977905 1.000000,302.955811 1.000000,297.466858 
z" data-index="7" style="visibility: hidden;"></path>

<path fill="#090909" opacity="1.000000" stroke="none" d="
M1.000000,57.444164 
	C1.186266,59.486317 1.372532,61.972637 1.279399,64.729477 
	C1.000000,62.629444 1.000000,60.258884 1.000000,57.444164 
z" data-index="9" style="visibility: hidden;"></path>

<path fill="#090909" opacity="1.000000" stroke="none" d="
M1.000000,1001.444153 
	C1.186084,1003.486206 1.372167,1005.972412 1.279125,1008.729309 
	C1.000000,1006.629456 1.000000,1004.258850 1.000000,1001.444153 
z" data-index="11" style="visibility: hidden;"></path>

<path fill="#FEFBEE" opacity="1.000000" stroke="none" d="
M540.870483,283.692261 
	C572.513062,269.250366 591.929810,244.758881 599.391418,211.040558 
	C610.355713,161.493988 586.768066,105.546959 531.360291,89.731697 
	C521.459167,86.905586 510.900726,85.678398 500.576843,85.200119 
	C484.632111,84.461411 468.627930,85.005447 452.248840,85.005447 
	C452.165405,86.547958 452.020721,87.975052 452.020599,89.402153 
	C452.009216,231.655823 451.930511,373.909637 452.222321,516.162720 
	C452.238068,523.841553 455.366302,531.514038 456.701141,539.548828 
	C455.582733,539.140442 454.437256,538.509338 454.096069,537.582336 
	C452.072266,532.082947 449.483002,527.041321 449.896851,520.535217 
	C450.556641,510.161438 449.316010,499.673767 449.029602,489.230133 
	C448.865387,483.241730 449.109680,477.242340 448.956604,471.253326 
	C448.861450,467.529602 447.803253,464.043610 443.174194,464.080292 
	C433.415222,464.157532 433.032410,464.659698 433.000122,474.511017 
	C432.997925,475.176880 432.954315,475.846069 433.004364,476.508087 
	C433.242004,479.652100 431.899536,480.986176 428.654999,481.041016 
	C415.295929,481.266785 401.940247,481.686981 388.582184,481.982727 
	C384.303009,482.077454 382.434906,479.967010 383.085052,475.745178 
	C383.334991,474.122253 384.100311,472.585815 384.487091,470.975433 
	C385.337280,467.435760 382.885315,464.643555 379.279816,465.145172 
	C376.095764,465.588165 372.943848,466.262177 369.002441,466.974213 
	C369.002441,468.279510 369.002472,470.051300 369.002441,471.823120 
	C369.001984,486.472382 369.013031,501.121704 368.993469,515.770935 
	C368.988190,519.705261 370.194275,524.353455 368.524567,527.404419 
	C366.091705,531.849792 364.623901,535.785278 365.442993,540.830200 
	C365.642944,542.061646 363.555206,543.662903 362.522827,545.096619 
	C361.697723,546.242554 360.466797,547.286072 360.137177,548.561401 
	C359.326202,551.699097 358.930847,554.944214 358.436279,557.759338 
	C356.608276,558.999207 354.925781,560.320923 353.073853,561.332397 
	C351.862213,561.994202 350.405182,562.206543 349.058075,562.620178 
	C357.141083,551.586182 363.013000,539.540527 365.383911,525.988831 
	C366.209564,521.269653 366.961578,516.457092 366.965881,511.686462 
	C367.073761,392.020996 367.079346,272.355377 367.095886,152.689819 
	C367.097565,140.356689 367.395416,128.011444 366.957367,115.693100 
	C366.173706,93.655022 356.966034,75.502533 340.291016,61.178513 
	C335.904541,57.410465 331.125122,54.099865 326.253174,50.370232 
	C327.272339,50.246796 328.267029,50.021187 329.261780,50.020863 
	C393.594452,49.999828 457.935883,49.355392 522.256592,50.231365 
	C561.350830,50.763790 598.547485,60.019455 631.060425,83.130692 
	C656.808289,101.433121 674.823669,125.541557 680.647400,156.976028 
	C691.577576,215.972809 665.456299,273.601562 605.627930,298.039764 
	C584.717041,306.581329 563.096130,311.240082 540.466431,311.017853 
	C533.468018,310.949127 526.468628,310.970093 519.392334,310.326599 
	C519.926025,309.481232 520.527283,309.100220 521.149658,309.061737 
	C527.342468,308.678925 533.535706,308.173401 539.734985,308.069794 
	C544.299072,307.993530 549.090271,310.007507 553.077942,306.063812 
	C553.335266,305.809326 554.044800,306.022278 554.543152,305.999756 
	C561.115051,305.702881 561.720398,304.859344 562.069885,298.436432 
	C562.333313,293.594788 561.836365,289.491302 556.631531,287.499664 
	C556.350220,287.391998 556.309448,286.655975 556.156677,286.212463 
	C556.553894,286.359772 556.951050,286.507080 557.348206,286.654419 
	C558.273560,284.777252 560.463928,282.147491 559.880981,281.167694 
	C558.293701,278.499878 555.971252,279.145477 553.019958,280.690582 
	C549.430176,282.569946 544.959900,282.767303 540.870483,283.692261 
M363.744568,539.833374 
	C363.585114,539.885742 363.425690,539.938110 363.266235,539.990479 
	C363.426483,540.041931 363.586700,540.093384 363.744568,539.833374 
z" data-index="13"></path>
<path fill="#FFF8E7" opacity="1.000000" stroke="none" d="
M349.069061,562.632080 
	C350.405182,562.206543 351.862213,561.994202 353.073853,561.332397 
	C354.925781,560.320923 356.608276,558.999207 358.436279,557.759338 
	C358.930847,554.944214 359.326202,551.699097 360.137177,548.561401 
	C360.466797,547.286072 361.697723,546.242554 362.522827,545.096619 
	C363.555206,543.662903 365.642944,542.061646 365.442993,540.830200 
	C364.623901,535.785278 366.091705,531.849792 368.524567,527.404419 
	C370.194275,524.353455 368.988190,519.705261 368.993469,515.770935 
	C369.013031,501.121704 369.001984,486.472382 369.002441,471.823120 
	C369.002472,470.051300 369.002441,468.279510 369.002441,466.974213 
	C372.943848,466.262177 376.095764,465.588165 379.279816,465.145172 
	C382.885315,464.643555 385.337280,467.435760 384.487091,470.975433 
	C384.100311,472.585815 383.334991,474.122253 383.085052,475.745178 
	C382.434906,479.967010 384.303009,482.077454 388.582184,481.982727 
	C401.940247,481.686981 415.295929,481.266785 428.654999,481.041016 
	C431.899536,480.986176 433.242004,479.652100 433.004364,476.508087 
	C432.954315,475.846069 432.997925,475.176880 433.000122,474.511017 
	C433.032410,464.659698 433.415222,464.157532 443.174194,464.080292 
	C447.803253,464.043610 448.861450,467.529602 448.956604,471.253326 
	C449.109680,477.242340 448.865387,483.241730 449.029602,489.230133 
	C449.316010,499.673767 450.556641,510.161438 449.896851,520.535217 
	C449.483002,527.041321 452.072266,532.082947 454.096069,537.582336 
	C454.437256,538.509338 455.582733,539.140442 456.720154,539.941040 
	C462.306458,548.056946 467.529236,556.140198 472.874115,564.915710 
	C472.908295,569.168701 474.115967,571.196533 478.108734,569.929443 
	C478.108734,569.929443 478.022400,569.976501 478.026306,570.329590 
	C478.525116,572.685242 479.020020,574.687744 479.665802,577.300842 
	C477.803223,577.547180 476.086639,578.000244 474.380585,577.963501 
	C462.201263,577.700989 450.024811,577.123169 437.845947,577.079346 
	C428.827911,577.046936 419.809387,577.872742 410.787842,577.953491 
	C393.747101,578.106018 376.704010,577.998169 359.661896,577.997253 
	C353.760590,577.996948 347.844452,577.736694 341.962952,578.077026 
	C337.737854,578.321533 337.478119,576.222961 338.033691,573.097229 
	C339.107666,572.138733 340.181641,571.180237 341.897705,570.226562 
	C345.399567,569.541748 348.275116,568.905396 351.092651,568.072632 
	C351.350372,567.996399 351.511261,566.536499 351.237030,565.939575 
	C350.689392,564.747314 349.808533,563.708191 349.065247,562.605774 
	C349.065277,562.605774 349.080048,562.643982 349.069061,562.632080 
z" data-index="14"></path>
<path fill="#FDF8E7" opacity="1.000000" stroke="none" d="
M392.189514,834.884277 
	C365.395233,819.702881 351.447906,801.418701 340.339783,767.224060 
	C386.953857,769.846069 429.625519,797.128052 444.386353,848.123779 
	C426.174072,846.761658 408.734406,843.451172 392.189514,834.884277 
z" data-index="15" style="opacity: 1;"></path>
<path fill="#FDF7E6" opacity="1.000000" stroke="none" d="
M547.079346,876.925049 
	C544.599060,874.224304 542.350525,871.794067 540.083801,869.344177 
	C580.148560,848.685852 621.000732,850.985779 661.007263,899.002014 
	C629.857544,914.088013 579.631348,913.282959 547.079346,876.925049 
z" data-index="16"></path>
<path fill="#FCF7E6" opacity="1.000000" stroke="none" d="
M563.791138,847.014160 
	C561.040405,847.019775 558.748352,847.019775 556.527954,847.019775 
	C569.485779,809.255127 605.197083,771.429993 660.574524,767.218506 
	C657.181335,782.688782 650.107178,796.142639 640.218445,808.312073 
	C621.820129,830.953857 597.662720,842.584045 569.135132,846.088684 
	C567.493835,846.290344 565.877686,846.697144 563.791138,847.014160 
z" data-index="17"></path>
<path fill="#FDF7E5" opacity="1.000000" stroke="none" d="
M238.905502,835.762878 
	C208.635208,835.622559 184.916504,823.029724 166.285660,800.271667 
	C209.337921,779.065857 257.139679,783.906372 285.961121,824.450500 
	C270.919891,830.520325 255.705444,835.399353 238.905502,835.762878 
z" data-index="18" style="opacity: 1;"></path>
<path fill="#FCF6E5" opacity="1.000000" stroke="none" d="
M810.758423,822.792114 
	C781.841675,840.768127 745.505859,837.530762 718.204590,823.812073 
	C746.727478,785.726501 789.520813,777.757812 837.868652,801.222839 
	C828.596130,808.600708 819.821472,815.582520 810.758423,822.792114 
z" data-index="19"></path>
<path fill="#FDF7E6" opacity="1.000000" stroke="none" d="
M433.260956,860.758850 
	C440.803986,863.186768 447.956696,865.458435 455.372681,867.813782 
	C425.910400,905.565247 378.221497,917.353271 338.043457,900.523621 
	C348.681183,888.311462 359.323822,876.185181 373.554047,868.103149 
	C392.231964,857.494934 412.115875,855.335083 433.260956,860.758850 
z" data-index="20"></path>
<path fill="#FCF6E5" opacity="1.000000" stroke="none" d="
M354.473999,845.468750 
	C357.796448,846.866272 360.786957,848.053345 363.876587,849.279785 
	C328.086090,888.876099 277.028809,893.217346 243.497711,867.833008 
	C255.895432,855.750488 270.054932,846.943787 286.597351,841.976562 
	C308.456085,835.412903 329.984497,837.183472 351.323700,844.372803 
	C352.256744,844.687073 353.202362,844.963989 354.473999,845.468750 
z" data-index="21"></path>
<path fill="#FCF6E5" opacity="1.000000" stroke="none" d="
M650.045349,846.016113 
	C690.625610,829.518494 731.496399,838.681396 756.931335,868.036011 
	C734.401367,886.887878 681.252869,896.128662 639.372192,850.933838 
	C642.907043,849.262756 646.283081,847.666809 650.045349,846.016113 
z" data-index="22" style="opacity: 1;"></path>
<path fill="#FDF8E7" opacity="1.000000" stroke="none" d="
M200.153625,775.079224 
	C166.079559,781.352905 137.136902,773.126953 114.097534,747.078003 
	C110.389565,742.885681 107.143105,738.285034 103.580940,733.742615 
	C144.847107,719.042419 190.426926,726.863464 215.981781,771.449158 
	C210.751190,772.665466 205.666962,773.847778 200.153625,775.079224 
z" data-index="23"></path>
<path fill="#FDF7E6" opacity="1.000000" stroke="none" d="
M304.279480,733.715332 
	C320.812195,748.593506 328.949829,767.012024 331.195374,788.654419 
	C332.528137,801.499512 331.613800,814.081787 330.373108,826.960815 
	C292.525421,804.844543 269.918976,767.947083 277.344757,715.615540 
	C287.372772,720.059509 296.161499,726.052612 304.279480,733.715332 
z" data-index="24"></path>
<path fill="#FCF7E6" opacity="1.000000" stroke="none" d="
M784.820618,394.178528 
	C779.423340,383.284943 776.147827,372.175140 774.774963,360.375366 
	C817.829956,365.558105 856.210693,398.759003 859.685547,446.064941 
	C826.986511,439.991821 800.409790,425.376495 784.820618,394.178528 
z" data-index="25" style="opacity: 1;"></path>
<path fill="#FDF7E5" opacity="1.000000" stroke="none" d="
M892.938965,731.965454 
	C894.528748,732.484680 895.727600,732.937683 896.955139,733.401550 
	C876.513550,764.420288 841.935974,786.628967 786.222717,772.674377 
	C805.583557,732.870361 849.555542,718.198120 892.938965,731.965454 
z" data-index="26"></path>
<path fill="#FCF8E7" opacity="1.000000" stroke="none" d="
M156.780563,403.801086 
	C169.900070,383.444824 189.191406,372.339111 211.158798,365.083527 
	C215.933762,363.506409 220.887863,362.471558 225.834625,361.167145 
	C224.933395,395.518951 199.057693,438.093292 142.164749,445.946808 
	C143.691223,430.755341 148.506149,416.886932 156.780563,403.801086 
z" data-index="27"></path>
<path fill="#FCF6E5" opacity="1.000000" stroke="none" d="
M668.130493,805.098999 
	C668.941589,781.856812 673.978577,760.533264 689.196228,742.666321 
	C698.551025,731.682922 709.606873,722.955505 723.582031,716.823120 
	C724.893738,738.311218 725.014709,759.206055 715.528381,778.993225 
	C705.431030,800.054932 690.174377,816.095032 669.130981,827.382874 
	C668.781433,819.765564 668.455933,812.671875 668.130493,805.098999 
z" data-index="28"></path>
<path fill="#FCF7E6" opacity="1.000000" stroke="none" d="
M761.710571,672.730896 
	C764.429504,669.572693 766.899048,666.671448 769.443787,663.681824 
	C787.649475,698.964355 793.992981,741.971191 757.281555,781.219543 
	C751.009888,771.026184 746.261658,760.331482 743.006592,748.980835 
	C735.394775,722.438049 742.073669,698.878662 758.162048,677.329773 
	C759.249390,675.873230 760.360840,674.434692 761.710571,672.730896 
z" data-index="29"></path>
<path fill="#FDF8E7" opacity="1.000000" stroke="none" d="
M145.902435,294.573181 
	C146.729309,293.729645 147.313385,293.186157 148.110504,292.444458 
	C165.028473,334.492371 168.504181,374.933655 135.986816,411.714050 
	C127.962250,400.821472 121.295807,388.781189 118.965508,374.607239 
	C113.816818,343.290558 125.305687,317.615082 145.902435,294.573181 
z" data-index="30"></path>
<path fill="#FCF8E6" opacity="1.000000" stroke="none" d="
M75.823250,558.133911 
	C57.218056,536.901978 56.200459,501.421967 60.363094,482.063721 
	C101.021736,501.306458 117.661392,533.625000 117.859764,583.840210 
	C101.604622,579.072998 87.644661,570.700500 75.823250,558.133911 
z" data-index="31"></path>
<path fill="#FDF8E6" opacity="1.000000" stroke="none" d="
M228.452942,672.520691 
	C229.905807,669.335938 231.139832,666.471130 232.389465,663.570068 
	C264.961243,694.376709 272.516937,734.965271 244.931458,781.297974 
	C232.671951,767.335754 222.433151,752.633606 219.878098,733.544434 
	C217.053421,712.440857 220.820053,692.436646 228.452942,672.520691 
z" data-index="32"></path>
<path fill="#FCF8E7" opacity="1.000000" stroke="none" d="
M86.437668,461.459106 
	C74.936821,433.290710 82.519028,397.506134 92.506607,381.854187 
	C122.259315,410.834290 135.014343,447.242004 115.147186,497.325287 
	C102.595222,487.821411 92.762802,476.314240 86.437668,461.459106 
z" data-index="33"></path>
<path fill="#FCF7E6" opacity="1.000000" stroke="none" d="
M884.983337,554.104370 
	C888.348511,537.887207 893.626404,522.901306 903.863525,510.133942 
	C913.929565,497.580109 926.291565,487.884827 940.936218,480.786438 
	C946.823425,526.869751 934.262756,567.020813 881.716736,583.175720 
	C882.834961,573.355408 883.906311,563.946289 884.983337,554.104370 
z" data-index="34"></path>
<path fill="#FCF7E6" opacity="1.000000" stroke="none" d="
M841.205322,628.784058 
	C823.766296,609.382874 815.300049,587.143799 817.827454,561.306091 
	C818.815063,551.210388 820.813171,541.213562 822.438049,530.603516 
	C858.373779,556.582886 877.668823,594.346802 856.608276,643.252014 
	C851.435852,638.403564 846.442078,633.722595 841.205322,628.784058 
z" data-index="35"></path>
<path fill="#FCF7E6" opacity="1.000000" stroke="none" d="
M877.608032,435.644165 
	C880.892395,418.483978 889.514343,404.600159 900.513855,391.984070 
	C903.323975,388.761047 906.313416,385.694397 909.416626,382.344147 
	C926.784302,417.843475 927.837402,463.226715 885.919861,496.870667 
	C880.322754,486.270844 872.398376,457.002716 877.608032,435.644165 
z" data-index="36"></path>
<path fill="#FCF8E6" opacity="1.000000" stroke="none" d="
M182.997345,552.153687 
	C184.802139,567.351257 184.927979,581.984680 180.020538,596.282043 
	C173.490570,615.306519 161.643250,630.415710 146.009766,642.862671 
	C126.860855,600.103455 134.767868,565.039673 178.712906,531.448792 
	C180.184799,538.439148 181.581726,545.073425 182.997345,552.153687 
z" data-index="37"></path>
<path fill="#FCF7E6" opacity="1.000000" stroke="none" d="
M776.562744,323.384460 
	C767.212158,306.151093 762.114136,287.868408 758.030457,268.447479 
	C778.756104,275.788971 797.547913,285.313538 811.506287,302.196411 
	C826.930054,320.851715 831.312317,343.238464 832.103455,367.069519 
	C809.958557,356.882019 788.553528,346.444733 776.562744,323.384460 
z" data-index="38"></path>
<path fill="#FCF7E6" opacity="1.000000" stroke="none" d="
M151.271332,685.744019 
	C157.119843,694.665527 162.718765,703.332458 168.585281,712.413574 
	C121.446030,718.705566 85.626076,699.917297 66.174774,659.471191 
	C89.598862,652.043640 129.442245,657.006775 151.271332,685.744019 
z" data-index="39"></path>
<path fill="#FCF7E6" opacity="1.000000" stroke="none" d="
M851.125610,388.747253 
	C838.685974,362.084442 841.083740,335.440430 849.265015,308.698883 
	C850.793030,303.704498 852.667236,298.815979 854.659180,293.079529 
	C868.376038,309.104431 879.745728,325.794800 883.831665,346.347870 
	C888.736145,371.018066 879.122070,391.911072 865.362122,412.390503 
	C860.528870,404.395966 855.903748,396.745636 851.125610,388.747253 
z" data-index="40"></path>
<path fill="#FCF8E7" opacity="1.000000" stroke="none" d="
M158.714294,528.736633 
	C152.054779,533.326538 145.793884,537.903137 139.200928,541.937012 
	C134.650635,544.721130 129.641113,546.754639 124.703674,549.189331 
	C120.177559,502.344025 140.886810,468.064636 184.699326,450.179688 
	C186.815323,479.839478 182.375137,507.268585 158.714294,528.736633 
z" data-index="41"></path>
<path fill="#FDF7E6" opacity="1.000000" stroke="none" d="
M829.676636,456.231415 
	C851.425598,469.066193 867.499207,486.124298 874.417297,510.619873 
	C877.977478,523.225525 877.666748,536.111877 876.931641,549.114807 
	C834.605713,533.423706 813.012085,503.321655 817.346313,450.407806 
	C821.478699,452.335022 825.424683,454.175293 829.676636,456.231415 
z" data-index="42"></path>
<path fill="#FDF7E5" opacity="1.000000" stroke="none" d="
M925.806458,673.815674 
	C902.954285,706.173340 871.804871,717.995605 833.471191,712.912415 
	C845.058777,680.739502 878.195007,647.250549 934.531128,659.551941 
	C931.608398,664.347839 928.812561,668.935547 925.806458,673.815674 
z" data-index="43"></path>
<path fill="#FCF8E7" opacity="1.000000" stroke="none" d="
M178.785492,326.821777 
	C187.463776,303.719727 204.629013,289.223572 225.309204,278.198181 
	C231.530746,274.881226 238.052261,272.126984 245.546143,268.591400 
	C241.131134,290.853912 235.585236,311.593445 223.169617,329.823822 
	C210.455917,348.491943 191.448517,358.695526 170.911102,367.912781 
	C171.622238,353.691376 173.406067,340.131195 178.785492,326.821777 
z" data-index="44"></path>
<path fill="#FCF7E6" opacity="1.000000" stroke="none" d="
M802.815308,610.795288 
	C803.496643,609.622375 804.001770,608.778442 804.511047,607.927734 
	C831.849731,636.755127 844.561951,679.614624 816.899414,721.570129 
	C804.314392,706.955017 795.684692,692.322388 792.090271,679.264893 
	C786.127686,657.603943 789.825317,637.061401 799.428284,617.234680 
	C800.430664,615.165039 801.565674,613.159546 802.815308,610.795288 
z" data-index="45"></path>
<path fill="#FDF8E7" opacity="1.000000" stroke="none" d="
M207.347351,687.279663 
	C200.367889,699.611450 193.582626,711.595703 186.427734,724.232727 
	C163.248276,688.537231 160.207397,651.834167 197.136917,609.928589 
	C211.620621,634.243347 216.753326,659.589294 207.347351,687.279663 
z" data-index="46"></path>
<path fill="#FCF8E7" opacity="1.000000" stroke="none" d="
M56.930695,604.020874 
	C53.561237,595.647034 50.264549,587.645691 46.877007,579.423889 
	C79.681755,578.325439 125.173264,599.771667 135.690933,648.659363 
	C104.132935,650.704346 74.633133,637.519836 58.191326,606.522278 
	C57.810638,605.804565 57.400097,605.102722 56.930695,604.020874 
z" data-index="47"></path>
<path fill="#FCF7E5" opacity="1.000000" stroke="none" d="
M871.841797,631.872803 
	C887.848511,595.523804 920.920593,578.860046 954.360535,578.118713 
	C942.814026,620.575500 912.330444,649.052612 866.288757,648.598022 
	C868.156372,642.981323 869.941711,637.612244 871.841797,631.872803 
z" data-index="48"></path>
<path fill="#FCF8E9" opacity="1.000000" stroke="none" d="
M540.497559,283.779999 
	C544.959900,282.767303 549.430176,282.569946 553.019958,280.690582 
	C555.971252,279.145477 558.293701,278.499878 559.880981,281.167694 
	C560.463928,282.147491 558.273560,284.777252 557.348206,286.654419 
	C556.951050,286.507080 556.553894,286.359772 556.156677,286.212463 
	C556.309448,286.655975 556.350220,287.391998 556.631531,287.499664 
	C561.836365,289.491302 562.333313,293.594788 562.069885,298.436432 
	C561.720398,304.859344 561.115051,305.702881 554.543152,305.999756 
	C554.044800,306.022278 553.335266,305.809326 553.077942,306.063812 
	C549.090271,310.007507 544.299072,307.993530 539.734985,308.069794 
	C533.535706,308.173401 527.342468,308.678925 521.149658,309.061737 
	C520.527283,309.100220 519.926025,309.481232 519.072998,310.036743 
	C518.413391,310.303528 517.995728,310.236816 517.210083,309.690094 
	C515.586609,308.342163 514.092651,307.683014 513.118103,306.569336 
	C509.383423,302.301575 501.942108,302.882629 499.002289,307.798370 
	C488.783234,304.787628 478.564178,301.776855 468.345093,298.766113 
	C468.476959,298.244202 468.608795,297.722290 468.740662,297.200409 
	C493.151611,296.011719 517.216370,292.994171 540.497559,283.779999 
z" data-index="49"></path>
<path fill="#FDF8E7" opacity="1.000000" stroke="none" d="
M492.333588,892.933960 
	C483.925842,887.621643 480.206116,880.444641 481.966614,870.831970 
	C483.566071,862.098572 489.033478,856.665527 497.376099,854.559387 
	C505.682404,852.462402 513.176025,854.470215 518.884094,861.251221 
	C524.088928,867.434387 525.639648,874.443787 522.380737,881.975952 
	C518.975830,889.845703 512.890869,894.699036 504.201355,895.056580 
	C500.398926,895.213013 496.531219,893.781921 492.333588,892.933960 
z" data-index="50"></path>
<path fill="#FCFCF3" opacity="1.000000" stroke="none" d="
M337.695679,573.162354 
	C337.478119,576.222961 337.737854,578.321533 341.962952,578.077026 
	C347.844452,577.736694 353.760590,577.996948 359.661896,577.997253 
	C376.704010,577.998169 393.747101,578.106018 410.787842,577.953491 
	C419.809387,577.872742 428.827911,577.046936 437.845947,577.079346 
	C450.024811,577.123169 462.201263,577.700989 474.380585,577.963501 
	C476.086639,578.000244 477.803223,577.547180 479.665802,577.300842 
	C479.020020,574.687744 478.525116,572.685242 478.049805,570.286377 
	C483.198639,573.192932 488.327820,576.495728 493.534424,579.848328 
	C438.094299,579.848328 382.674500,579.848328 327.088104,579.848328 
	C330.643799,577.555969 334.000763,575.391724 337.695679,573.162354 
z" data-index="51"></path>
<path fill="#FEFBEE" opacity="1.000000" stroke="none" d="
M499.412292,307.902100 
	C501.942108,302.882629 509.383423,302.301575 513.118103,306.569336 
	C514.092651,307.683014 515.586609,308.342163 516.920166,309.560669 
	C511.272949,309.276062 505.547607,308.640930 499.412292,307.902100 
z" data-index="52"></path>
<path fill="#FEFBEE" opacity="1.000000" stroke="none" d="
M348.803833,562.760742 
	C349.808533,563.708191 350.689392,564.747314 351.237030,565.939575 
	C351.511261,566.536499 351.350372,567.996399 351.092651,568.072632 
	C348.275116,568.905396 345.399567,569.541748 342.217834,570.093994 
	C344.111389,567.609619 346.326904,565.262634 348.803833,562.760742 
z" data-index="53"></path>
<path fill="#FCFCF3" opacity="1.000000" stroke="none" d="
M477.986267,569.621704 
	C474.115967,571.196533 472.908295,569.168701 472.991150,565.222107 
	C474.612000,566.328796 476.237885,567.821411 477.986267,569.621704 
z" data-index="54"></path>
<path fill="#FFF8E7" opacity="1.000000" stroke="none" d="
M363.745758,539.989136 
	C363.586700,540.093384 363.426483,540.041931 363.266235,539.990479 
	C363.425690,539.938110 363.585114,539.885742 363.745758,539.989136 
z" data-index="55"></path>
</svg>