<svg xmlns="http://www.w3.org/2000/svg" viewBox="1098.000 1063.000 333.000 94.000">
  <path d="M 1288.752 1153.056 C 1283.836 1153.407, 1278.894 1153.557, 1273.965 1153.561 C 1269.036 1153.564, 1264.096 1153.387, 1259.176 1153.079 C 1254.256 1152.770, 1249.337 1152.306, 1244.442 1151.710 C 1239.548 1151.115, 1234.664 1150.372, 1229.810 1149.505 C 1224.956 1148.639, 1220.122 1147.625, 1215.319 1146.510 C 1210.515 1145.396, 1205.740 1144.141, 1200.989 1142.818 C 1196.238 1141.495, 1191.525 1140.030, 1186.812 1138.575 C 1182.099 1137.119, 1177.417 1135.559, 1172.710 1134.083 C 1168.003 1132.607, 1163.307 1131.091, 1158.570 1129.719 C 1153.832 1128.347, 1149.078 1127.013, 1144.286 1125.854 C 1139.493 1124.694, 1134.666 1123.638, 1129.815 1122.762 C 1124.964 1121.886, 1119.462 1121.594, 1115.178 1120.599 C 1110.894 1119.604, 1103.555 1117.987, 1104.110 1116.793 C 1104.666 1115.599, 1113.730 1114.639, 1118.511 1113.433 C 1123.291 1112.226, 1128.051 1110.913, 1132.792 1109.554 C 1137.534 1108.195, 1142.260 1106.775, 1146.960 1105.278 C 1151.660 1103.782, 1156.334 1102.201, 1160.991 1100.575 C 1165.648 1098.949, 1170.276 1097.239, 1174.901 1095.524 C 1179.526 1093.808, 1184.125 1092.021, 1188.741 1090.281 C 1193.357 1088.541, 1197.961 1086.768, 1202.597 1085.083 C 1207.233 1083.399, 1211.875 1081.721, 1216.557 1080.172 C 1221.239 1078.623, 1225.944 1077.122, 1230.691 1075.789 C 1235.438 1074.456, 1240.223 1073.222, 1245.039 1072.173 C 1249.856 1071.125, 1254.719 1070.243, 1259.592 1069.498 C 1264.466 1068.754, 1269.372 1068.175, 1274.280 1067.705 C 1279.189 1067.234, 1284.116 1066.908, 1289.042 1066.675 C 1293.968 1066.441, 1298.904 1066.323, 1303.836 1066.306 C 1308.767 1066.289, 1313.704 1066.374, 1318.632 1066.572 C 1323.559 1066.771, 1328.488 1067.070, 1333.400 1067.498 C 1338.313 1067.925, 1343.222 1068.465, 1348.107 1069.139 C 1352.991 1069.813, 1357.865 1070.615, 1362.708 1071.541 C 1367.551 1072.468, 1372.375 1073.526, 1377.166 1074.695 C 1381.956 1075.865, 1386.724 1077.152, 1391.450 1078.560 C 1396.175 1079.968, 1400.878 1081.481, 1405.519 1083.144 C 1410.161 1084.806, 1416.303 1086.146, 1419.300 1088.533 C 1422.296 1090.921, 1424.780 1094.512, 1423.498 1097.469 C 1422.215 1100.426, 1415.605 1103.390, 1411.605 1106.276 C 1407.605 1109.162, 1403.618 1112.076, 1399.499 1114.785 C 1395.380 1117.494, 1391.173 1120.088, 1386.892 1122.531 C 1382.611 1124.975, 1378.238 1127.279, 1373.811 1129.446 C 1369.383 1131.614, 1364.878 1133.645, 1360.325 1135.537 C 1355.772 1137.428, 1351.153 1139.182, 1346.494 1140.796 C 1341.836 1142.410, 1337.121 1143.887, 1332.375 1145.222 C 1327.629 1146.557, 1322.838 1147.769, 1318.019 1148.808 C 1313.200 1149.847, 1308.339 1150.748, 1303.461 1151.456 C 1298.584 1152.164, 1293.669 1152.706, 1288.752 1153.056 Z" fill="#dca234"/>
</svg>
