<svg xmlns="http://www.w3.org/2000/svg" viewBox="532.000 841.000 244.000 194.000">
  <path d="M 770.482 1030.515 C 769.444 1032.476, 761.890 1031.384, 757.526 1031.274 C 753.162 1031.163, 748.703 1030.360, 744.298 1029.851 C 739.893 1029.341, 735.485 1028.839, 731.095 1028.217 C 726.705 1027.595, 722.317 1026.928, 717.959 1026.120 C 713.600 1025.311, 709.258 1024.389, 704.944 1023.367 C 700.631 1022.345, 696.340 1021.208, 692.078 1019.987 C 687.816 1018.765, 683.579 1017.443, 679.374 1016.040 C 675.169 1014.636, 670.984 1013.155, 666.846 1011.565 C 662.708 1009.975, 658.597 1008.299, 654.546 1006.500 C 650.495 1004.701, 646.480 1002.802, 642.540 1000.771 C 638.601 998.740, 634.710 996.596, 630.910 994.315 C 627.111 992.035, 623.374 989.629, 619.745 987.087 C 616.116 984.544, 612.569 981.865, 609.138 979.062 C 605.707 976.258, 602.377 973.313, 599.159 970.267 C 595.940 967.222, 592.825 964.052, 589.825 960.790 C 586.825 957.529, 583.930 954.157, 581.159 950.700 C 578.388 947.242, 575.723 943.684, 573.198 940.043 C 570.673 936.402, 568.261 932.668, 566.008 928.853 C 563.754 925.039, 561.654 921.122, 559.678 917.155 C 557.702 913.189, 555.912 909.124, 554.153 905.055 C 552.394 900.985, 550.769 896.856, 549.124 892.738 C 547.478 888.621, 545.705 884.541, 544.277 880.349 C 542.849 876.156, 541.768 871.849, 540.555 867.585 C 539.343 863.321, 536.866 858.458, 537.001 854.766 C 537.136 851.075, 538.494 846.427, 541.365 845.433 C 544.236 844.439, 549.956 847.615, 554.226 848.803 C 558.497 849.990, 562.746 851.269, 566.989 852.560 C 571.231 853.851, 575.475 855.142, 579.680 856.548 C 583.886 857.953, 588.068 859.435, 592.219 860.992 C 596.371 862.548, 600.495 864.186, 604.589 865.887 C 608.684 867.589, 612.751 869.361, 616.786 871.199 C 620.821 873.038, 624.832 874.934, 628.797 876.918 C 632.762 878.902, 636.698 880.953, 640.575 883.103 C 644.452 885.253, 648.292 887.482, 652.059 889.818 C 655.826 892.154, 659.545 894.580, 663.179 897.118 C 666.813 899.656, 670.386 902.295, 673.860 905.046 C 677.335 907.797, 680.731 910.661, 684.026 913.625 C 687.322 916.588, 690.521 919.669, 693.633 922.825 C 696.745 925.982, 699.763 929.239, 702.697 932.562 C 705.630 935.885, 708.475 939.294, 711.235 942.762 C 713.996 946.231, 716.671 949.774, 719.261 953.372 C 721.850 956.970, 724.354 960.635, 726.774 964.350 C 729.194 968.064, 731.485 971.864, 733.780 975.658 C 736.075 979.453, 738.243 983.324, 740.541 987.116 C 742.839 990.909, 745.104 994.729, 747.567 998.412 C 750.031 1002.096, 752.625 1005.702, 755.323 1009.217 C 758.021 1012.733, 761.229 1015.957, 763.755 1019.507 C 766.282 1023.056, 771.521 1028.553, 770.482 1030.515 Z" fill="#dca234"/>
</svg>
