<svg xmlns="http://www.w3.org/2000/svg" viewBox="614.000 1063.000 331.000 94.000">
  <path d="M 790.731 1153.012 C 785.840 1153.302, 780.933 1153.455, 776.033 1153.465 C 771.134 1153.475, 766.225 1153.355, 761.334 1153.074 C 756.443 1152.793, 751.549 1152.378, 746.687 1151.779 C 741.826 1151.180, 736.973 1150.415, 732.165 1149.478 C 727.357 1148.542, 722.576 1147.417, 717.841 1146.161 C 713.106 1144.904, 708.409 1143.473, 703.755 1141.939 C 699.102 1140.405, 694.487 1138.735, 689.920 1136.958 C 685.354 1135.181, 680.826 1133.286, 676.357 1131.277 C 671.887 1129.269, 667.462 1127.146, 663.102 1124.909 C 658.743 1122.673, 654.434 1120.322, 650.199 1117.857 C 645.964 1115.392, 641.788 1112.813, 637.694 1110.120 C 633.601 1107.428, 628.250 1104.762, 625.638 1101.702 C 623.025 1098.642, 620.376 1094.399, 622.019 1091.762 C 623.662 1089.125, 630.970 1087.758, 635.497 1085.880 C 640.023 1084.003, 644.559 1082.123, 649.179 1080.499 C 653.800 1078.874, 658.497 1077.437, 663.219 1076.131 C 667.941 1074.825, 672.718 1073.694, 677.509 1072.665 C 682.300 1071.636, 687.126 1070.742, 691.963 1069.958 C 696.800 1069.174, 701.662 1068.511, 706.532 1067.963 C 711.401 1067.414, 716.289 1066.980, 721.179 1066.667 C 726.070 1066.353, 730.973 1066.152, 735.873 1066.079 C 740.772 1066.007, 745.680 1066.049, 750.577 1066.233 C 755.473 1066.417, 760.373 1066.723, 765.250 1067.182 C 770.128 1067.641, 775.000 1068.249, 779.844 1068.988 C 784.687 1069.726, 789.514 1070.617, 794.312 1071.613 C 799.109 1072.610, 803.883 1073.746, 808.629 1074.968 C 813.375 1076.190, 818.093 1077.535, 822.786 1078.945 C 827.480 1080.356, 832.145 1081.871, 836.791 1083.432 C 841.438 1084.993, 846.055 1086.642, 850.665 1088.309 C 855.274 1089.977, 859.856 1091.721, 864.448 1093.439 C 869.039 1095.157, 873.614 1096.919, 878.213 1098.616 C 882.812 1100.313, 887.409 1102.019, 892.040 1103.623 C 896.672 1105.227, 901.317 1106.803, 906.002 1108.240 C 910.687 1109.677, 915.411 1111.003, 920.151 1112.246 C 924.891 1113.489, 932.204 1114.425, 934.445 1115.699 C 936.685 1116.973, 936.148 1118.770, 933.591 1119.891 C 931.035 1121.012, 923.921 1121.509, 919.106 1122.424 C 914.291 1123.338, 909.466 1124.236, 904.702 1125.378 C 899.939 1126.519, 895.222 1127.880, 890.523 1129.273 C 885.824 1130.665, 881.172 1132.220, 876.510 1133.733 C 871.847 1135.247, 867.213 1136.848, 862.548 1138.353 C 857.882 1139.857, 853.221 1141.384, 848.517 1142.759 C 843.813 1144.133, 839.088 1145.459, 834.323 1146.599 C 829.558 1147.740, 824.752 1148.745, 819.928 1149.601 C 815.104 1150.456, 810.245 1151.162, 805.379 1151.731 C 800.513 1152.299, 795.622 1152.723, 790.731 1153.012 Z" fill="#dca234"/>
</svg>
