<svg xmlns="http://www.w3.org/2000/svg" viewBox="528 837 989 374">
  <path d="M 770.482 1030.515 C 769.444 1032.476, 761.890 1031.384, 757.526 1031.274 C 753.162 1031.163, 748.703 1030.360, 744.298 1029.851 C 739.893 1029.341, 735.485 1028.839, 731.095 1028.217 C 726.705 1027.595, 722.317 1026.928, 717.959 1026.120 C 713.600 1025.311, 709.258 1024.389, 704.944 1023.367 C 700.631 1022.345, 696.340 1021.208, 692.078 1019.987 C 687.816 1018.765, 683.579 1017.443, 679.374 1016.040 C 675.169 1014.636, 670.984 1013.155, 666.846 1011.565 C 662.708 1009.975, 658.597 1008.299, 654.546 1006.500 C 650.495 1004.701, 646.480 1002.802, 642.540 1000.771 C 638.601 998.740, 634.710 996.596, 630.910 994.315 C 627.111 992.035, 623.374 989.629, 619.745 987.087 C 616.116 984.544, 612.569 981.865, 609.138 979.062 C 605.707 976.258, 602.377 973.313, 599.159 970.267 C 595.940 967.222, 592.825 964.052, 589.825 960.790 C 586.825 957.529, 583.930 954.157, 581.159 950.700 C 578.388 947.242, 575.723 943.684, 573.198 940.043 C 570.673 936.402, 568.261 932.668, 566.008 928.853 C 563.754 925.039, 561.654 921.122, 559.678 917.155 C 557.702 913.189, 555.912 909.124, 554.153 905.055 C 552.394 900.985, 550.769 896.856, 549.124 892.738 C 547.478 888.621, 545.705 884.541, 544.277 880.349 C 542.849 876.156, 541.768 871.849, 540.555 867.585 C 539.343 863.321, 536.866 858.458, 537.001 854.766 C 537.136 851.075, 538.494 846.427, 541.365 845.433 C 544.236 844.439, 549.956 847.615, 554.226 848.803 C 558.497 849.990, 562.746 851.269, 566.989 852.560 C 571.231 853.851, 575.475 855.142, 579.680 856.548 C 583.886 857.953, 588.068 859.435, 592.219 860.992 C 596.371 862.548, 600.495 864.186, 604.589 865.887 C 608.684 867.589, 612.751 869.361, 616.786 871.199 C 620.821 873.038, 624.832 874.934, 628.797 876.918 C 632.762 878.902, 636.698 880.953, 640.575 883.103 C 644.452 885.253, 648.292 887.482, 652.059 889.818 C 655.826 892.154, 659.545 894.580, 663.179 897.118 C 666.813 899.656, 670.386 902.295, 673.860 905.046 C 677.335 907.797, 680.731 910.661, 684.026 913.625 C 687.322 916.588, 690.521 919.669, 693.633 922.825 C 696.745 925.982, 699.763 929.239, 702.697 932.562 C 705.630 935.885, 708.475 939.294, 711.235 942.762 C 713.996 946.231, 716.671 949.774, 719.261 953.372 C 721.850 956.970, 724.354 960.635, 726.774 964.350 C 729.194 968.064, 731.485 971.864, 733.780 975.658 C 736.075 979.453, 738.243 983.324, 740.541 987.116 C 742.839 990.909, 745.104 994.729, 747.567 998.412 C 750.031 1002.096, 752.625 1005.702, 755.323 1009.217 C 758.021 1012.733, 761.229 1015.957, 763.755 1019.507 C 766.282 1023.056, 771.521 1028.553, 770.482 1030.515 Z" fill="#dca234"/> <path d="M 942.065 1090.670 C 940.871 1092.030, 934.112 1088.535, 930.095 1087.346 C 926.078 1086.158, 922.095 1084.445, 917.961 1083.541 C 913.826 1082.637, 909.489 1082.603, 905.289 1081.921 C 901.088 1081.239, 896.896 1080.440, 892.758 1079.452 C 888.620 1078.463, 884.525 1077.260, 880.462 1075.991 C 876.400 1074.721, 872.371 1073.321, 868.383 1071.832 C 864.395 1070.344, 860.412 1068.808, 856.534 1067.060 C 852.656 1065.312, 848.807 1063.448, 845.113 1061.346 C 841.418 1059.244, 837.815 1056.933, 834.366 1054.448 C 830.918 1051.963, 827.591 1049.271, 824.422 1046.436 C 821.254 1043.602, 818.212 1040.591, 815.356 1037.443 C 812.500 1034.295, 809.803 1030.972, 807.284 1027.547 C 804.765 1024.122, 802.422 1020.544, 800.243 1016.892 C 798.064 1013.240, 796.063 1009.464, 794.208 1005.636 C 792.354 1001.807, 790.671 997.883, 789.115 993.922 C 787.559 989.962, 786.162 985.929, 784.874 981.873 C 783.586 977.817, 782.442 973.708, 781.385 969.584 C 780.329 965.461, 779.401 961.300, 778.534 957.132 C 777.666 952.963, 776.908 948.770, 776.181 944.575 C 775.453 940.379, 774.807 936.169, 774.169 931.958 C 773.531 927.748, 772.419 923.358, 772.353 919.312 C 772.287 915.266, 771.593 908.772, 773.771 907.683 C 775.950 906.593, 781.604 910.928, 785.426 912.776 C 789.248 914.624, 793.008 916.660, 796.704 918.771 C 800.400 920.882, 804.014 923.145, 807.599 925.441 C 811.185 927.737, 814.719 930.118, 818.218 932.545 C 821.716 934.972, 825.169 937.467, 828.590 940.003 C 832.011 942.538, 835.400 945.120, 838.743 947.758 C 842.085 950.396, 845.394 953.080, 848.646 955.829 C 851.897 958.579, 855.108 961.381, 858.251 964.253 C 861.394 967.125, 864.488 970.056, 867.504 973.061 C 870.520 976.066, 873.474 979.139, 876.345 982.282 C 879.216 985.425, 882.007 988.647, 884.729 991.921 C 887.451 995.194, 890.096 998.536, 892.677 1001.923 C 895.257 1005.309, 897.767 1008.753, 900.212 1012.239 C 902.658 1015.724, 905.033 1019.262, 907.349 1022.835 C 909.665 1026.407, 911.918 1030.025, 914.108 1033.676 C 916.299 1037.327, 918.447 1041.008, 920.493 1044.741 C 922.539 1048.475, 924.524 1052.248, 926.383 1056.077 C 928.241 1059.907, 929.832 1063.866, 931.644 1067.718 C 933.456 1071.570, 935.517 1075.362, 937.254 1079.188 C 938.991 1083.013, 943.258 1089.311, 942.065 1090.670 Z" fill="#dca234"/> <path d="M 790.731 1153.012 C 785.840 1153.302, 780.933 1153.455, 776.033 1153.465 C 771.134 1153.475, 766.225 1153.355, 761.334 1153.074 C 756.443 1152.793, 751.549 1152.378, 746.687 1151.779 C 741.826 1151.180, 736.973 1150.415, 732.165 1149.478 C 727.357 1148.542, 722.576 1147.417, 717.841 1146.161 C 713.106 1144.904, 708.409 1143.473, 703.755 1141.939 C 699.102 1140.405, 694.487 1138.735, 689.920 1136.958 C 685.354 1135.181, 680.826 1133.286, 676.357 1131.277 C 671.887 1129.269, 667.462 1127.146, 663.102 1124.909 C 658.743 1122.673, 654.434 1120.322, 650.199 1117.857 C 645.964 1115.392, 641.788 1112.813, 637.694 1110.120 C 633.601 1107.428, 628.250 1104.762, 625.638 1101.702 C 623.025 1098.642, 620.376 1094.399, 622.019 1091.762 C 623.662 1089.125, 630.970 1087.758, 635.497 1085.880 C 640.023 1084.003, 644.559 1082.123, 649.179 1080.499 C 653.800 1078.874, 658.497 1077.437, 663.219 1076.131 C 667.941 1074.825, 672.718 1073.694, 677.509 1072.665 C 682.300 1071.636, 687.126 1070.742, 691.963 1069.958 C 696.800 1069.174, 701.662 1068.511, 706.532 1067.963 C 711.401 1067.414, 716.289 1066.980, 721.179 1066.667 C 726.070 1066.353, 730.973 1066.152, 735.873 1066.079 C 740.772 1066.007, 745.680 1066.049, 750.577 1066.233 C 755.473 1066.417, 760.373 1066.723, 765.250 1067.182 C 770.128 1067.641, 775.000 1068.249, 779.844 1068.988 C 784.687 1069.726, 789.514 1070.617, 794.312 1071.613 C 799.109 1072.610, 803.883 1073.746, 808.629 1074.968 C 813.375 1076.190, 818.093 1077.535, 822.786 1078.945 C 827.480 1080.356, 832.145 1081.871, 836.791 1083.432 C 841.438 1084.993, 846.055 1086.642, 850.665 1088.309 C 855.274 1089.977, 859.856 1091.721, 864.448 1093.439 C 869.039 1095.157, 873.614 1096.919, 878.213 1098.616 C 882.812 1100.313, 887.409 1102.019, 892.040 1103.623 C 896.672 1105.227, 901.317 1106.803, 906.002 1108.240 C 910.687 1109.677, 915.411 1111.003, 920.151 1112.246 C 924.891 1113.489, 932.204 1114.425, 934.445 1115.699 C 936.685 1116.973, 936.148 1118.770, 933.591 1119.891 C 931.035 1121.012, 923.921 1121.509, 919.106 1122.424 C 914.291 1123.338, 909.466 1124.236, 904.702 1125.378 C 899.939 1126.519, 895.222 1127.880, 890.523 1129.273 C 885.824 1130.665, 881.172 1132.220, 876.510 1133.733 C 871.847 1135.247, 867.213 1136.848, 862.548 1138.353 C 857.882 1139.857, 853.221 1141.384, 848.517 1142.759 C 843.813 1144.133, 839.088 1145.459, 834.323 1146.599 C 829.558 1147.740, 824.752 1148.745, 819.928 1149.601 C 815.104 1150.456, 810.245 1151.162, 805.379 1151.731 C 800.513 1152.299, 795.622 1152.723, 790.731 1153.012 Z" fill="#dca234"/> <path d="M 1102.062 1091.460 C 1100.853 1090.277, 1104.935 1084.049, 1106.646 1080.280 C 1108.357 1076.512, 1110.423 1072.654, 1112.327 1068.848 C 1114.230 1065.043, 1116.126 1061.233, 1118.068 1057.447 C 1120.010 1053.661, 1121.960 1049.878, 1123.980 1046.133 C 1126.000 1042.388, 1128.053 1038.659, 1130.185 1034.978 C 1132.318 1031.296, 1134.510 1027.646, 1136.775 1024.045 C 1139.039 1020.444, 1141.369 1016.879, 1143.772 1013.369 C 1146.174 1009.858, 1148.644 1006.389, 1151.190 1002.981 C 1153.736 999.573, 1156.352 996.212, 1159.048 992.922 C 1161.743 989.631, 1164.515 986.397, 1167.365 983.239 C 1170.215 980.082, 1173.154 976.999, 1176.149 973.978 C 1179.144 970.957, 1182.220 968.012, 1185.334 965.114 C 1188.448 962.215, 1191.619 959.374, 1194.833 956.587 C 1198.048 953.801, 1201.303 951.056, 1204.621 948.393 C 1207.939 945.731, 1211.308 943.126, 1214.740 940.613 C 1218.172 938.100, 1221.685 935.693, 1225.213 933.315 C 1228.741 930.938, 1232.330 928.649, 1235.908 926.346 C 1239.487 924.044, 1242.995 921.608, 1246.683 919.501 C 1250.371 917.393, 1254.229 915.573, 1258.034 913.700 C 1261.839 911.828, 1267.324 907.226, 1269.513 908.263 C 1271.702 909.300, 1271.095 915.862, 1271.168 919.924 C 1271.241 923.985, 1270.418 928.402, 1269.950 932.631 C 1269.481 936.860, 1269.007 941.093, 1268.355 945.295 C 1267.704 949.498, 1266.944 953.692, 1266.042 957.847 C 1265.139 962.003, 1264.093 966.135, 1262.943 970.229 C 1261.792 974.323, 1260.512 978.388, 1259.139 982.413 C 1257.766 986.439, 1256.304 990.442, 1254.704 994.382 C 1253.105 998.322, 1251.406 1002.234, 1249.542 1006.054 C 1247.677 1009.875, 1245.687 1013.651, 1243.517 1017.305 C 1241.348 1020.959, 1239.027 1024.546, 1236.525 1027.979 C 1234.022 1031.412, 1231.346 1034.746, 1228.504 1037.903 C 1225.663 1041.060, 1222.632 1044.077, 1219.477 1046.921 C 1216.322 1049.765, 1213.006 1052.465, 1209.575 1054.969 C 1206.143 1057.472, 1202.566 1059.815, 1198.889 1061.940 C 1195.212 1064.066, 1191.386 1065.973, 1187.513 1067.721 C 1183.640 1069.469, 1179.654 1070.996, 1175.651 1072.428 C 1171.648 1073.861, 1167.583 1075.150, 1163.494 1076.316 C 1159.405 1077.483, 1155.273 1078.538, 1151.116 1079.429 C 1146.959 1080.321, 1142.756 1081.031, 1138.551 1081.665 C 1134.345 1082.300, 1129.992 1082.286, 1125.884 1083.238 C 1121.775 1084.190, 1117.871 1086.007, 1113.901 1087.377 C 1109.931 1088.748, 1103.271 1092.643, 1102.062 1091.460 Z" fill="#dca234"/> <path d="M 1288.752 1153.056 C 1283.836 1153.407, 1278.894 1153.557, 1273.965 1153.561 C 1269.036 1153.564, 1264.096 1153.387, 1259.176 1153.079 C 1254.256 1152.770, 1249.337 1152.306, 1244.442 1151.710 C 1239.548 1151.115, 1234.664 1150.372, 1229.810 1149.505 C 1224.956 1148.639, 1220.122 1147.625, 1215.319 1146.510 C 1210.515 1145.396, 1205.740 1144.141, 1200.989 1142.818 C 1196.238 1141.495, 1191.525 1140.030, 1186.812 1138.575 C 1182.099 1137.119, 1177.417 1135.559, 1172.710 1134.083 C 1168.003 1132.607, 1163.307 1131.091, 1158.570 1129.719 C 1153.832 1128.347, 1149.078 1127.013, 1144.286 1125.854 C 1139.493 1124.694, 1134.666 1123.638, 1129.815 1122.762 C 1124.964 1121.886, 1119.462 1121.594, 1115.178 1120.599 C 1110.894 1119.604, 1103.555 1117.987, 1104.110 1116.793 C 1104.666 1115.599, 1113.730 1114.639, 1118.511 1113.433 C 1123.291 1112.226, 1128.051 1110.913, 1132.792 1109.554 C 1137.534 1108.195, 1142.260 1106.775, 1146.960 1105.278 C 1151.660 1103.782, 1156.334 1102.201, 1160.991 1100.575 C 1165.648 1098.949, 1170.276 1097.239, 1174.901 1095.524 C 1179.526 1093.808, 1184.125 1092.021, 1188.741 1090.281 C 1193.357 1088.541, 1197.961 1086.768, 1202.597 1085.083 C 1207.233 1083.399, 1211.875 1081.721, 1216.557 1080.172 C 1221.239 1078.623, 1225.944 1077.122, 1230.691 1075.789 C 1235.438 1074.456, 1240.223 1073.222, 1245.039 1072.173 C 1249.856 1071.125, 1254.719 1070.243, 1259.592 1069.498 C 1264.466 1068.754, 1269.372 1068.175, 1274.280 1067.705 C 1279.189 1067.234, 1284.116 1066.908, 1289.042 1066.675 C 1293.968 1066.441, 1298.904 1066.323, 1303.836 1066.306 C 1308.767 1066.289, 1313.704 1066.374, 1318.632 1066.572 C 1323.559 1066.771, 1328.488 1067.070, 1333.400 1067.498 C 1338.313 1067.925, 1343.222 1068.465, 1348.107 1069.139 C 1352.991 1069.813, 1357.865 1070.615, 1362.708 1071.541 C 1367.551 1072.468, 1372.375 1073.526, 1377.166 1074.695 C 1381.956 1075.865, 1386.724 1077.152, 1391.450 1078.560 C 1396.175 1079.968, 1400.878 1081.481, 1405.519 1083.144 C 1410.161 1084.806, 1416.303 1086.146, 1419.300 1088.533 C 1422.296 1090.921, 1424.780 1094.512, 1423.498 1097.469 C 1422.215 1100.426, 1415.605 1103.390, 1411.605 1106.276 C 1407.605 1109.162, 1403.618 1112.076, 1399.499 1114.785 C 1395.380 1117.494, 1391.173 1120.088, 1386.892 1122.531 C 1382.611 1124.975, 1378.238 1127.279, 1373.811 1129.446 C 1369.383 1131.614, 1364.878 1133.645, 1360.325 1135.537 C 1355.772 1137.428, 1351.153 1139.182, 1346.494 1140.796 C 1341.836 1142.410, 1337.121 1143.887, 1332.375 1145.222 C 1327.629 1146.557, 1322.838 1147.769, 1318.019 1148.808 C 1313.200 1149.847, 1308.339 1150.748, 1303.461 1151.456 C 1298.584 1152.164, 1293.669 1152.706, 1288.752 1153.056 Z" fill="#dca234"/> <path d="M 1284.434 1031.361 C 1280.018 1031.352, 1272.346 1032.137, 1271.314 1030.176 C 1270.281 1028.215, 1275.671 1023.093, 1278.238 1019.595 C 1280.805 1016.097, 1283.970 1012.718, 1286.716 1009.187 C 1289.463 1005.656, 1292.128 1002.057, 1294.717 998.409 C 1297.306 994.761, 1299.789 991.034, 1302.250 987.298 C 1304.712 983.562, 1307.089 979.769, 1309.489 975.993 C 1311.890 972.216, 1314.231 968.401, 1316.654 964.640 C 1319.077 960.878, 1321.489 957.106, 1324.027 953.422 C 1326.565 949.738, 1329.159 946.085, 1331.882 942.537 C 1334.604 938.989, 1337.432 935.512, 1340.361 932.132 C 1343.291 928.753, 1346.325 925.453, 1349.457 922.262 C 1352.590 919.070, 1355.829 915.971, 1359.156 912.984 C 1362.484 909.996, 1365.917 907.114, 1369.421 904.334 C 1372.925 901.555, 1376.522 898.882, 1380.179 896.308 C 1383.837 893.734, 1387.576 891.265, 1391.366 888.890 C 1395.156 886.515, 1399.017 884.242, 1402.921 882.058 C 1406.825 879.874, 1410.788 877.788, 1414.790 875.788 C 1418.791 873.788, 1422.842 871.877, 1426.929 870.058 C 1431.016 868.239, 1435.146 866.507, 1439.311 864.874 C 1443.476 863.241, 1447.682 861.703, 1451.917 860.261 C 1456.151 858.819, 1460.432 857.506, 1464.719 856.223 C 1469.005 854.940, 1473.326 853.772, 1477.634 852.562 C 1481.942 851.352, 1486.254 850.151, 1490.567 848.962 C 1494.880 847.773, 1500.739 844.390, 1503.511 845.429 C 1506.284 846.467, 1507.102 851.387, 1507.203 855.191 C 1507.304 858.996, 1505.268 863.932, 1504.116 868.254 C 1502.965 872.576, 1501.673 876.866, 1500.294 881.122 C 1498.915 885.377, 1497.439 889.607, 1495.842 893.785 C 1494.246 897.963, 1492.545 902.109, 1490.716 906.190 C 1488.886 910.271, 1486.941 914.310, 1484.864 918.270 C 1482.787 922.230, 1480.582 926.134, 1478.253 929.951 C 1475.925 933.769, 1473.463 937.516, 1470.893 941.175 C 1468.323 944.835, 1465.627 948.417, 1462.831 951.907 C 1460.034 955.396, 1457.129 958.811, 1454.115 962.114 C 1451.101 965.417, 1447.983 968.642, 1444.745 971.725 C 1441.508 974.808, 1438.151 977.785, 1434.688 980.612 C 1431.225 983.439, 1427.638 986.133, 1423.968 988.687 C 1420.299 991.241, 1416.518 993.654, 1412.672 995.935 C 1408.826 998.216, 1404.885 1000.354, 1400.894 1002.372 C 1396.903 1004.389, 1392.834 1006.268, 1388.728 1008.041 C 1384.622 1009.814, 1380.453 1011.458, 1376.258 1013.009 C 1372.062 1014.559, 1367.821 1016.001, 1363.555 1017.346 C 1359.288 1018.692, 1354.986 1019.936, 1350.661 1021.081 C 1346.337 1022.226, 1341.981 1023.271, 1337.609 1024.216 C 1333.237 1025.162, 1328.837 1026.002, 1324.428 1026.754 C 1320.018 1027.507, 1315.587 1028.152, 1311.151 1028.732 C 1306.714 1029.312, 1302.263 1029.795, 1297.811 1030.233 C 1293.358 1030.672, 1288.850 1031.371, 1284.434 1031.361 Z" fill="#dca234"/> <circle cx="1021.500" cy="1150.000" r="53.000" fill="#dca234"/>
</svg>