<svg xmlns="http://www.w3.org/2000/svg" viewBox="0 0 500 500" width="500" height="500" shape-rendering="geometricPrecision">
  <path d="M 216.081 412.845 Q 215.719 413.484 214.913 413.492 Q 214.107 413.500 213.304 413.453 Q 212.502 413.406 211.774 413.080 Q 211.046 412.753 210.259 412.631 Q 209.472 412.508 208.666 412.503 Q 207.860 412.497 207.059 412.433 Q 206.258 412.369 205.542 412.006 Q 204.827 411.644 204.026 411.568 Q 203.225 411.491 202.456 411.297 Q 201.688 411.102 200.944 410.818 Q 200.201 410.535 199.436 410.314 Q 198.672 410.093 197.947 409.747 Q 197.223 409.401 196.515 409.020 Q 195.807 408.640 195.013 408.502 Q 194.219 408.365 193.573 407.898 Q 192.927 407.431 192.266 406.985 Q 191.606 406.538 190.890 406.174 Q 190.174 405.810 189.448 405.470 Q 188.721 405.129 188.001 404.775 Q 187.281 404.421 186.633 403.953 Q 185.986 403.485 185.416 402.916 Q 184.846 402.346 184.276 401.776 Q 183.706 401.206 183.130 400.643 Q 182.554 400.080 181.839 399.721 Q 181.125 399.363 180.497 398.865 Q 179.868 398.367 179.341 397.763 Q 178.813 397.158 178.462 396.438 Q 178.110 395.718 177.570 395.124 Q 177.029 394.529 176.460 393.959 Q 175.890 393.390 175.360 392.787 Q 174.829 392.185 174.478 391.464 Q 174.127 390.744 173.596 390.141 Q 173.065 389.538 172.709 388.821 Q 172.352 388.105 171.962 387.402 Q 171.571 386.699 171.216 385.979 Q 170.860 385.259 170.514 384.536 Q 170.169 383.812 169.644 383.204 Q 169.120 382.596 168.752 381.887 Q 168.384 381.178 167.991 380.476 Q 167.598 379.774 167.252 379.050 Q 166.905 378.326 166.685 377.560 Q 166.465 376.795 166.194 376.046 Q 165.922 375.297 166.242 374.643 Q 166.561 373.990 167.316 373.766 Q 168.072 373.541 168.824 373.791 Q 169.576 374.041 170.337 374.263 Q 171.098 374.486 171.904 374.498 Q 172.710 374.511 173.483 374.689 Q 174.256 374.867 174.996 375.155 Q 175.737 375.442 176.539 375.506 Q 177.341 375.570 178.077 375.870 Q 178.813 376.171 179.587 376.366 Q 180.360 376.562 181.095 376.871 Q 181.829 377.179 182.604 377.372 Q 183.378 377.565 184.109 377.882 Q 184.840 378.198 185.566 378.539 Q 186.293 378.879 187.014 379.232 Q 187.735 379.584 188.437 379.977 Q 189.139 380.370 189.865 380.712 Q 190.591 381.053 191.316 381.397 Q 192.041 381.740 192.660 382.251 Q 193.278 382.762 193.969 383.160 Q 194.659 383.558 195.314 384.014 Q 195.968 384.470 196.614 384.942 Q 197.259 385.413 197.959 385.796 Q 198.658 386.179 199.233 386.743 Q 199.808 387.308 200.378 387.878 Q 200.948 388.448 201.517 389.017 Q 202.087 389.587 202.657 390.157 Q 203.227 390.727 203.796 391.296 Q 204.366 391.866 204.936 392.436 Q 205.506 393.006 206.073 393.578 Q 206.640 394.150 207.069 394.821 Q 207.497 395.493 207.923 396.166 Q 208.349 396.839 208.916 397.412 Q 209.483 397.984 209.952 398.631 Q 210.420 399.278 210.774 399.999 Q 211.128 400.719 211.468 401.446 Q 211.809 402.172 212.173 402.888 Q 212.538 403.603 212.984 404.264 Q 213.430 404.925 213.897 405.571 Q 214.364 406.217 214.502 407.011 Q 214.639 407.805 215.019 408.513 Q 215.400 409.221 215.746 409.945 Q 216.092 410.670 216.268 411.437 Q 216.444 412.205 216.081 412.845 Z" fill="#F7CF5F"/>
  <path d="M 273.403 413.084 Q 272.719 413.484 271.930 413.399 Q 271.141 413.314 270.842 412.617 Q 270.543 411.920 270.793 411.174 Q 271.043 410.427 271.381 409.705 Q 271.719 408.983 272.062 408.268 Q 272.405 407.552 272.568 406.773 Q 272.732 405.993 273.102 405.285 Q 273.472 404.578 273.882 403.900 Q 274.291 403.222 274.793 402.604 Q 275.295 401.985 275.635 401.264 Q 275.975 400.543 276.314 399.821 Q 276.653 399.100 277.150 398.477 Q 277.646 397.854 278.208 397.284 Q 278.769 396.713 279.164 396.026 Q 279.558 395.340 280.011 394.689 Q 280.464 394.039 281.030 393.472 Q 281.595 392.905 282.161 392.339 Q 282.727 391.773 283.293 391.207 Q 283.860 390.640 284.426 390.074 Q 284.992 389.508 285.558 388.942 Q 286.124 388.376 286.690 387.810 Q 287.256 387.244 287.828 386.684 Q 288.400 386.123 289.104 385.756 Q 289.807 385.389 290.441 384.909 Q 291.075 384.429 291.731 383.985 Q 292.387 383.541 293.069 383.138 Q 293.750 382.735 294.367 382.230 Q 294.984 381.725 295.704 381.384 Q 296.425 381.044 297.147 380.705 Q 297.869 380.367 298.566 379.976 Q 299.264 379.585 299.980 379.235 Q 300.697 378.885 301.419 378.547 Q 302.141 378.209 302.865 377.890 Q 303.590 377.571 304.361 377.385 Q 305.133 377.200 305.860 376.886 Q 306.587 376.571 307.359 376.386 Q 308.131 376.201 308.859 375.891 Q 309.587 375.581 310.383 375.518 Q 311.180 375.455 311.921 375.184 Q 312.662 374.912 313.424 374.713 Q 314.186 374.513 314.986 374.500 Q 315.787 374.487 316.551 374.294 Q 317.314 374.101 318.054 373.825 Q 318.793 373.550 319.589 373.568 Q 320.386 373.586 320.895 374.091 Q 321.404 374.596 321.299 375.370 Q 321.193 376.144 320.881 376.872 Q 320.569 377.600 320.378 378.368 Q 320.186 379.137 319.675 379.748 Q 319.163 380.359 318.849 381.076 Q 318.536 381.793 318.312 382.550 Q 318.088 383.307 317.558 383.904 Q 317.028 384.502 316.679 385.217 Q 316.330 385.932 315.945 386.633 Q 315.560 387.333 315.167 388.020 Q 314.775 388.708 314.265 389.321 Q 313.756 389.934 313.407 390.650 Q 313.058 391.366 312.512 391.950 Q 311.967 392.533 311.401 393.100 Q 310.835 393.666 310.314 394.269 Q 309.793 394.873 309.388 395.548 Q 308.982 396.223 308.334 396.666 Q 307.685 397.109 307.233 397.745 Q 306.781 398.380 306.083 398.759 Q 305.385 399.138 304.813 399.698 Q 304.242 400.258 303.675 400.824 Q 303.109 401.390 302.482 401.881 Q 301.855 402.372 301.146 402.730 Q 300.438 403.088 299.837 403.614 Q 299.236 404.139 298.520 404.488 Q 297.804 404.836 297.200 405.358 Q 296.596 405.880 295.892 406.246 Q 295.188 406.612 294.491 407.003 Q 293.794 407.394 293.073 407.737 Q 292.353 408.079 291.595 408.304 Q 290.837 408.528 290.097 408.806 Q 289.358 409.083 288.636 409.421 Q 287.914 409.759 287.192 410.085 Q 286.471 410.410 285.675 410.473 Q 284.878 410.536 284.134 410.798 Q 283.390 411.060 282.631 411.274 Q 281.873 411.488 281.077 411.558 Q 280.281 411.628 279.570 411.988 Q 278.859 412.348 278.064 412.422 Q 277.269 412.495 276.468 412.500 Q 275.668 412.506 274.877 412.595 Q 274.086 412.684 273.403 413.084 Z" fill="#F7CF5F"/>
  <path d="M 310.408 441.081 Q 309.719 441.484 308.912 441.492 Q 308.105 441.500 307.297 441.500 Q 306.490 441.500 305.683 441.500 Q 304.876 441.500 304.068 441.500 Q 303.261 441.500 302.454 441.500 Q 301.647 441.500 300.839 441.500 Q 300.032 441.500 299.225 441.500 Q 298.418 441.500 297.610 441.500 Q 296.803 441.500 295.996 441.500 Q 295.189 441.500 294.381 441.496 Q 293.574 441.493 292.783 441.380 Q 291.991 441.267 291.265 440.933 Q 290.538 440.600 289.734 440.536 Q 288.931 440.472 288.178 440.216 Q 287.426 439.959 286.665 439.721 Q 285.905 439.484 285.155 439.216 Q 284.404 438.948 283.643 438.714 Q 282.881 438.479 282.133 438.206 Q 281.385 437.933 280.657 437.591 Q 279.930 437.250 279.217 436.876 Q 278.504 436.502 277.791 436.128 Q 277.079 435.755 276.355 435.406 Q 275.632 435.057 275.032 434.520 Q 274.432 433.982 273.710 433.630 Q 272.988 433.278 272.370 432.765 Q 271.752 432.252 271.182 431.681 Q 270.611 431.111 270.029 430.551 Q 269.448 429.992 268.726 429.640 Q 268.005 429.288 267.385 428.777 Q 266.766 428.265 266.195 427.695 Q 265.624 427.124 265.054 426.553 Q 264.483 425.981 264.052 425.317 Q 263.621 424.653 263.681 423.870 Q 263.741 423.087 264.451 422.780 Q 265.162 422.472 265.907 422.192 Q 266.652 421.911 267.380 421.570 Q 268.108 421.228 268.837 420.906 Q 269.566 420.584 270.370 420.520 Q 271.173 420.456 271.920 420.183 Q 272.667 419.909 273.436 419.709 Q 274.205 419.509 275.007 419.434 Q 275.810 419.359 276.527 418.996 Q 277.243 418.633 278.046 418.568 Q 278.849 418.503 279.656 418.501 Q 280.463 418.500 281.270 418.485 Q 282.077 418.470 282.829 418.213 Q 283.582 417.956 284.345 417.735 Q 285.108 417.514 285.915 417.513 Q 286.722 417.512 287.496 417.693 Q 288.269 417.874 289.012 418.160 Q 289.755 418.445 290.561 418.472 Q 291.367 418.500 292.174 418.500 Q 292.981 418.500 293.785 418.554 Q 294.588 418.608 295.312 418.950 Q 296.036 419.292 296.825 419.449 Q 297.613 419.606 298.335 419.955 Q 299.057 420.304 299.847 420.457 Q 300.637 420.610 301.353 420.971 Q 302.069 421.331 302.797 421.673 Q 303.525 422.014 304.252 422.358 Q 304.978 422.701 305.602 423.207 Q 306.227 423.713 306.911 424.124 Q 307.595 424.534 308.258 424.980 Q 308.921 425.426 309.561 425.909 Q 310.201 426.392 310.908 426.765 Q 311.615 427.138 312.192 427.703 Q 312.768 428.268 313.339 428.839 Q 313.910 429.410 314.481 429.981 Q 315.051 430.551 315.622 431.122 Q 316.193 431.693 316.764 432.264 Q 317.335 432.835 317.906 433.406 Q 318.476 433.976 319.047 434.547 Q 319.618 435.118 320.185 435.693 Q 320.751 436.268 321.044 436.982 Q 321.336 437.697 320.898 438.347 Q 320.461 438.997 319.706 439.242 Q 318.952 439.486 318.149 439.552 Q 317.346 439.618 316.625 439.970 Q 315.905 440.323 315.107 440.409 Q 314.308 440.495 313.501 440.500 Q 312.694 440.505 311.895 440.591 Q 311.097 440.677 310.408 441.081 Z" fill="#F7CF5F"/>
  <path d="M 121.405 406.082 Q 120.719 406.484 119.915 406.492 Q 119.111 406.500 118.307 406.500 Q 117.503 406.500 116.699 406.500 Q 115.895 406.500 115.091 406.500 Q 114.287 406.500 113.483 406.500 Q 112.679 406.500 111.875 406.500 Q 111.070 406.500 110.266 406.496 Q 109.462 406.491 108.681 406.354 Q 107.899 406.217 107.169 405.901 Q 106.440 405.585 105.640 405.521 Q 104.840 405.458 104.095 405.188 Q 103.350 404.918 102.585 404.714 Q 101.821 404.510 101.021 404.437 Q 100.222 404.364 99.515 403.987 Q 98.807 403.611 98.085 403.265 Q 97.362 402.920 96.637 402.580 Q 95.912 402.240 95.202 401.868 Q 94.492 401.497 93.822 401.070 Q 93.151 400.642 92.523 400.146 Q 91.896 399.650 91.181 399.294 Q 90.466 398.939 89.865 398.408 Q 89.263 397.878 88.544 397.527 Q 87.826 397.177 87.223 396.649 Q 86.621 396.121 86.053 395.553 Q 85.484 394.984 84.893 394.443 Q 84.301 393.901 83.582 393.551 Q 82.864 393.200 82.316 392.630 Q 81.769 392.059 81.690 391.278 Q 81.611 390.498 82.142 389.971 Q 82.673 389.444 83.375 389.054 Q 84.077 388.665 84.802 388.325 Q 85.527 387.986 86.282 387.740 Q 87.036 387.494 87.786 387.237 Q 88.537 386.980 89.292 386.736 Q 90.047 386.492 90.797 386.233 Q 91.547 385.974 92.305 385.745 Q 93.062 385.515 93.866 385.502 Q 94.670 385.489 95.444 385.321 Q 96.218 385.154 96.954 384.859 Q 97.691 384.565 98.493 384.533 Q 99.295 384.500 100.099 384.500 Q 100.903 384.500 101.704 384.452 Q 102.505 384.405 103.231 384.078 Q 103.957 383.752 104.743 383.630 Q 105.528 383.508 106.331 383.523 Q 107.135 383.539 107.881 383.804 Q 108.627 384.069 109.390 384.278 Q 110.153 384.487 110.957 384.499 Q 111.761 384.512 112.530 384.701 Q 113.298 384.890 114.040 385.170 Q 114.781 385.449 115.581 385.512 Q 116.382 385.576 117.114 385.882 Q 117.847 386.189 118.621 386.378 Q 119.394 386.568 120.123 386.886 Q 120.851 387.204 121.576 387.544 Q 122.301 387.884 123.021 388.235 Q 123.740 388.586 124.441 388.979 Q 125.142 389.371 125.866 389.712 Q 126.591 390.053 127.314 390.396 Q 128.038 390.738 128.651 391.252 Q 129.265 391.765 129.839 392.327 Q 130.414 392.890 131.123 393.255 Q 131.831 393.620 132.464 394.108 Q 133.096 394.597 133.665 395.165 Q 134.233 395.733 134.802 396.302 Q 135.371 396.871 135.939 397.439 Q 136.508 398.008 137.074 398.579 Q 137.640 399.150 137.984 399.839 Q 138.327 400.528 137.811 401.048 Q 137.294 401.569 136.588 401.952 Q 135.883 402.336 135.092 402.478 Q 134.302 402.621 133.592 402.990 Q 132.883 403.359 132.157 403.698 Q 131.431 404.037 130.672 404.262 Q 129.914 404.487 129.114 404.555 Q 128.314 404.622 127.598 404.979 Q 126.883 405.336 126.086 405.415 Q 125.289 405.495 124.485 405.500 Q 123.681 405.505 122.886 405.593 Q 122.091 405.681 121.405 406.082 Z" fill="#F7CF5F"/>
  <path d="M 192.404 441.083 Q 191.719 441.484 190.917 441.492 Q 190.115 441.500 189.312 441.500 Q 188.510 441.500 187.708 441.500 Q 186.906 441.500 186.103 441.500 Q 185.301 441.500 184.499 441.500 Q 183.697 441.500 182.895 441.500 Q 182.092 441.500 181.290 441.500 Q 180.488 441.500 179.686 441.500 Q 178.883 441.500 178.081 441.500 Q 177.279 441.500 176.477 441.497 Q 175.674 441.495 174.881 441.407 Q 174.088 441.320 173.373 440.969 Q 172.657 440.618 171.859 440.560 Q 171.060 440.501 170.261 440.450 Q 169.462 440.400 168.740 440.069 Q 168.018 439.738 167.232 439.618 Q 166.446 439.498 165.696 439.308 Q 164.946 439.118 164.924 438.400 Q 164.903 437.683 165.248 436.962 Q 165.594 436.241 166.066 435.601 Q 166.539 434.961 167.107 434.394 Q 167.674 433.826 168.241 433.259 Q 168.808 432.692 169.375 432.125 Q 169.943 431.557 170.510 430.990 Q 171.077 430.423 171.648 429.859 Q 172.218 429.295 172.897 428.884 Q 173.575 428.473 174.236 428.034 Q 174.897 427.596 175.466 427.030 Q 176.035 426.465 176.605 425.900 Q 177.175 425.336 177.847 424.914 Q 178.519 424.493 179.187 424.065 Q 179.855 423.637 180.481 423.142 Q 181.108 422.648 181.831 422.308 Q 182.554 421.968 183.278 421.629 Q 184.001 421.290 184.717 420.944 Q 185.433 420.598 186.215 420.436 Q 186.997 420.274 187.717 419.936 Q 188.437 419.597 189.219 419.435 Q 190.000 419.272 190.721 418.938 Q 191.443 418.603 192.241 418.552 Q 193.040 418.500 193.843 418.500 Q 194.645 418.500 195.447 418.498 Q 196.249 418.496 197.047 418.425 Q 197.844 418.354 198.569 418.137 Q 199.294 417.921 200.040 418.185 Q 200.787 418.450 201.588 418.475 Q 202.389 418.500 203.191 418.500 Q 203.993 418.500 204.796 418.500 Q 205.598 418.500 206.399 418.524 Q 207.200 418.548 207.941 418.824 Q 208.682 419.099 209.447 419.295 Q 210.212 419.491 211.009 419.566 Q 211.807 419.641 212.518 420.004 Q 213.230 420.367 214.020 420.504 Q 214.811 420.640 215.522 421.004 Q 216.234 421.368 217.024 421.504 Q 217.815 421.641 218.519 422.022 Q 219.223 422.404 219.774 422.898 Q 220.326 423.392 220.059 424.124 Q 219.792 424.857 219.390 425.536 Q 218.989 426.215 218.290 426.592 Q 217.590 426.969 217.009 427.520 Q 216.428 428.072 215.861 428.639 Q 215.293 429.207 214.726 429.774 Q 214.159 430.341 213.591 430.908 Q 213.024 431.475 212.381 431.944 Q 211.739 432.414 211.042 432.794 Q 210.345 433.175 209.735 433.691 Q 209.125 434.208 208.404 434.551 Q 207.683 434.894 206.964 435.243 Q 206.246 435.592 205.604 436.063 Q 204.963 436.535 204.301 436.962 Q 203.639 437.389 202.853 437.540 Q 202.068 437.691 201.361 438.068 Q 200.655 438.444 199.938 438.798 Q 199.221 439.152 198.453 439.353 Q 197.685 439.555 196.951 439.854 Q 196.217 440.154 195.445 440.324 Q 194.673 440.495 193.881 440.588 Q 193.088 440.682 192.404 441.083 Z" fill="#F7CF5F"/>
  <path d="M 379.404 406.083 Q 378.719 406.484 377.916 406.492 Q 377.113 406.500 376.310 406.500 Q 375.507 406.500 374.704 406.500 Q 373.901 406.500 373.098 406.500 Q 372.296 406.500 371.493 406.500 Q 370.690 406.500 369.887 406.500 Q 369.084 406.500 368.284 406.451 Q 367.484 406.403 366.760 406.075 Q 366.036 405.748 365.250 405.628 Q 364.465 405.507 363.663 405.484 Q 362.861 405.461 362.116 405.195 Q 361.371 404.930 360.609 404.720 Q 359.847 404.511 359.049 404.439 Q 358.250 404.368 357.543 403.994 Q 356.836 403.621 356.113 403.280 Q 355.389 402.940 354.630 402.709 Q 353.872 402.478 353.129 402.205 Q 352.385 401.932 351.686 401.556 Q 350.987 401.180 350.782 400.448 Q 350.577 399.716 351.021 399.121 Q 351.464 398.525 352.137 398.102 Q 352.810 397.678 353.381 397.114 Q 353.951 396.549 354.519 395.981 Q 355.087 395.413 355.655 394.845 Q 356.222 394.278 356.790 393.710 Q 357.358 393.142 357.933 392.582 Q 358.508 392.022 359.225 391.671 Q 359.943 391.321 360.566 390.821 Q 361.190 390.321 361.865 389.904 Q 362.540 389.486 363.247 389.111 Q 363.955 388.735 364.679 388.396 Q 365.403 388.057 366.126 387.715 Q 366.849 387.374 367.549 386.982 Q 368.248 386.590 368.969 386.244 Q 369.690 385.897 370.456 385.703 Q 371.223 385.509 372.020 385.433 Q 372.818 385.357 373.531 384.995 Q 374.244 384.633 375.042 384.568 Q 375.841 384.503 376.644 384.498 Q 377.446 384.493 378.233 384.377 Q 379.019 384.261 379.742 383.930 Q 380.466 383.599 381.265 383.550 Q 382.065 383.500 382.868 383.500 Q 383.671 383.500 384.472 383.530 Q 385.273 383.560 386.011 383.847 Q 386.749 384.135 387.519 384.312 Q 388.289 384.489 389.092 384.494 Q 389.895 384.500 390.695 384.547 Q 391.495 384.593 392.220 384.918 Q 392.946 385.242 393.730 385.367 Q 394.514 385.492 395.316 385.514 Q 396.118 385.536 396.864 385.798 Q 397.610 386.060 398.369 386.291 Q 399.127 386.522 399.872 386.793 Q 400.617 387.063 401.375 387.293 Q 402.134 387.523 402.877 387.797 Q 403.620 388.071 404.343 388.413 Q 405.065 388.755 405.625 389.312 Q 406.185 389.868 406.120 390.614 Q 406.055 391.360 405.511 391.947 Q 404.966 392.534 404.396 393.099 Q 403.825 393.664 403.153 394.085 Q 402.480 394.507 401.812 394.936 Q 401.144 395.365 400.574 395.931 Q 400.004 396.496 399.434 397.062 Q 398.864 397.627 398.197 398.058 Q 397.530 398.489 396.857 398.909 Q 396.183 399.328 395.558 399.827 Q 394.934 400.326 394.211 400.667 Q 393.488 401.007 392.764 401.347 Q 392.040 401.686 391.336 402.069 Q 390.632 402.452 389.918 402.813 Q 389.203 403.173 388.479 403.512 Q 387.755 403.851 387.021 404.151 Q 386.288 404.450 385.521 404.656 Q 384.753 404.862 384.016 405.151 Q 383.279 405.439 382.478 405.472 Q 381.676 405.505 380.883 405.593 Q 380.090 405.682 379.404 406.083 Z" fill="#F7CF5F"/>
  <path d="M 94.410 378.080 Q 93.719 378.484 92.910 378.492 Q 92.101 378.500 91.291 378.500 Q 90.482 378.500 89.673 378.500 Q 88.863 378.500 88.054 378.500 Q 87.245 378.500 86.435 378.500 Q 85.626 378.500 84.817 378.500 Q 84.007 378.500 83.198 378.495 Q 82.389 378.490 81.607 378.333 Q 80.825 378.176 80.085 377.874 Q 79.346 377.571 78.539 377.533 Q 77.732 377.496 76.929 377.418 Q 76.126 377.340 75.406 376.980 Q 74.686 376.619 73.892 376.472 Q 73.098 376.325 72.385 375.944 Q 71.673 375.562 70.952 375.203 Q 70.230 374.843 69.500 374.500 Q 68.771 374.158 68.049 373.798 Q 67.328 373.438 66.620 373.048 Q 65.913 372.658 65.193 372.301 Q 64.472 371.944 63.893 371.379 Q 63.314 370.814 62.701 370.292 Q 62.088 369.769 61.364 369.416 Q 60.641 369.063 60.051 368.511 Q 59.460 367.960 58.888 367.388 Q 58.316 366.816 57.743 366.243 Q 57.171 365.671 56.599 365.099 Q 56.027 364.527 55.477 363.935 Q 54.927 363.343 54.574 362.620 Q 54.221 361.897 53.697 361.285 Q 53.173 360.673 52.608 360.094 Q 52.043 359.514 51.688 358.792 Q 51.333 358.071 51.154 357.346 Q 50.975 356.621 51.595 356.129 Q 52.216 355.636 53.013 355.498 Q 53.811 355.360 54.530 354.996 Q 55.248 354.633 56.053 354.568 Q 56.858 354.503 57.667 354.497 Q 58.477 354.492 59.267 354.367 Q 60.057 354.241 60.789 353.916 Q 61.521 353.591 62.327 353.546 Q 63.133 353.500 63.943 353.500 Q 64.752 353.500 65.561 353.500 Q 66.371 353.500 67.180 353.500 Q 67.989 353.500 68.799 353.500 Q 69.608 353.500 70.417 353.502 Q 71.227 353.504 72.031 353.575 Q 72.835 353.645 73.554 354.008 Q 74.273 354.371 75.078 354.435 Q 75.883 354.498 76.690 354.546 Q 77.496 354.594 78.227 354.921 Q 78.958 355.249 79.743 355.420 Q 80.529 355.592 81.254 355.935 Q 81.978 356.278 82.708 356.621 Q 83.437 356.964 84.167 357.306 Q 84.897 357.649 85.603 358.040 Q 86.310 358.432 87.032 358.790 Q 87.755 359.148 88.481 359.496 Q 89.208 359.844 89.817 360.372 Q 90.426 360.901 91.142 361.265 Q 91.857 361.629 92.490 362.126 Q 93.123 362.623 93.695 363.195 Q 94.268 363.768 94.840 364.340 Q 95.412 364.912 95.984 365.484 Q 96.557 366.057 97.129 366.629 Q 97.701 367.201 98.274 367.774 Q 98.846 368.346 99.411 368.926 Q 99.975 369.505 100.330 370.228 Q 100.684 370.950 101.192 371.575 Q 101.700 372.199 102.266 372.777 Q 102.833 373.355 103.138 374.082 Q 103.442 374.809 103.184 375.527 Q 102.926 376.246 102.142 376.375 Q 101.358 376.504 100.578 376.671 Q 99.798 376.838 99.057 377.136 Q 98.317 377.434 97.509 377.469 Q 96.702 377.505 95.901 377.590 Q 95.101 377.675 94.410 378.080 Z" fill="#F7CF5F"/>
  <path d="M 405.405 378.083 Q 404.719 378.484 403.915 378.492 Q 403.112 378.500 402.308 378.500 Q 401.504 378.500 400.700 378.500 Q 399.897 378.500 399.093 378.500 Q 398.289 378.500 397.486 378.500 Q 396.682 378.500 395.878 378.500 Q 395.074 378.500 394.274 378.451 Q 393.473 378.402 392.749 378.072 Q 392.025 377.742 391.238 377.625 Q 390.451 377.507 389.647 377.504 Q 388.844 377.500 388.040 377.494 Q 387.236 377.488 386.469 377.298 Q 385.701 377.109 384.983 376.753 Q 384.265 376.397 383.904 375.734 Q 383.543 375.070 383.766 374.317 Q 383.988 373.563 384.523 372.966 Q 385.057 372.368 385.408 371.649 Q 385.758 370.931 386.274 370.320 Q 386.791 369.709 387.359 369.141 Q 387.927 368.573 388.496 368.004 Q 389.064 367.436 389.632 366.868 Q 390.201 366.299 390.769 365.731 Q 391.337 365.163 391.906 364.594 Q 392.474 364.026 393.042 363.458 Q 393.611 362.889 394.212 362.360 Q 394.812 361.831 395.531 361.481 Q 396.249 361.131 396.845 360.595 Q 397.441 360.059 398.024 359.508 Q 398.608 358.958 399.328 358.610 Q 400.048 358.263 400.757 357.888 Q 401.465 357.513 402.176 357.144 Q 402.887 356.775 403.612 356.435 Q 404.337 356.096 405.078 355.813 Q 405.819 355.531 406.581 355.309 Q 407.343 355.086 408.087 354.815 Q 408.831 354.544 409.634 354.518 Q 410.436 354.493 411.224 354.379 Q 412.011 354.266 412.735 353.933 Q 413.458 353.601 414.259 353.550 Q 415.059 353.500 415.863 353.500 Q 416.667 353.500 417.470 353.500 Q 418.274 353.500 419.078 353.500 Q 419.882 353.500 420.685 353.500 Q 421.489 353.500 422.293 353.501 Q 423.097 353.502 423.896 353.563 Q 424.696 353.624 425.411 353.982 Q 426.125 354.340 426.923 354.418 Q 427.720 354.495 428.523 354.500 Q 429.327 354.506 430.121 354.594 Q 430.916 354.682 431.633 355.033 Q 432.351 355.383 433.150 355.449 Q 433.950 355.515 434.643 355.840 Q 435.336 356.166 435.350 356.961 Q 435.364 357.755 434.907 358.403 Q 434.449 359.050 433.884 359.622 Q 433.319 360.193 432.901 360.869 Q 432.484 361.545 432.050 362.211 Q 431.615 362.877 431.049 363.447 Q 430.483 364.017 429.914 364.586 Q 429.346 365.154 428.778 365.722 Q 428.210 366.290 427.641 366.859 Q 427.073 367.427 426.505 367.995 Q 425.936 368.564 425.365 369.129 Q 424.793 369.694 424.115 370.108 Q 423.437 370.523 422.773 370.960 Q 422.109 371.397 421.477 371.886 Q 420.845 372.375 420.135 372.738 Q 419.425 373.100 418.818 373.622 Q 418.211 374.143 417.444 374.349 Q 416.678 374.556 415.945 374.862 Q 415.213 375.167 414.488 375.507 Q 413.763 375.846 413.029 376.148 Q 412.295 376.449 411.527 376.654 Q 410.759 376.859 410.021 377.149 Q 409.283 377.439 408.481 377.472 Q 407.679 377.505 406.885 377.593 Q 406.091 377.681 405.405 378.083 Z" fill="#F7CF5F"/>
  <path d="M 159.351 400.985 Q 158.735 401.469 158.003 401.168 Q 157.272 400.867 156.552 400.524 Q 155.832 400.181 155.226 399.662 Q 154.620 399.142 153.919 398.770 Q 153.218 398.398 152.582 397.921 Q 151.945 397.444 151.376 396.881 Q 150.806 396.318 150.132 395.901 Q 149.458 395.485 148.794 395.053 Q 148.130 394.621 147.561 394.057 Q 146.992 393.492 146.452 392.904 Q 145.911 392.316 145.562 391.600 Q 145.213 390.883 144.693 390.278 Q 144.173 389.673 143.614 389.100 Q 143.054 388.526 142.701 387.813 Q 142.347 387.100 141.853 386.475 Q 141.358 385.850 140.932 385.182 Q 140.505 384.514 140.136 383.806 Q 139.766 383.098 139.428 382.376 Q 139.089 381.653 138.743 380.934 Q 138.398 380.215 138.019 379.511 Q 137.640 378.807 137.503 378.018 Q 137.367 377.228 137.004 376.518 Q 136.641 375.807 136.566 375.011 Q 136.491 374.214 136.296 373.450 Q 136.101 372.686 135.825 371.946 Q 135.549 371.206 135.525 370.406 Q 135.500 369.606 135.491 368.805 Q 135.483 368.004 135.242 367.253 Q 135.001 366.501 134.759 365.750 Q 134.518 364.998 134.509 364.197 Q 134.500 363.396 134.500 362.595 Q 134.500 361.794 134.500 360.992 Q 134.500 360.191 134.500 359.390 Q 134.500 358.589 134.500 357.788 Q 134.500 356.986 134.500 356.185 Q 134.500 355.384 134.500 354.583 Q 134.500 353.781 134.500 352.980 Q 134.500 352.179 134.541 351.380 Q 134.582 350.582 134.952 349.896 Q 135.322 349.210 136.022 349.172 Q 136.722 349.134 137.442 349.475 Q 138.163 349.816 138.764 350.341 Q 139.365 350.866 139.939 351.424 Q 140.514 351.983 141.230 352.332 Q 141.946 352.681 142.565 353.183 Q 143.185 353.685 143.751 354.252 Q 144.318 354.818 144.884 355.384 Q 145.451 355.951 146.018 356.518 Q 146.584 357.084 147.151 357.651 Q 147.717 358.217 148.284 358.784 Q 148.850 359.350 149.417 359.917 Q 149.983 360.483 150.550 361.050 Q 151.116 361.617 151.643 362.216 Q 152.170 362.815 152.519 363.531 Q 152.868 364.248 153.402 364.842 Q 153.936 365.436 154.486 366.017 Q 155.036 366.598 155.382 367.316 Q 155.729 368.033 156.104 368.739 Q 156.480 369.444 156.846 370.154 Q 157.212 370.864 157.550 371.586 Q 157.888 372.309 158.175 373.045 Q 158.462 373.782 158.678 374.544 Q 158.894 375.306 159.172 376.045 Q 159.449 376.784 159.512 377.581 Q 159.575 378.379 159.880 379.109 Q 160.184 379.839 160.337 380.614 Q 160.490 381.389 160.495 382.190 Q 160.500 382.991 160.500 383.793 Q 160.500 384.594 160.500 385.395 Q 160.500 386.196 160.500 386.997 Q 160.500 387.799 160.500 388.600 Q 160.500 389.401 160.500 390.202 Q 160.500 391.004 160.500 391.805 Q 160.500 392.606 160.500 393.407 Q 160.500 394.208 160.500 395.010 Q 160.500 395.811 160.500 396.612 Q 160.500 397.413 160.490 398.214 Q 160.480 399.015 160.224 399.759 Q 159.967 400.502 159.351 400.985 Z" fill="#F7CF5F"/>
  <path d="M 74.402 215.084 Q 73.719 215.484 72.919 215.492 Q 72.119 215.500 71.319 215.496 Q 70.519 215.492 69.759 215.332 Q 68.999 215.172 68.932 214.463 Q 68.865 213.754 69.152 213.019 Q 69.439 212.284 69.502 211.487 Q 69.565 210.691 69.857 209.958 Q 70.150 209.225 70.322 208.455 Q 70.494 207.686 70.583 206.894 Q 70.673 206.102 71.051 205.399 Q 71.430 204.695 71.779 203.979 Q 72.129 203.262 72.337 202.499 Q 72.546 201.736 72.874 201.026 Q 73.202 200.317 73.714 199.706 Q 74.226 199.096 74.567 198.376 Q 74.909 197.657 75.255 196.939 Q 75.600 196.221 75.991 195.524 Q 76.383 194.827 76.746 194.122 Q 77.108 193.416 77.668 192.844 Q 78.228 192.272 78.793 191.707 Q 79.359 191.141 79.925 190.575 Q 80.491 190.009 81.056 189.444 Q 81.622 188.878 82.188 188.312 Q 82.754 187.746 83.320 187.180 Q 83.885 186.615 84.452 186.049 Q 85.018 185.484 85.665 185.026 Q 86.312 184.568 87.001 184.179 Q 87.691 183.791 88.302 183.280 Q 88.914 182.768 89.633 182.427 Q 90.353 182.086 91.071 181.741 Q 91.790 181.396 92.487 181.005 Q 93.183 180.614 93.903 180.271 Q 94.622 179.929 95.344 179.591 Q 96.066 179.253 96.784 178.919 Q 97.503 178.586 98.279 178.414 Q 99.055 178.242 99.777 177.915 Q 100.498 177.587 101.275 177.416 Q 102.051 177.245 102.773 176.920 Q 103.495 176.595 104.292 176.532 Q 105.088 176.469 105.834 176.213 Q 106.579 175.957 107.335 175.752 Q 108.092 175.546 108.725 175.924 Q 109.358 176.302 109.347 177.092 Q 109.336 177.882 108.980 178.594 Q 108.624 179.305 108.556 180.101 Q 108.488 180.897 108.268 181.654 Q 108.049 182.410 107.783 183.154 Q 107.518 183.897 107.284 184.652 Q 107.051 185.406 106.785 186.150 Q 106.519 186.893 106.286 187.648 Q 106.053 188.403 105.786 189.146 Q 105.519 189.889 105.287 190.643 Q 105.055 191.398 104.716 192.120 Q 104.377 192.841 103.986 193.538 Q 103.595 194.235 103.248 194.953 Q 102.901 195.670 102.559 196.389 Q 102.218 197.109 101.704 197.718 Q 101.191 198.328 100.807 199.021 Q 100.423 199.713 99.960 200.357 Q 99.498 201.001 98.932 201.567 Q 98.367 202.133 97.801 202.699 Q 97.235 203.265 96.669 203.831 Q 96.104 204.396 95.538 204.962 Q 94.972 205.528 94.404 206.091 Q 93.835 206.654 93.167 207.077 Q 92.499 207.501 91.830 207.924 Q 91.162 208.348 90.538 208.843 Q 89.915 209.338 89.194 209.677 Q 88.473 210.016 87.751 210.354 Q 87.030 210.692 86.328 211.073 Q 85.627 211.454 84.913 211.809 Q 84.198 212.164 83.431 212.361 Q 82.664 212.558 81.933 212.860 Q 81.202 213.162 80.435 213.360 Q 79.668 213.557 78.937 213.859 Q 78.206 214.160 77.435 214.327 Q 76.665 214.495 75.875 214.590 Q 75.085 214.684 74.402 215.084 Z" fill="#F7CF5F"/>
  <path d="M 60.578 265.973 Q 59.883 266.320 59.698 265.551 Q 59.512 264.781 59.506 263.977 Q 59.500 263.173 59.500 262.369 Q 59.500 261.565 59.500 260.761 Q 59.500 259.957 59.500 259.153 Q 59.500 258.349 59.500 257.545 Q 59.500 256.740 59.500 255.936 Q 59.500 255.132 59.500 254.328 Q 59.500 253.524 59.501 252.720 Q 59.502 251.916 59.562 251.116 Q 59.622 250.316 59.978 249.600 Q 60.335 248.885 60.421 248.088 Q 60.507 247.291 60.686 246.520 Q 60.865 245.749 61.159 245.011 Q 61.453 244.273 61.662 243.506 Q 61.870 242.739 62.221 242.019 Q 62.572 241.298 62.962 240.597 Q 63.352 239.895 63.692 239.170 Q 64.032 238.445 64.374 237.721 Q 64.716 236.997 65.226 236.381 Q 65.736 235.764 66.304 235.196 Q 66.873 234.627 67.433 234.050 Q 67.992 233.473 68.343 232.754 Q 68.693 232.035 69.199 231.416 Q 69.705 230.796 70.273 230.227 Q 70.841 229.659 71.410 229.090 Q 71.979 228.521 72.549 227.955 Q 73.119 227.388 73.785 226.953 Q 74.450 226.518 75.127 226.101 Q 75.804 225.684 76.376 225.119 Q 76.947 224.553 77.587 224.076 Q 78.226 223.599 78.947 223.251 Q 79.668 222.902 80.393 222.562 Q 81.118 222.222 81.830 221.853 Q 82.541 221.485 83.208 221.051 Q 83.875 220.618 84.510 220.134 Q 85.145 219.649 85.938 219.512 Q 86.730 219.374 87.446 219.019 Q 88.162 218.665 88.769 219.029 Q 89.376 219.394 89.438 220.193 Q 89.499 220.993 89.500 221.797 Q 89.500 222.601 89.500 223.405 Q 89.500 224.209 89.500 225.013 Q 89.500 225.817 89.496 226.621 Q 89.493 227.425 89.382 228.214 Q 89.270 229.002 88.936 229.726 Q 88.602 230.449 88.551 231.250 Q 88.500 232.050 88.500 232.854 Q 88.500 233.658 88.471 234.461 Q 88.442 235.263 88.155 236.002 Q 87.869 236.742 87.690 237.513 Q 87.511 238.284 87.499 239.088 Q 87.486 239.892 87.267 240.652 Q 87.048 241.412 86.782 242.160 Q 86.516 242.907 86.279 243.665 Q 86.042 244.422 85.703 245.148 Q 85.365 245.873 84.973 246.574 Q 84.581 247.275 84.196 247.972 Q 83.812 248.668 83.296 249.281 Q 82.781 249.894 82.430 250.613 Q 82.080 251.332 81.535 251.921 Q 80.991 252.509 80.422 253.078 Q 79.853 253.647 79.285 254.215 Q 78.716 254.784 78.148 255.352 Q 77.579 255.921 76.997 256.474 Q 76.415 257.028 75.697 257.378 Q 74.978 257.729 74.359 258.236 Q 73.740 258.744 73.054 259.146 Q 72.368 259.548 71.712 259.998 Q 71.055 260.448 70.415 260.924 Q 69.775 261.401 69.054 261.749 Q 68.333 262.097 67.610 262.441 Q 66.887 262.785 66.275 263.301 Q 65.663 263.818 64.965 264.201 Q 64.267 264.583 63.562 264.967 Q 62.856 265.351 62.064 265.488 Q 61.272 265.626 60.578 265.973 Z" fill="#F7CF5F"/>
  <path d="M 432.415 284.062 Q 431.735 284.468 431.174 284.004 Q 430.612 283.539 430.556 282.742 Q 430.500 281.944 430.500 281.143 Q 430.500 280.341 430.500 279.539 Q 430.500 278.738 430.500 277.936 Q 430.500 277.134 430.500 276.333 Q 430.500 275.531 430.501 274.729 Q 430.502 273.928 430.561 273.130 Q 430.620 272.332 430.972 271.618 Q 431.324 270.903 431.409 270.110 Q 431.495 269.317 431.500 268.515 Q 431.505 267.714 431.583 266.919 Q 431.661 266.124 432.020 265.411 Q 432.379 264.699 432.520 263.910 Q 432.661 263.122 433.042 262.418 Q 433.423 261.714 433.772 260.995 Q 434.121 260.277 434.332 259.513 Q 434.544 258.749 434.869 258.037 Q 435.195 257.325 435.708 256.713 Q 436.222 256.102 436.564 255.381 Q 436.907 254.660 437.254 253.941 Q 437.600 253.222 438.076 252.584 Q 438.551 251.946 439.001 251.292 Q 439.450 250.638 439.849 249.953 Q 440.248 249.268 440.811 248.697 Q 441.374 248.126 441.941 247.559 Q 442.508 246.992 443.074 246.426 Q 443.641 245.859 444.208 245.292 Q 444.775 244.725 445.342 244.158 Q 445.909 243.591 446.476 243.024 Q 447.042 242.458 447.609 241.891 Q 448.176 241.324 448.743 240.757 Q 449.310 240.190 449.883 239.630 Q 450.457 239.070 451.169 238.715 Q 451.881 238.359 452.506 237.864 Q 453.131 237.369 453.702 236.806 Q 454.273 236.244 454.959 235.846 Q 455.644 235.448 456.352 235.075 Q 457.060 234.702 457.799 234.886 Q 458.538 235.070 458.963 235.729 Q 459.388 236.387 459.444 237.185 Q 459.499 237.983 459.500 238.784 Q 459.500 239.586 459.500 240.388 Q 459.500 241.189 459.500 241.991 Q 459.500 242.793 459.500 243.594 Q 459.500 244.396 459.500 245.198 Q 459.500 245.999 459.495 246.801 Q 459.490 247.603 459.339 248.378 Q 459.188 249.154 458.882 249.885 Q 458.577 250.615 458.539 251.414 Q 458.500 252.213 458.500 253.015 Q 458.500 253.817 458.497 254.618 Q 458.493 255.420 458.384 256.207 Q 458.275 256.994 457.937 257.713 Q 457.598 258.433 457.436 259.214 Q 457.275 259.995 456.903 260.704 Q 456.532 261.412 456.173 262.126 Q 455.815 262.841 455.624 263.612 Q 455.434 264.383 455.119 265.110 Q 454.804 265.837 454.459 266.556 Q 454.115 267.275 453.585 267.874 Q 453.055 268.473 452.701 269.186 Q 452.347 269.900 451.850 270.523 Q 451.353 271.146 450.786 271.713 Q 450.220 272.280 449.653 272.847 Q 449.086 273.414 448.518 273.980 Q 447.950 274.546 447.297 274.997 Q 446.644 275.448 445.958 275.846 Q 445.273 276.244 444.702 276.806 Q 444.131 277.369 443.506 277.864 Q 442.881 278.359 442.169 278.715 Q 441.457 279.070 440.857 279.598 Q 440.256 280.126 439.537 280.471 Q 438.817 280.815 438.105 281.177 Q 437.393 281.539 436.689 281.919 Q 435.986 282.299 435.263 282.638 Q 434.540 282.977 433.817 283.316 Q 433.095 283.656 432.415 284.062 Z" fill="#F7CF5F"/>
  <path d="M 119.157 378.861 Q 118.719 379.483 117.917 379.408 Q 117.115 379.333 116.508 378.815 Q 115.900 378.298 115.546 377.574 Q 115.193 376.851 114.663 376.243 Q 114.134 375.634 113.562 375.062 Q 112.989 374.489 112.444 373.893 Q 111.899 373.298 111.550 372.571 Q 111.201 371.845 110.834 371.127 Q 110.467 370.408 110.084 369.697 Q 109.701 368.986 109.358 368.256 Q 109.016 367.526 108.759 366.769 Q 108.502 366.013 108.250 365.254 Q 107.998 364.496 107.747 363.738 Q 107.496 362.979 107.239 362.223 Q 106.982 361.466 106.748 360.704 Q 106.515 359.942 106.502 359.132 Q 106.489 358.322 106.317 357.544 Q 106.145 356.766 105.853 356.023 Q 105.561 355.279 105.530 354.471 Q 105.500 353.663 105.500 352.854 Q 105.500 352.044 105.500 351.234 Q 105.500 350.424 105.502 349.615 Q 105.503 348.805 105.572 348.000 Q 105.641 347.195 106.004 346.476 Q 106.367 345.756 106.432 344.951 Q 106.497 344.146 106.503 343.336 Q 106.508 342.526 106.633 341.736 Q 106.758 340.945 107.084 340.213 Q 107.409 339.481 107.473 338.675 Q 107.538 337.869 107.805 337.118 Q 108.073 336.366 108.301 335.600 Q 108.529 334.833 108.809 334.085 Q 109.089 333.336 109.312 332.568 Q 109.535 331.799 109.820 331.053 Q 110.106 330.306 110.323 329.536 Q 110.540 328.766 110.834 328.023 Q 111.128 327.280 111.471 326.550 Q 111.814 325.820 112.185 325.103 Q 112.556 324.385 113.192 324.025 Q 113.827 323.665 114.449 324.160 Q 115.070 324.654 115.424 325.377 Q 115.777 326.101 116.296 326.718 Q 116.816 327.335 117.201 328.038 Q 117.587 328.740 118.061 329.389 Q 118.535 330.037 118.991 330.696 Q 119.448 331.355 119.851 332.047 Q 120.254 332.739 120.765 333.362 Q 121.276 333.985 121.621 334.714 Q 121.966 335.442 122.309 336.172 Q 122.652 336.902 123.019 337.619 Q 123.385 338.335 123.535 339.129 Q 123.686 339.922 124.066 340.636 Q 124.446 341.349 124.803 342.073 Q 125.161 342.796 125.328 343.576 Q 125.496 344.357 125.599 345.154 Q 125.702 345.952 126.047 346.678 Q 126.391 347.403 126.445 348.209 Q 126.500 349.016 126.500 349.825 Q 126.500 350.635 126.500 351.445 Q 126.500 352.255 126.500 353.064 Q 126.500 353.874 126.500 354.684 Q 126.500 355.493 126.500 356.303 Q 126.500 357.113 126.494 357.923 Q 126.488 358.732 126.303 359.507 Q 126.118 360.282 125.835 361.029 Q 125.552 361.775 125.523 362.583 Q 125.494 363.392 125.387 364.187 Q 125.281 364.983 124.939 365.710 Q 124.597 366.437 124.431 367.225 Q 124.265 368.013 123.928 368.742 Q 123.592 369.470 123.420 370.257 Q 123.249 371.043 122.878 371.761 Q 122.508 372.478 122.135 373.194 Q 121.762 373.910 121.419 374.640 Q 121.076 375.370 120.729 376.098 Q 120.383 376.826 119.989 377.532 Q 119.596 378.238 119.157 378.861 Z" fill="#F7CF5F"/>
  <path d="M 56.172 283.686 Q 55.866 284.336 55.175 283.960 Q 54.485 283.584 53.707 283.409 Q 52.930 283.234 52.219 282.869 Q 51.508 282.503 50.799 282.132 Q 50.091 281.762 49.367 281.423 Q 48.644 281.084 47.924 280.739 Q 47.204 280.393 46.505 280.002 Q 45.806 279.610 45.086 279.266 Q 44.365 278.921 43.643 278.579 Q 42.922 278.237 42.313 277.721 Q 41.705 277.204 41.131 276.644 Q 40.557 276.084 39.846 275.726 Q 39.135 275.368 38.509 274.875 Q 37.882 274.381 37.315 273.814 Q 36.747 273.247 36.181 272.680 Q 35.614 272.113 35.121 271.485 Q 34.629 270.858 34.270 270.148 Q 33.912 269.437 33.385 268.835 Q 32.859 268.233 32.515 267.513 Q 32.171 266.793 31.811 266.079 Q 31.452 265.366 31.077 264.659 Q 30.701 263.951 30.547 263.167 Q 30.393 262.383 30.047 261.666 Q 29.700 260.949 29.546 260.164 Q 29.393 259.380 29.046 258.663 Q 28.699 257.946 28.597 257.155 Q 28.496 256.365 28.334 255.591 Q 28.172 254.817 27.872 254.084 Q 27.572 253.352 27.536 252.552 Q 27.500 251.752 27.500 250.950 Q 27.500 250.148 27.500 249.346 Q 27.500 248.544 27.500 247.742 Q 27.500 246.940 27.500 246.138 Q 27.500 245.336 27.500 244.534 Q 27.500 243.732 27.500 242.930 Q 27.500 242.128 27.500 241.326 Q 27.500 240.524 27.500 239.721 Q 27.500 238.919 27.506 238.117 Q 27.511 237.315 27.687 236.547 Q 27.863 235.779 28.447 235.251 Q 29.031 234.722 29.773 234.883 Q 30.515 235.044 31.089 235.604 Q 31.664 236.163 32.268 236.685 Q 32.873 237.206 33.590 237.556 Q 34.307 237.905 34.897 238.446 Q 35.486 238.986 36.073 239.530 Q 36.660 240.074 37.377 240.424 Q 38.094 240.773 38.701 241.291 Q 39.309 241.809 39.876 242.376 Q 40.443 242.943 41.010 243.510 Q 41.577 244.077 42.145 244.645 Q 42.712 245.212 43.273 245.784 Q 43.835 246.356 44.213 247.055 Q 44.591 247.753 45.063 248.393 Q 45.535 249.034 46.099 249.604 Q 46.663 250.174 47.085 250.846 Q 47.506 251.517 47.879 252.225 Q 48.251 252.932 48.590 253.655 Q 48.929 254.379 49.273 255.100 Q 49.616 255.821 50.100 256.455 Q 50.583 257.088 50.992 257.759 Q 51.401 258.430 51.563 259.212 Q 51.724 259.993 52.096 260.702 Q 52.468 261.411 52.826 262.125 Q 53.185 262.840 53.375 263.611 Q 53.566 264.383 53.876 265.113 Q 54.186 265.843 54.341 266.619 Q 54.497 267.394 54.605 268.183 Q 54.713 268.972 55.052 269.691 Q 55.392 270.410 55.446 271.209 Q 55.500 272.007 55.500 272.809 Q 55.500 273.611 55.502 274.413 Q 55.504 275.215 55.573 276.012 Q 55.641 276.810 56.003 277.521 Q 56.365 278.233 56.431 279.031 Q 56.497 279.828 56.498 280.630 Q 56.500 281.432 56.489 282.234 Q 56.478 283.036 56.172 283.686 Z" fill="#F7CF5F"/>
  <path d="M 147.403 429.084 Q 146.719 429.484 145.918 429.492 Q 145.117 429.500 144.316 429.500 Q 143.515 429.500 142.714 429.500 Q 141.913 429.500 141.112 429.494 Q 140.311 429.489 139.541 429.318 Q 138.771 429.147 138.037 428.856 Q 137.303 428.564 136.504 428.532 Q 135.704 428.500 134.903 428.493 Q 134.103 428.486 133.345 428.267 Q 132.588 428.048 131.842 427.790 Q 131.096 427.532 130.299 427.469 Q 129.502 427.406 128.779 427.082 Q 128.055 426.758 127.279 426.586 Q 126.502 426.414 125.779 426.086 Q 125.056 425.758 124.279 425.586 Q 123.502 425.414 122.783 425.080 Q 122.064 424.746 121.342 424.408 Q 120.619 424.069 119.902 423.718 Q 119.185 423.366 118.964 422.681 Q 118.742 421.996 119.274 421.416 Q 119.807 420.835 120.523 420.486 Q 121.239 420.137 121.833 419.605 Q 122.428 419.072 123.008 418.521 Q 123.588 417.970 124.304 417.621 Q 125.021 417.272 125.637 416.767 Q 126.254 416.261 126.936 415.859 Q 127.619 415.457 128.274 415.012 Q 128.930 414.566 129.565 414.087 Q 130.200 413.608 130.920 413.264 Q 131.639 412.919 132.362 412.581 Q 133.084 412.242 133.805 411.912 Q 134.525 411.582 135.301 411.406 Q 136.076 411.230 136.787 410.866 Q 137.498 410.501 138.209 410.136 Q 138.919 409.772 139.695 409.595 Q 140.470 409.419 141.194 409.096 Q 141.919 408.772 142.699 408.640 Q 143.479 408.509 144.280 408.503 Q 145.081 408.498 145.878 408.439 Q 146.675 408.379 147.388 408.026 Q 148.102 407.673 148.895 407.594 Q 149.688 407.516 150.458 407.684 Q 151.228 407.852 151.962 408.144 Q 152.696 408.436 153.496 408.468 Q 154.295 408.500 155.096 408.500 Q 155.897 408.500 156.698 408.500 Q 157.499 408.500 158.299 408.517 Q 159.099 408.533 159.845 408.791 Q 160.590 409.049 161.348 409.268 Q 162.105 409.488 162.902 409.556 Q 163.699 409.624 164.411 409.982 Q 165.123 410.339 165.911 410.480 Q 166.699 410.621 167.410 410.980 Q 168.122 411.339 168.910 411.480 Q 169.698 411.621 170.405 411.988 Q 171.112 412.356 171.834 412.694 Q 172.556 413.033 173.260 413.400 Q 173.963 413.767 174.060 414.474 Q 174.157 415.180 173.636 415.783 Q 173.115 416.385 172.548 416.951 Q 171.981 417.517 171.333 417.975 Q 170.685 418.433 169.995 418.823 Q 169.305 419.213 168.734 419.775 Q 168.163 420.336 167.542 420.835 Q 166.921 421.334 166.207 421.685 Q 165.492 422.037 164.919 422.596 Q 164.345 423.155 163.742 423.677 Q 163.139 424.199 162.419 424.541 Q 161.699 424.884 160.982 425.234 Q 160.266 425.584 159.563 425.966 Q 158.860 426.349 158.071 426.486 Q 157.282 426.624 156.571 426.986 Q 155.861 427.348 155.072 427.486 Q 154.283 427.624 153.572 427.986 Q 152.861 428.347 152.066 428.421 Q 151.270 428.495 150.470 428.500 Q 149.669 428.506 148.877 428.595 Q 148.086 428.684 147.403 429.084 Z" fill="#F7CF5F"/>
  <path d="M 346.410 429.080 Q 345.719 429.484 344.910 429.492 Q 344.101 429.500 343.292 429.496 Q 342.482 429.492 341.695 429.356 Q 340.907 429.221 340.174 428.903 Q 339.440 428.585 338.633 428.543 Q 337.827 428.500 337.017 428.500 Q 336.208 428.500 335.402 428.460 Q 334.595 428.420 333.859 428.108 Q 333.123 427.795 332.343 427.610 Q 331.562 427.424 330.829 427.102 Q 330.095 426.780 329.313 426.599 Q 328.530 426.419 327.802 426.085 Q 327.074 425.752 326.345 425.410 Q 325.615 425.067 324.887 424.722 Q 324.159 424.377 323.522 423.885 Q 322.886 423.393 322.216 422.955 Q 321.546 422.517 320.866 422.096 Q 320.186 421.675 319.611 421.106 Q 319.036 420.537 318.389 420.062 Q 317.742 419.587 317.040 419.202 Q 316.337 418.817 315.760 418.250 Q 315.183 417.683 314.557 417.178 Q 313.931 416.672 313.210 416.315 Q 312.490 415.958 312.080 415.294 Q 311.669 414.629 312.119 414.057 Q 312.569 413.485 313.283 413.107 Q 313.997 412.729 314.785 412.565 Q 315.574 412.401 316.299 412.057 Q 317.025 411.714 317.815 411.555 Q 318.605 411.395 319.329 411.047 Q 320.053 410.699 320.845 410.544 Q 321.636 410.390 322.359 410.037 Q 323.081 409.683 323.874 409.534 Q 324.668 409.385 325.389 409.027 Q 326.109 408.669 326.911 408.587 Q 327.712 408.505 328.522 408.502 Q 329.331 408.500 330.140 408.500 Q 330.949 408.500 331.755 408.448 Q 332.561 408.397 333.289 408.061 Q 334.017 407.725 334.775 407.871 Q 335.532 408.018 336.294 408.251 Q 337.055 408.485 337.865 408.492 Q 338.674 408.500 339.483 408.500 Q 340.292 408.500 341.101 408.500 Q 341.910 408.500 342.716 408.549 Q 343.522 408.598 344.252 408.930 Q 344.981 409.261 345.774 409.382 Q 346.566 409.502 347.350 409.652 Q 348.135 409.802 348.871 410.117 Q 349.606 410.432 350.385 410.624 Q 351.163 410.817 351.884 411.177 Q 352.606 411.538 353.316 411.922 Q 354.026 412.306 354.756 412.649 Q 355.485 412.991 356.214 413.334 Q 356.944 413.676 357.652 414.063 Q 358.361 414.450 359.052 414.854 Q 359.742 415.258 360.319 415.826 Q 360.895 416.394 361.530 416.887 Q 362.166 417.379 362.879 417.747 Q 363.591 418.116 364.170 418.681 Q 364.748 419.247 365.367 419.762 Q 365.986 420.277 366.709 420.630 Q 367.432 420.983 367.750 421.636 Q 368.067 422.290 367.536 422.892 Q 367.004 423.495 366.343 423.938 Q 365.682 424.382 364.888 424.529 Q 364.094 424.677 363.372 425.032 Q 362.650 425.388 361.858 425.540 Q 361.066 425.692 360.342 426.042 Q 359.619 426.393 358.828 426.550 Q 358.038 426.707 357.312 427.050 Q 356.586 427.393 355.781 427.457 Q 354.976 427.521 354.219 427.771 Q 353.462 428.021 352.700 428.253 Q 351.938 428.485 351.129 428.492 Q 350.320 428.500 349.510 428.502 Q 348.701 428.505 347.901 428.590 Q 347.100 428.675 346.410 429.080 Z" fill="#F7CF5F"/>
  <path d="M 330.347 400.005 Q 329.719 400.484 328.914 400.485 Q 328.110 400.485 327.406 400.180 Q 326.703 399.875 326.604 399.085 Q 326.505 398.295 326.503 397.490 Q 326.500 396.685 326.500 395.880 Q 326.500 395.075 326.500 394.271 Q 326.500 393.466 326.480 392.662 Q 326.460 391.858 326.204 391.106 Q 325.947 390.355 326.137 389.627 Q 326.328 388.899 326.411 388.102 Q 326.495 387.305 326.497 386.500 Q 326.500 385.695 326.500 384.891 Q 326.500 384.086 326.500 383.281 Q 326.500 382.476 326.519 381.672 Q 326.538 380.868 326.803 380.121 Q 327.069 379.374 327.279 378.610 Q 327.489 377.846 327.561 377.046 Q 327.633 376.246 327.996 375.531 Q 328.359 374.817 328.496 374.024 Q 328.633 373.231 329.010 372.523 Q 329.387 371.815 329.732 371.091 Q 330.077 370.368 330.417 369.642 Q 330.758 368.916 331.130 368.205 Q 331.502 367.495 331.875 366.784 Q 332.248 366.074 332.596 365.352 Q 332.943 364.631 333.493 364.045 Q 334.042 363.458 334.580 362.864 Q 335.119 362.269 335.470 361.549 Q 335.820 360.830 336.348 360.227 Q 336.877 359.624 337.446 359.055 Q 338.015 358.485 338.584 357.916 Q 339.153 357.347 339.726 356.783 Q 340.300 356.218 340.993 355.826 Q 341.685 355.433 342.336 354.972 Q 342.987 354.512 343.556 353.943 Q 344.126 353.374 344.699 352.809 Q 345.272 352.244 345.961 351.845 Q 346.649 351.446 347.304 350.992 Q 347.959 350.538 348.603 350.065 Q 349.246 349.592 349.975 349.257 Q 350.704 348.922 351.357 349.241 Q 352.009 349.560 352.247 350.313 Q 352.485 351.067 352.492 351.872 Q 352.500 352.677 352.500 353.482 Q 352.500 354.286 352.500 355.091 Q 352.500 355.896 352.500 356.701 Q 352.500 357.506 352.500 358.311 Q 352.500 359.116 352.500 359.920 Q 352.500 360.725 352.466 361.528 Q 352.432 362.331 352.133 363.067 Q 351.835 363.803 351.673 364.579 Q 351.510 365.355 351.505 366.160 Q 351.500 366.965 351.495 367.770 Q 351.491 368.574 351.345 369.355 Q 351.198 370.135 350.889 370.867 Q 350.579 371.600 350.538 372.402 Q 350.497 373.204 350.428 374.004 Q 350.359 374.805 349.980 375.512 Q 349.601 376.220 349.253 376.942 Q 348.905 377.664 348.564 378.389 Q 348.224 379.115 347.899 379.842 Q 347.575 380.568 347.386 381.343 Q 347.198 382.117 346.685 382.733 Q 346.173 383.348 345.792 384.048 Q 345.411 384.748 345.018 385.449 Q 344.626 386.150 344.264 386.862 Q 343.902 387.573 343.339 388.148 Q 342.776 388.724 342.207 389.293 Q 341.638 389.862 341.069 390.431 Q 340.500 391.000 339.931 391.569 Q 339.362 392.138 338.793 392.707 Q 338.223 393.277 337.654 393.846 Q 337.085 394.415 336.516 394.984 Q 335.947 395.553 335.378 396.122 Q 334.809 396.691 334.235 397.255 Q 333.660 397.819 332.962 398.202 Q 332.264 398.585 331.619 399.056 Q 330.974 399.526 330.347 400.005 Z" fill="#F7CF5F"/>
  <path d="M 418.028 214.844 Q 417.719 215.484 416.918 215.492 Q 416.116 215.500 415.315 215.500 Q 414.514 215.500 413.714 215.484 Q 412.913 215.469 412.167 215.213 Q 411.420 214.957 410.664 214.735 Q 409.907 214.513 409.110 214.445 Q 408.313 214.377 407.600 214.022 Q 406.887 213.666 406.100 213.524 Q 405.313 213.381 404.605 213.015 Q 403.897 212.649 403.175 212.311 Q 402.453 211.972 401.730 211.634 Q 401.008 211.295 400.304 210.916 Q 399.601 210.536 398.890 210.175 Q 398.178 209.813 397.459 209.468 Q 396.740 209.124 396.140 208.596 Q 395.541 208.068 394.829 207.713 Q 394.118 207.358 393.493 206.863 Q 392.869 206.368 392.302 205.802 Q 391.735 205.235 391.169 204.669 Q 390.602 204.102 390.036 203.536 Q 389.470 202.970 388.906 202.400 Q 388.342 201.831 387.919 201.161 Q 387.497 200.492 387.072 199.823 Q 386.646 199.155 386.151 198.530 Q 385.656 197.905 385.303 197.192 Q 384.951 196.479 384.420 195.881 Q 383.890 195.283 383.546 194.564 Q 383.201 193.845 382.885 193.120 Q 382.568 192.394 382.380 191.623 Q 382.191 190.851 381.880 190.123 Q 381.568 189.394 381.380 188.623 Q 381.192 187.852 380.880 187.123 Q 380.568 186.395 380.380 185.623 Q 380.192 184.852 379.885 184.123 Q 379.578 183.393 379.515 182.596 Q 379.452 181.799 379.177 181.059 Q 378.902 180.319 378.707 179.555 Q 378.513 178.791 378.513 177.990 Q 378.513 177.189 378.793 176.512 Q 379.074 175.835 379.813 176.125 Q 380.552 176.414 381.349 176.477 Q 382.146 176.540 382.889 176.806 Q 383.632 177.072 384.390 177.299 Q 385.148 177.526 385.890 177.799 Q 386.632 178.072 387.390 178.299 Q 388.148 178.526 388.889 178.801 Q 389.629 179.076 390.352 179.414 Q 391.074 179.752 391.781 180.124 Q 392.488 180.496 393.196 180.865 Q 393.904 181.235 394.627 181.574 Q 395.349 181.912 396.068 182.258 Q 396.787 182.604 397.424 183.080 Q 398.061 183.557 398.715 184.005 Q 399.369 184.453 400.053 184.853 Q 400.737 185.253 401.307 185.815 Q 401.878 186.377 402.503 186.871 Q 403.129 187.365 403.840 187.721 Q 404.550 188.077 405.120 188.640 Q 405.690 189.203 406.110 189.875 Q 406.530 190.548 407.101 191.060 Q 407.672 191.572 408.139 192.186 Q 408.606 192.800 409.087 193.434 Q 409.568 194.067 410.131 194.637 Q 410.694 195.207 411.108 195.883 Q 411.521 196.558 411.897 197.263 Q 412.272 197.968 412.611 198.691 Q 412.949 199.413 413.289 200.135 Q 413.628 200.857 414.020 201.555 Q 414.411 202.253 414.760 202.970 Q 415.109 203.688 415.448 204.410 Q 415.786 205.133 416.102 205.858 Q 416.419 206.583 416.482 207.380 Q 416.545 208.177 416.816 208.919 Q 417.087 209.660 417.289 210.422 Q 417.490 211.185 417.563 211.981 Q 417.636 212.777 417.987 213.491 Q 418.338 214.205 418.028 214.844 Z" fill="#F7CF5F"/>
  <path d="M 72.358 311.993 Q 71.735 312.468 71.137 312.021 Q 70.540 311.574 70.176 310.864 Q 69.812 310.154 69.622 309.384 Q 69.433 308.614 69.119 307.889 Q 68.804 307.164 68.466 306.442 Q 68.129 305.720 67.836 304.987 Q 67.544 304.254 67.334 303.491 Q 67.124 302.728 66.841 301.992 Q 66.557 301.256 66.526 300.458 Q 66.495 299.660 66.405 298.869 Q 66.315 298.079 65.966 297.365 Q 65.617 296.651 65.559 295.855 Q 65.501 295.059 65.501 294.259 Q 65.500 293.459 65.500 292.659 Q 65.500 291.859 65.500 291.059 Q 65.500 290.259 65.535 289.461 Q 65.569 288.663 65.866 287.931 Q 66.163 287.200 66.329 286.429 Q 66.495 285.658 66.590 284.868 Q 66.686 284.078 67.037 283.364 Q 67.388 282.651 67.535 281.866 Q 67.683 281.082 68.060 280.378 Q 68.437 279.674 68.792 278.960 Q 69.147 278.247 69.490 277.528 Q 69.833 276.810 70.354 276.206 Q 70.874 275.602 71.242 274.900 Q 71.609 274.197 72.000 273.500 Q 72.391 272.804 72.758 272.101 Q 73.125 271.398 73.685 270.827 Q 74.245 270.255 74.810 269.690 Q 75.376 269.124 75.941 268.558 Q 76.507 267.992 76.967 267.346 Q 77.427 266.701 77.814 266.010 Q 78.200 265.319 78.761 264.749 Q 79.322 264.178 79.887 263.613 Q 80.453 263.047 81.019 262.481 Q 81.584 261.916 82.179 261.385 Q 82.774 260.855 83.490 260.506 Q 84.205 260.158 84.808 259.636 Q 85.411 259.115 86.088 259.205 Q 86.764 259.296 87.100 259.998 Q 87.436 260.699 87.470 261.498 Q 87.505 262.296 87.584 263.089 Q 87.664 263.881 88.020 264.593 Q 88.376 265.305 88.437 266.101 Q 88.498 266.896 88.499 267.696 Q 88.500 268.496 88.500 269.296 Q 88.500 270.096 88.500 270.896 Q 88.500 271.696 88.500 272.496 Q 88.500 273.297 88.500 274.097 Q 88.500 274.897 88.500 275.697 Q 88.500 276.497 88.500 277.297 Q 88.500 278.097 88.500 278.897 Q 88.500 279.697 88.500 280.497 Q 88.500 281.297 88.500 282.097 Q 88.500 282.897 88.496 283.697 Q 88.492 284.497 88.366 285.277 Q 88.240 286.058 87.913 286.780 Q 87.586 287.502 87.414 288.278 Q 87.243 289.054 86.915 289.776 Q 86.587 290.497 86.416 291.274 Q 86.245 292.050 85.916 292.771 Q 85.588 293.492 85.418 294.269 Q 85.247 295.045 84.880 295.754 Q 84.513 296.463 84.097 297.135 Q 83.681 297.808 83.183 298.429 Q 82.684 299.050 82.336 299.765 Q 81.988 300.480 81.454 301.074 Q 80.920 301.668 80.572 302.384 Q 80.224 303.099 79.707 303.704 Q 79.190 304.310 78.631 304.882 Q 78.072 305.455 77.717 306.165 Q 77.362 306.876 76.869 307.500 Q 76.375 308.124 75.810 308.690 Q 75.244 309.256 74.679 309.821 Q 74.113 310.387 73.547 310.953 Q 72.981 311.518 72.358 311.993 Z" fill="#F7CF5F"/>
  <path d="M 65.167 198.847 Q 64.734 199.468 64.026 199.127 Q 63.317 198.786 62.897 198.110 Q 62.477 197.435 62.098 196.725 Q 61.718 196.016 61.377 195.289 Q 61.036 194.562 60.773 193.811 Q 60.510 193.060 60.267 192.302 Q 60.024 191.545 59.683 190.817 Q 59.343 190.090 58.979 189.376 Q 58.614 188.662 58.465 187.871 Q 58.316 187.081 57.966 186.360 Q 57.616 185.640 57.558 184.838 Q 57.501 184.035 57.448 183.232 Q 57.395 182.429 57.056 181.705 Q 56.718 180.981 56.612 180.188 Q 56.507 179.395 56.503 178.589 Q 56.500 177.783 56.500 176.976 Q 56.500 176.170 56.500 175.363 Q 56.500 174.557 56.500 173.750 Q 56.500 172.944 56.500 172.137 Q 56.500 171.331 56.502 170.525 Q 56.505 169.718 56.584 168.919 Q 56.663 168.119 57.021 167.401 Q 57.378 166.683 57.446 165.881 Q 57.513 165.079 57.741 164.318 Q 57.969 163.558 58.230 162.806 Q 58.491 162.054 58.735 161.297 Q 58.979 160.540 59.319 159.812 Q 59.660 159.085 60.049 158.380 Q 60.437 157.675 60.795 156.956 Q 61.153 156.236 61.495 155.509 Q 61.836 154.782 62.196 154.064 Q 62.555 153.346 62.942 152.640 Q 63.329 151.934 63.682 151.214 Q 64.035 150.494 64.569 149.893 Q 65.104 149.292 65.456 148.571 Q 65.807 147.850 66.335 147.245 Q 66.862 146.639 67.424 146.061 Q 67.986 145.483 68.338 144.762 Q 68.690 144.041 69.228 143.457 Q 69.766 142.874 70.514 142.882 Q 71.263 142.890 71.787 143.484 Q 72.312 144.079 72.463 144.869 Q 72.614 145.658 72.969 146.377 Q 73.324 147.096 73.415 147.894 Q 73.506 148.692 73.683 149.466 Q 73.859 150.241 74.149 150.981 Q 74.440 151.722 74.504 152.524 Q 74.567 153.327 74.866 154.064 Q 75.164 154.802 75.327 155.580 Q 75.490 156.357 75.503 157.164 Q 75.515 157.970 75.754 158.728 Q 75.992 159.485 76.237 160.241 Q 76.481 160.997 76.491 161.803 Q 76.500 162.610 76.500 163.416 Q 76.500 164.222 76.500 165.029 Q 76.500 165.835 76.500 166.642 Q 76.500 167.448 76.500 168.255 Q 76.500 169.061 76.500 169.868 Q 76.500 170.674 76.500 171.481 Q 76.500 172.287 76.500 173.093 Q 76.500 173.900 76.500 174.706 Q 76.500 175.513 76.481 176.318 Q 76.463 177.124 76.196 177.872 Q 75.930 178.620 75.589 179.347 Q 75.248 180.074 74.919 180.800 Q 74.590 181.526 74.526 182.329 Q 74.462 183.131 74.194 183.879 Q 73.926 184.626 73.585 185.354 Q 73.244 186.081 72.871 186.793 Q 72.498 187.505 72.124 188.217 Q 71.750 188.929 71.402 189.652 Q 71.053 190.374 70.516 190.974 Q 69.979 191.573 69.630 192.295 Q 69.281 193.018 68.902 193.727 Q 68.523 194.436 68.107 195.116 Q 67.691 195.797 67.124 196.370 Q 66.557 196.944 66.079 197.585 Q 65.600 198.226 65.167 198.847 Z" fill="#F7CF5F"/>
  <path d="M 421.407 347.081 Q 420.719 347.484 419.913 347.492 Q 419.107 347.500 418.300 347.500 Q 417.494 347.500 416.688 347.500 Q 415.882 347.500 415.075 347.500 Q 414.269 347.500 413.463 347.500 Q 412.657 347.500 411.851 347.500 Q 411.044 347.500 410.238 347.495 Q 409.432 347.490 408.681 347.296 Q 407.929 347.101 407.723 346.356 Q 407.516 345.612 407.615 344.819 Q 407.714 344.026 408.089 343.314 Q 408.463 342.602 408.828 341.886 Q 409.192 341.170 409.533 340.443 Q 409.874 339.716 410.228 338.995 Q 410.582 338.274 411.051 337.627 Q 411.520 336.980 412.088 336.408 Q 412.655 335.835 413.080 335.160 Q 413.505 334.486 413.935 333.815 Q 414.365 333.144 414.933 332.572 Q 415.501 331.999 416.071 331.429 Q 416.641 330.859 417.211 330.289 Q 417.781 329.719 418.351 329.149 Q 418.922 328.579 419.559 328.094 Q 420.196 327.610 420.903 327.238 Q 421.610 326.866 422.186 326.302 Q 422.762 325.738 423.380 325.227 Q 423.998 324.716 424.724 324.373 Q 425.450 324.029 426.177 323.688 Q 426.903 323.347 427.617 322.981 Q 428.330 322.616 429.121 322.468 Q 429.911 322.321 430.631 321.966 Q 431.350 321.612 432.139 321.462 Q 432.929 321.311 433.650 320.962 Q 434.370 320.614 435.173 320.549 Q 435.975 320.485 436.732 320.246 Q 437.489 320.006 438.245 319.762 Q 439.001 319.518 439.807 319.509 Q 440.613 319.500 441.419 319.500 Q 442.225 319.500 443.032 319.500 Q 443.838 319.500 444.644 319.500 Q 445.450 319.500 446.257 319.500 Q 447.063 319.500 447.869 319.505 Q 448.675 319.511 449.451 319.681 Q 450.226 319.851 450.965 320.144 Q 451.705 320.437 452.506 320.505 Q 453.308 320.572 453.851 321.051 Q 454.394 321.529 454.307 322.312 Q 454.220 323.094 453.855 323.811 Q 453.490 324.527 453.115 325.238 Q 452.739 325.949 452.390 326.671 Q 452.042 327.393 451.489 327.979 Q 450.936 328.564 450.400 329.162 Q 449.863 329.760 449.512 330.481 Q 449.160 331.202 448.628 331.803 Q 448.095 332.404 447.525 332.974 Q 446.955 333.545 446.385 334.115 Q 445.815 334.685 445.245 335.255 Q 444.675 335.825 444.105 336.395 Q 443.535 336.965 442.947 337.514 Q 442.358 338.063 441.638 338.415 Q 440.917 338.766 440.306 339.286 Q 439.694 339.806 439.118 340.369 Q 438.541 340.932 437.824 341.289 Q 437.108 341.646 436.404 342.037 Q 435.701 342.428 434.981 342.784 Q 434.261 343.139 433.534 343.480 Q 432.807 343.821 432.073 344.131 Q 431.340 344.441 430.567 344.641 Q 429.794 344.840 429.057 345.142 Q 428.320 345.445 427.548 345.647 Q 426.776 345.849 426.037 346.143 Q 425.298 346.437 424.494 346.471 Q 423.690 346.505 422.892 346.592 Q 422.095 346.678 421.407 347.081 Z" fill="#F7CF5F"/>
  <path d="M 433.364 240.987 Q 432.735 241.468 432.134 241.013 Q 431.534 240.558 431.164 239.841 Q 430.795 239.123 430.610 238.343 Q 430.424 237.563 430.103 236.830 Q 429.781 236.098 429.600 235.316 Q 429.419 234.534 429.093 233.803 Q 428.767 233.072 428.638 232.283 Q 428.508 231.495 428.486 230.687 Q 428.464 229.879 428.198 229.128 Q 427.933 228.377 427.723 227.610 Q 427.513 226.842 427.507 226.034 Q 427.500 225.225 427.500 224.417 Q 427.500 223.608 427.500 222.800 Q 427.500 221.991 427.500 221.182 Q 427.500 220.374 427.500 219.565 Q 427.500 218.757 427.500 217.948 Q 427.500 217.139 427.545 216.334 Q 427.590 215.528 427.913 214.796 Q 428.237 214.065 428.364 213.276 Q 428.492 212.487 428.515 211.679 Q 428.538 210.872 428.804 210.121 Q 429.071 209.370 429.299 208.605 Q 429.528 207.840 429.806 207.092 Q 430.085 206.344 430.309 205.578 Q 430.533 204.811 430.819 204.066 Q 431.104 203.322 431.446 202.593 Q 431.788 201.864 432.157 201.147 Q 432.525 200.430 432.906 199.719 Q 433.286 199.008 433.629 198.279 Q 433.971 197.550 434.314 196.822 Q 434.657 196.093 435.160 195.466 Q 435.663 194.838 436.230 194.261 Q 436.796 193.685 437.187 192.986 Q 437.577 192.288 438.045 191.638 Q 438.514 190.987 439.085 190.415 Q 439.657 189.843 440.224 189.267 Q 440.791 188.691 441.182 187.993 Q 441.574 187.296 442.052 186.657 Q 442.530 186.018 443.208 186.218 Q 443.885 186.418 444.183 187.151 Q 444.480 187.884 444.715 188.646 Q 444.951 189.409 445.210 190.162 Q 445.470 190.915 445.534 191.720 Q 445.598 192.525 445.930 193.253 Q 446.262 193.982 446.429 194.768 Q 446.596 195.555 446.936 196.281 Q 447.276 197.008 447.385 197.802 Q 447.493 198.596 447.499 199.404 Q 447.504 200.213 447.573 201.017 Q 447.643 201.820 448.006 202.539 Q 448.369 203.257 448.433 204.061 Q 448.497 204.865 448.499 205.674 Q 448.500 206.482 448.500 207.291 Q 448.500 208.100 448.500 208.908 Q 448.500 209.717 448.500 210.525 Q 448.500 211.334 448.500 212.143 Q 448.500 212.951 448.500 213.760 Q 448.500 214.568 448.498 215.377 Q 448.497 216.185 448.429 216.989 Q 448.361 217.793 447.997 218.511 Q 447.633 219.229 447.496 220.026 Q 447.358 220.823 446.993 221.541 Q 446.628 222.258 446.490 223.055 Q 446.353 223.852 445.967 224.562 Q 445.582 225.271 445.228 225.995 Q 444.873 226.718 444.531 227.447 Q 444.189 228.176 443.824 228.894 Q 443.459 229.612 443.010 230.274 Q 442.560 230.936 442.080 231.580 Q 441.600 232.223 441.222 232.929 Q 440.844 233.634 440.278 234.212 Q 439.711 234.789 439.140 235.360 Q 438.568 235.932 437.996 236.504 Q 437.424 237.076 436.852 237.648 Q 436.281 238.219 435.709 238.791 Q 435.137 239.363 434.565 239.935 Q 433.994 240.506 433.364 240.987 Z" fill="#F7CF5F"/>
  <path d="M 369.480 378.872 Q 368.867 379.336 368.294 378.778 Q 367.720 378.219 367.214 377.604 Q 366.708 376.989 366.368 376.268 Q 366.027 375.547 365.689 374.825 Q 365.351 374.103 364.985 373.396 Q 364.619 372.688 364.477 371.901 Q 364.335 371.114 363.977 370.402 Q 363.619 369.690 363.477 368.903 Q 363.336 368.116 362.979 367.404 Q 362.623 366.692 362.562 365.895 Q 362.502 365.098 362.454 364.301 Q 362.406 363.503 362.083 362.780 Q 361.759 362.057 361.634 361.275 Q 361.508 360.493 361.504 359.693 Q 361.500 358.892 361.500 358.091 Q 361.500 357.291 361.500 356.490 Q 361.500 355.689 361.500 354.889 Q 361.500 354.088 361.500 353.287 Q 361.500 352.487 361.500 351.686 Q 361.500 350.885 361.500 350.084 Q 361.500 349.284 361.503 348.483 Q 361.505 347.682 361.590 346.890 Q 361.675 346.098 362.027 345.384 Q 362.380 344.671 362.447 343.874 Q 362.513 343.078 362.739 342.322 Q 362.964 341.567 363.301 340.844 Q 363.638 340.122 364.029 339.424 Q 364.419 338.726 364.770 338.009 Q 365.120 337.293 365.459 336.571 Q 365.797 335.849 366.161 335.139 Q 366.525 334.429 366.902 333.725 Q 367.279 333.021 367.617 332.299 Q 367.955 331.577 368.294 330.855 Q 368.633 330.133 369.124 329.505 Q 369.615 328.878 370.048 328.215 Q 370.481 327.552 370.895 326.877 Q 371.310 326.203 371.873 325.634 Q 372.436 325.064 373.017 324.516 Q 373.599 323.968 374.320 323.919 Q 375.041 323.869 375.299 324.598 Q 375.556 325.327 375.861 326.057 Q 376.167 326.786 376.505 327.508 Q 376.843 328.230 377.145 328.961 Q 377.447 329.691 377.648 330.458 Q 377.850 331.224 378.148 331.957 Q 378.446 332.689 378.648 333.456 Q 378.849 334.222 379.142 334.956 Q 379.435 335.689 379.498 336.486 Q 379.561 337.283 379.849 338.018 Q 380.138 338.753 380.313 339.522 Q 380.489 340.290 380.501 341.091 Q 380.514 341.891 380.732 342.649 Q 380.949 343.406 381.208 344.151 Q 381.466 344.896 381.483 345.696 Q 381.500 346.496 381.500 347.297 Q 381.500 348.098 381.500 348.898 Q 381.500 349.699 381.500 350.500 Q 381.500 351.301 381.500 352.101 Q 381.500 352.902 381.500 353.703 Q 381.500 354.503 381.483 355.303 Q 381.466 356.103 381.208 356.848 Q 380.949 357.594 380.731 358.351 Q 380.512 359.108 380.444 359.905 Q 380.375 360.701 380.018 361.413 Q 379.660 362.124 379.519 362.912 Q 379.379 363.700 379.011 364.406 Q 378.643 365.113 378.305 365.835 Q 377.967 366.557 377.629 367.279 Q 377.290 368.001 376.912 368.704 Q 376.533 369.408 376.126 370.087 Q 375.720 370.766 375.217 371.384 Q 374.713 372.002 374.365 372.718 Q 374.016 373.434 373.463 374.012 Q 372.910 374.590 372.380 375.186 Q 371.850 375.782 371.501 376.498 Q 371.152 377.214 370.622 377.811 Q 370.093 378.407 369.480 378.872 Z" fill="#F7CF5F"/>
  <path d="M 422.461 198.855 Q 421.867 199.336 421.293 198.778 Q 420.719 198.219 420.153 197.653 Q 419.587 197.086 419.102 196.456 Q 418.617 195.825 418.253 195.119 Q 417.889 194.414 417.366 193.810 Q 416.843 193.207 416.500 192.488 Q 416.156 191.769 415.800 191.055 Q 415.443 190.341 415.059 189.641 Q 414.674 188.940 414.336 188.217 Q 413.998 187.495 413.749 186.745 Q 413.499 185.995 413.249 185.246 Q 412.998 184.497 412.749 183.747 Q 412.499 182.997 412.249 182.247 Q 411.999 181.498 411.749 180.748 Q 411.500 179.998 411.250 179.249 Q 410.999 178.499 410.758 177.748 Q 410.517 176.996 410.509 176.196 Q 410.500 175.395 410.500 174.594 Q 410.500 173.793 410.500 172.992 Q 410.500 172.191 410.500 171.391 Q 410.500 170.590 410.500 169.789 Q 410.500 168.988 410.500 168.187 Q 410.500 167.386 410.502 166.585 Q 410.504 165.784 410.572 164.988 Q 410.641 164.192 411.003 163.482 Q 411.365 162.771 411.431 161.975 Q 411.497 161.178 411.502 160.378 Q 411.507 159.577 411.616 158.791 Q 411.726 158.005 412.061 157.285 Q 412.396 156.566 412.459 155.769 Q 412.522 154.972 412.768 154.222 Q 413.015 153.473 413.250 152.720 Q 413.485 151.967 413.549 151.170 Q 413.613 150.373 413.959 149.657 Q 414.305 148.941 414.456 148.157 Q 414.608 147.373 414.964 146.662 Q 415.320 145.951 415.667 145.234 Q 416.015 144.517 416.665 144.091 Q 417.315 143.664 418.020 143.960 Q 418.724 144.256 419.132 144.933 Q 419.540 145.611 419.984 146.267 Q 420.428 146.923 420.992 147.492 Q 421.556 148.061 422.004 148.714 Q 422.452 149.368 422.852 150.052 Q 423.252 150.736 423.758 151.352 Q 424.265 151.967 424.606 152.688 Q 424.947 153.409 425.287 154.130 Q 425.626 154.852 426.018 155.549 Q 426.409 156.247 426.757 156.965 Q 427.106 157.682 427.444 158.404 Q 427.782 159.127 428.104 159.850 Q 428.426 160.574 428.609 161.346 Q 428.793 162.119 429.105 162.847 Q 429.417 163.574 429.480 164.371 Q 429.543 165.168 429.813 165.910 Q 430.082 166.651 430.284 167.413 Q 430.487 168.174 430.493 168.975 Q 430.500 169.776 430.500 170.577 Q 430.500 171.378 430.500 172.179 Q 430.500 172.980 430.500 173.780 Q 430.500 174.581 430.500 175.382 Q 430.500 176.183 430.500 176.984 Q 430.500 177.785 430.497 178.586 Q 430.494 179.386 430.393 180.175 Q 430.292 180.963 429.951 181.680 Q 429.610 182.398 429.547 183.195 Q 429.484 183.992 429.243 184.743 Q 429.003 185.495 428.752 186.244 Q 428.501 186.994 428.252 187.744 Q 428.003 188.493 427.665 189.216 Q 427.327 189.938 426.942 190.639 Q 426.558 191.340 426.205 192.056 Q 425.852 192.772 425.650 193.538 Q 425.447 194.304 425.108 195.009 Q 424.769 195.713 424.260 196.327 Q 423.751 196.941 423.403 197.657 Q 423.054 198.373 422.461 198.855 Z" fill="#F7CF5F"/>
  <path d="M 79.081 346.848 Q 78.719 347.484 77.916 347.492 Q 77.113 347.500 76.311 347.500 Q 75.508 347.500 74.705 347.500 Q 73.903 347.500 73.100 347.500 Q 72.297 347.500 71.495 347.500 Q 70.692 347.500 69.889 347.500 Q 69.086 347.500 68.284 347.500 Q 67.481 347.500 66.679 347.482 Q 65.877 347.463 65.132 347.201 Q 64.386 346.938 63.625 346.725 Q 62.864 346.511 62.066 346.441 Q 61.268 346.371 60.556 346.008 Q 59.844 345.646 59.053 345.509 Q 58.262 345.372 57.550 345.009 Q 56.838 344.645 56.047 344.508 Q 55.256 344.371 54.549 343.997 Q 53.843 343.623 53.120 343.282 Q 52.397 342.940 51.673 342.601 Q 50.950 342.262 50.242 341.887 Q 49.535 341.512 48.861 341.094 Q 48.186 340.675 47.563 340.176 Q 46.939 339.677 46.222 339.326 Q 45.505 338.976 44.930 338.415 Q 44.355 337.855 43.788 337.288 Q 43.220 336.720 42.653 336.153 Q 42.085 335.585 41.518 335.018 Q 40.950 334.450 40.382 333.882 Q 39.815 333.315 39.247 332.747 Q 38.680 332.180 38.112 331.612 Q 37.544 331.044 36.978 330.475 Q 36.412 329.906 35.972 329.246 Q 35.531 328.585 35.121 327.906 Q 34.712 327.226 34.148 326.655 Q 33.584 326.083 33.099 325.450 Q 32.615 324.817 32.273 324.095 Q 31.931 323.372 31.743 322.610 Q 31.556 321.848 31.961 321.236 Q 32.366 320.624 33.150 320.466 Q 33.935 320.308 34.652 319.961 Q 35.370 319.614 36.169 319.558 Q 36.968 319.501 37.770 319.500 Q 38.573 319.500 39.376 319.500 Q 40.178 319.500 40.981 319.500 Q 41.784 319.500 42.586 319.500 Q 43.389 319.500 44.192 319.500 Q 44.994 319.500 45.797 319.505 Q 46.600 319.510 47.377 319.661 Q 48.153 319.812 48.884 320.122 Q 49.614 320.433 50.386 320.624 Q 51.159 320.814 51.890 321.119 Q 52.622 321.425 53.420 321.488 Q 54.219 321.551 54.960 321.830 Q 55.700 322.109 56.464 322.324 Q 57.227 322.539 57.965 322.829 Q 58.702 323.118 59.426 323.457 Q 60.150 323.796 60.861 324.161 Q 61.573 324.527 62.235 324.965 Q 62.897 325.403 63.529 325.890 Q 64.161 326.378 64.870 326.740 Q 65.578 327.103 66.152 327.664 Q 66.726 328.226 67.293 328.793 Q 67.861 329.361 68.428 329.928 Q 68.996 330.496 69.564 331.064 Q 70.131 331.631 70.699 332.199 Q 71.266 332.766 71.834 333.334 Q 72.401 333.901 72.968 334.470 Q 73.535 335.038 73.989 335.690 Q 74.443 336.343 74.839 337.031 Q 75.235 337.719 75.745 338.334 Q 76.254 338.950 76.596 339.672 Q 76.939 340.395 77.280 341.117 Q 77.622 341.840 78.014 342.539 Q 78.406 343.238 78.752 343.959 Q 79.098 344.680 79.270 345.446 Q 79.443 346.211 79.081 346.848 Z" fill="#F7CF5F"/>
  <path d="M 84.560 175.983 Q 83.867 176.336 83.341 175.738 Q 82.815 175.139 82.662 174.365 Q 82.510 173.590 82.505 172.788 Q 82.501 171.986 82.556 171.188 Q 82.611 170.390 82.954 169.672 Q 83.297 168.953 83.396 168.163 Q 83.494 167.373 83.523 166.573 Q 83.553 165.772 83.832 165.033 Q 84.112 164.294 84.302 163.527 Q 84.492 162.761 84.568 161.964 Q 84.645 161.167 85.008 160.455 Q 85.371 159.744 85.508 158.954 Q 85.645 158.163 86.026 157.459 Q 86.408 156.755 86.757 156.037 Q 87.106 155.318 87.445 154.595 Q 87.784 153.872 88.151 153.162 Q 88.518 152.451 88.951 151.787 Q 89.385 151.123 89.876 150.494 Q 90.368 149.866 90.725 149.155 Q 91.083 148.444 91.643 147.870 Q 92.204 147.296 92.771 146.729 Q 93.338 146.162 93.905 145.595 Q 94.472 145.028 95.039 144.461 Q 95.606 143.894 96.173 143.327 Q 96.741 142.759 97.308 142.192 Q 97.875 141.625 98.442 141.058 Q 99.010 140.492 99.657 140.031 Q 100.305 139.570 100.997 139.182 Q 101.689 138.793 102.301 138.281 Q 102.914 137.768 103.631 137.419 Q 104.348 137.070 104.944 136.535 Q 105.539 136.000 106.257 135.653 Q 106.976 135.305 107.679 134.924 Q 108.382 134.542 109.095 134.181 Q 109.809 133.821 110.532 133.482 Q 111.255 133.143 111.971 132.788 Q 112.687 132.433 113.387 132.045 Q 114.088 131.658 114.812 131.320 Q 115.535 130.982 116.291 130.760 Q 117.046 130.539 117.684 130.903 Q 118.323 131.268 118.093 132.010 Q 117.863 132.753 117.687 133.522 Q 117.511 134.292 117.499 135.094 Q 117.486 135.896 117.267 136.654 Q 117.047 137.413 116.782 138.158 Q 116.517 138.904 116.281 139.660 Q 116.046 140.416 115.789 141.163 Q 115.531 141.910 115.468 142.708 Q 115.405 143.506 115.079 144.230 Q 114.753 144.953 114.582 145.732 Q 114.412 146.510 114.075 147.230 Q 113.739 147.949 113.400 148.672 Q 113.061 149.396 112.791 150.139 Q 112.520 150.883 112.288 151.640 Q 112.056 152.397 111.716 153.120 Q 111.377 153.843 110.985 154.542 Q 110.593 155.240 110.217 155.939 Q 109.840 156.639 109.322 157.247 Q 108.804 157.855 108.455 158.573 Q 108.106 159.290 107.567 159.881 Q 107.028 160.472 106.482 161.057 Q 105.936 161.642 105.587 162.360 Q 105.238 163.077 104.721 163.686 Q 104.205 164.294 103.638 164.862 Q 103.071 165.429 102.503 165.995 Q 101.935 166.561 101.279 167.008 Q 100.623 167.455 99.940 167.857 Q 99.256 168.259 98.639 168.766 Q 98.021 169.272 97.304 169.621 Q 96.587 169.971 95.991 170.505 Q 95.396 171.040 94.677 171.387 Q 93.958 171.733 93.252 172.108 Q 92.546 172.484 91.836 172.851 Q 91.126 173.218 90.402 173.557 Q 89.679 173.896 88.960 174.244 Q 88.242 174.593 87.538 174.974 Q 86.834 175.356 86.043 175.493 Q 85.253 175.629 84.560 175.983 Z" fill="#F7CF5F"/>
  <path d="M 398.359 349.993 Q 397.735 350.469 397.027 350.134 Q 396.319 349.800 395.748 349.238 Q 395.176 348.676 394.616 348.102 Q 394.057 347.529 393.703 346.816 Q 393.349 346.103 392.855 345.477 Q 392.360 344.851 391.933 344.184 Q 391.506 343.516 391.137 342.808 Q 390.767 342.100 390.428 341.377 Q 390.090 340.654 389.744 339.935 Q 389.398 339.215 389.006 338.517 Q 388.615 337.819 388.274 337.097 Q 387.933 336.375 387.722 335.615 Q 387.511 334.855 387.440 334.058 Q 387.369 333.261 387.007 332.550 Q 386.645 331.839 386.509 331.049 Q 386.372 330.260 386.009 329.549 Q 385.646 328.838 385.575 328.041 Q 385.504 327.245 385.499 326.443 Q 385.494 325.642 385.400 324.852 Q 385.305 324.061 384.959 323.344 Q 384.614 322.628 384.557 321.830 Q 384.501 321.032 384.500 320.231 Q 384.500 319.430 384.500 318.628 Q 384.500 317.827 384.506 317.025 Q 384.512 316.224 384.704 315.459 Q 384.895 314.694 385.172 313.954 Q 385.449 313.214 385.475 312.414 Q 385.500 311.614 385.508 310.813 Q 385.516 310.011 385.756 309.259 Q 385.996 308.507 386.247 307.757 Q 386.499 307.007 386.748 306.257 Q 386.997 305.506 387.248 304.756 Q 387.499 304.006 387.748 303.256 Q 387.997 302.505 388.248 301.755 Q 388.499 301.005 388.749 300.255 Q 388.998 299.505 389.337 298.782 Q 389.675 298.059 390.061 297.358 Q 390.447 296.657 390.982 296.352 Q 391.517 296.048 392.092 296.607 Q 392.666 297.166 393.233 297.733 Q 393.799 298.299 394.359 298.872 Q 394.919 299.446 395.276 300.157 Q 395.632 300.868 396.024 301.566 Q 396.415 302.264 396.796 302.960 Q 397.176 303.656 397.692 304.265 Q 398.208 304.875 398.557 305.591 Q 398.906 306.308 399.439 306.904 Q 399.971 307.501 400.321 308.217 Q 400.670 308.933 401.055 309.634 Q 401.441 310.335 401.793 311.052 Q 402.146 311.768 402.349 312.535 Q 402.552 313.301 402.853 314.033 Q 403.154 314.765 403.493 315.488 Q 403.831 316.211 404.132 316.941 Q 404.432 317.672 404.468 318.472 Q 404.504 319.271 404.579 320.067 Q 404.654 320.863 405.013 321.574 Q 405.373 322.286 405.435 323.083 Q 405.498 323.881 405.499 324.682 Q 405.500 325.484 405.500 326.285 Q 405.500 327.087 405.500 327.888 Q 405.500 328.690 405.500 329.491 Q 405.500 330.292 405.493 331.094 Q 405.486 331.895 405.267 332.653 Q 405.048 333.411 404.791 334.157 Q 404.533 334.903 404.512 335.704 Q 404.492 336.505 404.363 337.286 Q 404.235 338.068 403.869 338.779 Q 403.504 339.490 403.140 340.201 Q 402.776 340.913 402.598 341.688 Q 402.420 342.463 402.097 343.188 Q 401.775 343.913 401.597 344.689 Q 401.420 345.464 401.091 346.186 Q 400.763 346.908 400.417 347.626 Q 400.071 348.345 399.527 348.931 Q 398.983 349.517 398.359 349.993 Z" fill="#F7CF5F"/>
  <path d="M 426.155 264.867 Q 425.719 265.483 424.923 265.412 Q 424.127 265.341 423.421 264.959 Q 422.716 264.578 421.999 264.225 Q 421.281 263.873 420.557 263.533 Q 419.833 263.194 419.120 262.830 Q 418.408 262.467 417.703 262.087 Q 416.998 261.708 416.279 261.360 Q 415.560 261.012 414.963 260.477 Q 414.367 259.942 413.649 259.592 Q 412.931 259.243 412.321 258.727 Q 411.711 258.211 411.144 257.643 Q 410.576 257.076 410.008 256.508 Q 409.440 255.940 408.873 255.373 Q 408.305 254.805 407.737 254.237 Q 407.170 253.670 406.602 253.102 Q 406.034 252.534 405.487 251.949 Q 404.940 251.364 404.594 250.644 Q 404.247 249.925 403.875 249.216 Q 403.503 248.507 403.132 247.798 Q 402.761 247.089 402.421 246.365 Q 402.082 245.641 401.737 244.920 Q 401.392 244.199 401.014 243.493 Q 400.636 242.787 400.499 241.996 Q 400.363 241.205 400.000 240.493 Q 399.637 239.780 399.564 238.983 Q 399.490 238.185 399.288 237.421 Q 399.085 236.657 398.815 235.914 Q 398.544 235.170 398.522 234.369 Q 398.500 233.567 398.500 232.764 Q 398.500 231.961 398.500 231.159 Q 398.500 230.356 398.498 229.553 Q 398.496 228.750 398.424 227.952 Q 398.353 227.155 397.991 226.442 Q 397.629 225.730 397.566 224.931 Q 397.503 224.133 397.505 223.330 Q 397.508 222.527 397.633 221.744 Q 397.757 220.961 398.303 220.393 Q 398.849 219.826 399.599 219.873 Q 400.348 219.920 401.071 220.263 Q 401.793 220.605 402.493 220.997 Q 403.192 221.389 403.913 221.734 Q 404.635 222.078 405.357 222.421 Q 406.079 222.764 406.688 223.281 Q 407.297 223.798 407.872 224.359 Q 408.446 224.919 409.158 225.277 Q 409.870 225.634 410.496 226.129 Q 411.123 226.624 411.691 227.191 Q 412.259 227.759 412.827 228.327 Q 413.394 228.894 413.962 229.462 Q 414.530 230.030 415.097 230.597 Q 415.665 231.165 416.233 231.733 Q 416.800 232.300 417.368 232.868 Q 417.936 233.436 418.487 234.018 Q 419.037 234.600 419.387 235.318 Q 419.737 236.036 420.249 236.649 Q 420.762 237.261 421.323 237.835 Q 421.885 238.409 422.250 239.116 Q 422.616 239.822 423.008 240.522 Q 423.400 241.221 423.744 241.943 Q 424.089 242.665 424.311 243.426 Q 424.532 244.188 424.812 244.929 Q 425.093 245.670 425.313 246.432 Q 425.534 247.194 425.814 247.935 Q 426.095 248.676 426.291 249.441 Q 426.487 250.206 426.494 251.009 Q 426.500 251.811 426.503 252.614 Q 426.507 253.417 426.616 254.205 Q 426.724 254.993 427.060 255.714 Q 427.396 256.436 427.448 257.235 Q 427.500 258.035 427.500 258.837 Q 427.500 259.640 427.498 260.443 Q 427.496 261.246 427.425 262.044 Q 427.354 262.841 426.972 263.546 Q 426.591 264.251 426.155 264.867 Z" fill="#F7CF5F"/>
  <path d="M 54.462 240.849 Q 53.867 241.336 53.290 240.774 Q 52.712 240.212 52.142 239.642 Q 51.572 239.072 51.002 238.502 Q 50.432 237.932 49.862 237.362 Q 49.292 236.792 48.722 236.222 Q 48.152 235.652 47.589 235.074 Q 47.027 234.497 46.674 233.777 Q 46.321 233.058 45.819 232.432 Q 45.317 231.806 44.899 231.127 Q 44.481 230.449 44.045 229.782 Q 43.608 229.115 43.117 228.481 Q 42.626 227.848 42.284 227.121 Q 41.943 226.394 41.710 225.633 Q 41.478 224.872 41.203 224.125 Q 40.929 223.379 40.588 222.652 Q 40.248 221.925 39.915 221.200 Q 39.582 220.475 39.404 219.695 Q 39.226 218.915 38.907 218.184 Q 38.587 217.454 38.544 216.651 Q 38.500 215.847 38.500 215.041 Q 38.500 214.235 38.500 213.429 Q 38.500 212.623 38.500 211.817 Q 38.500 211.010 38.500 210.204 Q 38.500 209.398 38.500 208.592 Q 38.500 207.786 38.500 206.980 Q 38.500 206.174 38.500 205.367 Q 38.500 204.561 38.513 203.756 Q 38.526 202.950 38.778 202.197 Q 39.030 201.444 39.258 200.684 Q 39.485 199.924 39.498 199.118 Q 39.511 198.311 39.684 197.537 Q 39.857 196.762 40.154 196.024 Q 40.451 195.285 40.659 194.515 Q 40.867 193.745 41.160 193.005 Q 41.454 192.265 41.665 191.497 Q 41.876 190.728 42.167 189.987 Q 42.457 189.246 42.672 188.478 Q 42.886 187.711 43.243 186.991 Q 43.601 186.270 44.260 186.006 Q 44.919 185.742 45.341 186.410 Q 45.762 187.077 46.277 187.694 Q 46.791 188.310 47.182 189.005 Q 47.572 189.701 48.037 190.351 Q 48.501 191.001 48.965 191.651 Q 49.428 192.302 49.819 192.997 Q 50.210 193.692 50.776 194.267 Q 51.341 194.841 51.842 195.467 Q 52.343 196.093 52.685 196.820 Q 53.027 197.546 53.368 198.273 Q 53.709 199.000 54.089 199.708 Q 54.470 200.416 54.836 201.132 Q 55.202 201.847 55.543 202.574 Q 55.883 203.300 56.173 204.041 Q 56.462 204.782 56.681 205.548 Q 56.899 206.314 57.176 207.059 Q 57.452 207.804 57.516 208.606 Q 57.580 209.408 57.892 210.141 Q 58.203 210.874 58.347 211.656 Q 58.491 212.439 58.496 213.245 Q 58.501 214.051 58.560 214.853 Q 58.618 215.655 58.970 216.374 Q 59.323 217.094 59.409 217.891 Q 59.495 218.688 59.497 219.495 Q 59.500 220.301 59.493 221.107 Q 59.485 221.913 59.260 222.674 Q 59.036 223.435 58.781 224.187 Q 58.527 224.939 58.514 225.745 Q 58.500 226.551 58.499 227.357 Q 58.497 228.163 58.431 228.964 Q 58.365 229.766 58.003 230.482 Q 57.640 231.198 57.565 231.999 Q 57.491 232.800 57.290 233.568 Q 57.089 234.335 56.810 235.080 Q 56.530 235.825 56.305 236.589 Q 56.080 237.353 55.804 238.099 Q 55.527 238.845 55.291 239.603 Q 55.056 240.362 54.462 240.849 Z" fill="#F7CF5F"/>
  <path d="M 404.096 175.824 Q 403.734 176.468 402.996 176.164 Q 402.258 175.859 401.528 175.517 Q 400.799 175.174 400.062 174.865 Q 399.325 174.556 398.551 174.353 Q 397.776 174.150 397.052 173.794 Q 396.328 173.438 395.621 173.049 Q 394.914 172.659 394.193 172.302 Q 393.473 171.945 392.868 171.411 Q 392.263 170.878 391.539 170.524 Q 390.816 170.171 390.205 169.645 Q 389.594 169.118 388.882 168.750 Q 388.170 168.381 387.534 167.889 Q 386.898 167.397 386.325 166.825 Q 385.753 166.253 385.181 165.681 Q 384.609 165.109 384.036 164.536 Q 383.464 163.964 382.895 163.389 Q 382.326 162.814 381.905 162.134 Q 381.483 161.454 381.046 160.784 Q 380.608 160.114 380.115 159.478 Q 379.623 158.841 379.257 158.128 Q 378.890 157.414 378.362 156.804 Q 377.835 156.194 377.488 155.467 Q 377.140 154.741 376.783 154.018 Q 376.426 153.295 376.034 152.589 Q 375.641 151.883 375.300 151.153 Q 374.959 150.423 374.720 149.660 Q 374.482 148.898 374.213 148.146 Q 373.943 147.395 373.710 146.631 Q 373.477 145.866 373.202 145.117 Q 372.928 144.367 372.699 143.601 Q 372.471 142.835 372.192 142.087 Q 371.912 141.339 371.689 140.571 Q 371.466 139.803 371.182 139.057 Q 370.897 138.311 370.703 137.538 Q 370.508 136.766 370.431 135.962 Q 370.354 135.158 369.991 134.439 Q 369.628 133.720 369.572 132.915 Q 369.517 132.110 369.823 131.404 Q 370.130 130.698 370.883 130.889 Q 371.636 131.080 372.365 131.422 Q 373.095 131.764 373.825 132.094 Q 374.554 132.423 375.335 132.607 Q 376.116 132.791 376.836 133.156 Q 377.556 133.520 378.225 133.960 Q 378.893 134.400 379.531 134.890 Q 380.169 135.380 380.897 135.726 Q 381.624 136.072 382.352 136.418 Q 383.080 136.764 383.693 137.286 Q 384.307 137.807 384.886 138.372 Q 385.465 138.937 386.184 139.296 Q 386.903 139.655 387.531 140.158 Q 388.160 140.661 388.737 141.228 Q 389.314 141.795 390.013 142.186 Q 390.712 142.576 391.362 143.045 Q 392.013 143.514 392.585 144.086 Q 393.158 144.658 393.730 145.230 Q 394.302 145.802 394.874 146.375 Q 395.446 146.947 395.925 147.591 Q 396.404 148.235 396.785 148.940 Q 397.166 149.645 397.687 150.260 Q 398.208 150.875 398.561 151.599 Q 398.914 152.322 399.453 152.924 Q 399.991 153.525 400.342 154.250 Q 400.694 154.974 401.078 155.684 Q 401.462 156.394 401.822 157.116 Q 402.183 157.837 402.340 158.620 Q 402.497 159.402 402.610 160.197 Q 402.723 160.991 403.064 161.718 Q 403.404 162.445 403.571 163.232 Q 403.738 164.019 404.070 164.749 Q 404.402 165.478 404.451 166.284 Q 404.500 167.090 404.500 167.899 Q 404.500 168.708 404.500 169.517 Q 404.500 170.327 404.500 171.136 Q 404.500 171.945 404.500 172.754 Q 404.500 173.564 404.479 174.372 Q 404.458 175.180 404.096 175.824 Z" fill="#F7CF5F"/>
  <path d="M 416.264 311.709 Q 415.867 312.336 415.291 311.775 Q 414.715 311.215 414.146 310.646 Q 413.577 310.077 413.009 309.509 Q 412.440 308.940 411.872 308.372 Q 411.303 307.803 410.735 307.235 Q 410.166 306.666 409.598 306.098 Q 409.029 305.529 408.461 304.961 Q 407.893 304.392 407.363 303.792 Q 406.833 303.191 406.488 302.469 Q 406.144 301.747 405.788 301.029 Q 405.432 300.312 404.971 299.662 Q 404.511 299.012 404.045 298.365 Q 403.579 297.719 403.229 296.998 Q 402.879 296.277 402.668 295.511 Q 402.456 294.745 402.161 294.008 Q 401.867 293.272 401.527 292.547 Q 401.187 291.822 400.875 291.091 Q 400.562 290.361 400.368 289.589 Q 400.173 288.817 399.872 288.083 Q 399.571 287.348 399.536 286.547 Q 399.500 285.745 399.493 284.941 Q 399.486 284.137 399.274 283.375 Q 399.061 282.613 398.799 281.866 Q 398.536 281.118 398.518 280.315 Q 398.500 279.512 398.500 278.708 Q 398.500 277.904 398.500 277.100 Q 398.500 276.296 398.500 275.492 Q 398.500 274.688 398.500 273.884 Q 398.500 273.080 398.549 272.279 Q 398.597 271.479 398.927 270.754 Q 399.256 270.029 399.374 269.242 Q 399.493 268.455 399.496 267.652 Q 399.500 266.848 399.506 266.044 Q 399.512 265.240 399.701 264.471 Q 399.890 263.703 400.176 262.963 Q 400.462 262.222 400.685 261.462 Q 400.908 260.701 401.526 260.279 Q 402.144 259.858 402.869 260.202 Q 403.593 260.547 404.093 261.135 Q 404.593 261.722 405.224 262.175 Q 405.855 262.627 406.485 263.121 Q 407.114 263.614 407.682 264.183 Q 408.251 264.751 408.819 265.320 Q 409.388 265.888 409.880 266.518 Q 410.373 267.148 410.734 267.858 Q 411.095 268.569 411.657 269.144 Q 412.219 269.719 412.734 270.331 Q 413.250 270.943 413.600 271.662 Q 413.951 272.381 414.486 272.978 Q 415.022 273.575 415.372 274.294 Q 415.723 275.013 416.230 275.632 Q 416.737 276.251 417.140 276.936 Q 417.543 277.621 417.926 278.326 Q 418.309 279.031 418.649 279.756 Q 418.988 280.481 419.243 281.233 Q 419.497 281.984 419.746 282.737 Q 419.995 283.490 420.247 284.243 Q 420.499 284.995 420.750 285.748 Q 421.000 286.500 421.242 287.255 Q 421.483 288.009 421.492 288.813 Q 421.500 289.617 421.500 290.421 Q 421.500 291.225 421.500 292.029 Q 421.500 292.833 421.500 293.637 Q 421.500 294.441 421.499 295.245 Q 421.499 296.049 421.441 296.849 Q 421.383 297.649 421.033 298.366 Q 420.682 299.084 420.589 299.879 Q 420.495 300.673 420.323 301.446 Q 420.152 302.220 419.853 302.956 Q 419.553 303.691 419.350 304.460 Q 419.147 305.230 418.849 305.966 Q 418.551 306.702 418.347 307.471 Q 418.142 308.239 417.789 308.959 Q 417.436 309.678 417.048 310.381 Q 416.661 311.083 416.264 311.709 Z" fill="#F7CF5F"/>
  <path d="M 91.155 349.869 Q 90.719 350.483 89.928 350.398 Q 89.138 350.313 88.713 349.654 Q 88.289 348.995 87.910 348.291 Q 87.531 347.587 87.168 346.875 Q 86.804 346.164 86.466 345.441 Q 86.127 344.718 85.775 344.001 Q 85.423 343.285 85.042 342.581 Q 84.660 341.877 84.520 341.088 Q 84.379 340.300 84.019 339.587 Q 83.660 338.875 83.519 338.086 Q 83.379 337.298 83.019 336.586 Q 82.659 335.873 82.582 335.078 Q 82.505 334.283 82.500 333.481 Q 82.495 332.680 82.409 331.887 Q 82.323 331.094 81.971 330.379 Q 81.619 329.664 81.560 328.867 Q 81.502 328.069 81.505 327.267 Q 81.509 326.466 81.644 325.686 Q 81.779 324.906 82.096 324.179 Q 82.413 323.453 82.456 322.654 Q 82.500 321.855 82.506 321.053 Q 82.512 320.252 82.697 319.485 Q 82.882 318.718 83.170 317.981 Q 83.458 317.243 83.670 316.480 Q 83.882 315.716 84.170 314.979 Q 84.458 314.242 84.671 313.478 Q 84.883 312.715 85.232 311.996 Q 85.580 311.277 85.970 310.578 Q 86.361 309.880 86.716 309.168 Q 87.071 308.456 87.599 307.855 Q 88.127 307.255 88.472 306.535 Q 88.816 305.816 89.178 305.104 Q 89.539 304.391 89.984 303.734 Q 90.428 303.077 90.908 302.442 Q 91.389 301.807 91.757 301.103 Q 92.125 300.399 92.647 299.794 Q 93.168 299.189 93.518 298.472 Q 93.867 297.755 94.458 297.233 Q 95.050 296.712 95.719 296.978 Q 96.389 297.244 96.745 297.959 Q 97.102 298.675 97.440 299.398 Q 97.779 300.121 98.102 300.845 Q 98.425 301.568 98.608 302.342 Q 98.791 303.116 99.108 303.843 Q 99.426 304.570 99.609 305.344 Q 99.792 306.118 100.104 306.846 Q 100.417 307.574 100.460 308.373 Q 100.503 309.172 100.569 309.969 Q 100.635 310.766 100.997 311.477 Q 101.358 312.189 101.427 312.986 Q 101.496 313.782 101.498 314.584 Q 101.500 315.386 101.500 316.187 Q 101.500 316.989 101.554 317.787 Q 101.607 318.585 101.944 319.306 Q 102.280 320.026 102.132 320.777 Q 101.985 321.527 101.750 322.281 Q 101.515 323.035 101.508 323.837 Q 101.500 324.638 101.500 325.440 Q 101.500 326.242 101.493 327.043 Q 101.486 327.845 101.279 328.606 Q 101.072 329.367 100.806 330.111 Q 100.540 330.854 100.477 331.652 Q 100.414 332.450 100.097 333.176 Q 99.780 333.903 99.601 334.678 Q 99.422 335.453 99.095 336.176 Q 98.768 336.898 98.429 337.621 Q 98.091 338.344 97.745 339.063 Q 97.398 339.783 97.007 340.481 Q 96.615 341.180 96.250 341.885 Q 95.885 342.591 95.362 343.195 Q 94.839 343.799 94.495 344.519 Q 94.152 345.239 93.795 345.954 Q 93.439 346.669 92.984 347.319 Q 92.528 347.970 92.060 348.612 Q 91.591 349.254 91.155 349.869 Z" fill="#F7CF5F"/>
  <path d="M 430.410 315.080 Q 429.719 315.484 428.910 315.492 Q 428.101 315.500 427.292 315.500 Q 426.482 315.500 425.673 315.499 Q 424.864 315.497 424.060 315.425 Q 423.257 315.353 422.988 314.690 Q 422.720 314.027 423.060 313.300 Q 423.401 312.572 423.565 311.784 Q 423.730 310.996 424.103 310.280 Q 424.477 309.565 424.846 308.848 Q 425.215 308.131 425.558 307.401 Q 425.900 306.672 426.250 305.946 Q 426.601 305.220 426.995 304.515 Q 427.389 303.809 427.761 303.099 Q 428.134 302.389 428.658 301.777 Q 429.183 301.165 429.536 300.442 Q 429.889 299.718 430.432 299.122 Q 430.975 298.525 431.524 297.933 Q 432.074 297.341 432.427 296.618 Q 432.780 295.895 433.304 295.284 Q 433.829 294.672 434.456 294.168 Q 435.083 293.663 435.803 293.306 Q 436.523 292.949 437.102 292.384 Q 437.681 291.819 438.254 291.247 Q 438.826 290.674 439.453 290.170 Q 440.080 289.665 440.800 289.308 Q 441.521 288.951 442.125 288.417 Q 442.730 287.882 443.456 287.534 Q 444.182 287.185 444.901 286.821 Q 445.621 286.457 446.330 286.071 Q 447.040 285.686 447.769 285.344 Q 448.499 285.001 449.256 284.750 Q 450.014 284.498 450.770 284.242 Q 451.527 283.986 452.288 283.750 Q 453.049 283.514 453.854 283.448 Q 454.659 283.382 455.381 283.027 Q 456.102 282.673 456.903 282.583 Q 457.704 282.494 458.480 282.313 Q 459.256 282.132 460.001 281.845 Q 460.745 281.557 461.552 281.532 Q 462.360 281.506 463.156 281.607 Q 463.952 281.707 464.528 282.248 Q 465.104 282.789 464.866 283.521 Q 464.629 284.254 464.491 285.051 Q 464.353 285.849 463.968 286.559 Q 463.583 287.269 463.228 287.993 Q 462.874 288.717 462.531 289.446 Q 462.189 290.176 461.824 290.895 Q 461.459 291.614 461.074 292.324 Q 460.690 293.034 460.347 293.763 Q 460.004 294.492 459.662 295.222 Q 459.319 295.951 458.933 296.660 Q 458.547 297.369 458.141 298.059 Q 457.736 298.749 457.168 299.325 Q 456.599 299.901 456.028 300.474 Q 455.457 301.047 455.003 301.707 Q 454.548 302.366 454.143 303.056 Q 453.738 303.746 453.164 304.316 Q 452.590 304.886 451.877 305.254 Q 451.164 305.621 450.529 306.114 Q 449.893 306.607 449.321 307.179 Q 448.749 307.751 448.170 308.317 Q 447.592 308.883 446.880 309.252 Q 446.167 309.620 445.462 310.014 Q 444.756 310.408 444.031 310.760 Q 443.307 311.113 442.577 311.455 Q 441.848 311.797 441.114 312.116 Q 440.381 312.434 439.603 312.629 Q 438.825 312.823 438.087 313.131 Q 437.349 313.440 436.573 313.639 Q 435.797 313.838 435.056 314.136 Q 434.316 314.434 433.509 314.469 Q 432.701 314.505 431.901 314.590 Q 431.100 314.675 430.410 315.080 Z" fill="#F7CF5F"/>
  <path d="M 64.086 314.846 Q 63.719 315.484 62.913 315.492 Q 62.108 315.500 61.303 315.500 Q 60.498 315.500 59.693 315.482 Q 58.889 315.465 58.140 315.203 Q 57.392 314.941 56.629 314.727 Q 55.866 314.514 55.061 314.507 Q 54.255 314.500 53.452 314.464 Q 52.649 314.429 51.914 314.127 Q 51.179 313.825 50.405 313.631 Q 49.632 313.436 48.898 313.127 Q 48.165 312.817 47.390 312.626 Q 46.616 312.434 45.886 312.117 Q 45.156 311.800 44.430 311.459 Q 43.704 311.119 42.984 310.767 Q 42.263 310.415 41.561 310.022 Q 40.860 309.629 40.147 309.269 Q 39.434 308.909 38.859 308.346 Q 38.283 307.783 37.713 307.213 Q 37.144 306.644 36.575 306.075 Q 36.005 305.505 35.436 304.936 Q 34.867 304.367 34.297 303.797 Q 33.728 303.228 33.158 302.658 Q 32.589 302.089 32.020 301.520 Q 31.450 300.950 30.884 300.378 Q 30.318 299.806 29.900 299.128 Q 29.482 298.451 29.105 297.742 Q 28.728 297.033 28.388 296.307 Q 28.047 295.581 27.706 294.855 Q 27.365 294.129 26.871 293.499 Q 26.376 292.868 25.944 292.200 Q 25.511 291.531 25.147 290.816 Q 24.783 290.100 24.602 289.322 Q 24.421 288.544 24.098 287.815 Q 23.775 287.086 23.597 286.307 Q 23.418 285.528 23.093 284.800 Q 22.768 284.072 22.689 283.289 Q 22.610 282.506 23.162 282.037 Q 23.713 281.569 24.516 281.537 Q 25.319 281.506 26.115 281.593 Q 26.911 281.680 27.630 282.031 Q 28.348 282.383 29.149 282.448 Q 29.950 282.514 30.708 282.748 Q 31.466 282.981 32.218 283.238 Q 32.970 283.495 33.725 283.742 Q 34.480 283.989 35.233 284.243 Q 35.985 284.497 36.740 284.747 Q 37.494 284.997 38.247 285.248 Q 39.001 285.500 39.754 285.753 Q 40.508 286.005 41.234 286.345 Q 41.960 286.686 42.665 287.070 Q 43.371 287.454 44.087 287.815 Q 44.804 288.177 45.526 288.523 Q 46.249 288.869 46.846 289.406 Q 47.442 289.942 48.027 290.494 Q 48.612 291.045 49.332 291.396 Q 50.052 291.747 50.665 292.263 Q 51.278 292.779 51.848 293.348 Q 52.417 293.917 52.987 294.487 Q 53.556 295.056 54.125 295.625 Q 54.695 296.195 55.259 296.769 Q 55.823 297.344 56.205 298.043 Q 56.588 298.743 57.060 299.387 Q 57.532 300.031 58.098 300.603 Q 58.664 301.175 59.086 301.850 Q 59.509 302.525 59.884 303.235 Q 60.259 303.945 60.599 304.671 Q 60.940 305.397 61.282 306.122 Q 61.625 306.847 62.017 307.548 Q 62.410 308.250 62.761 308.971 Q 63.112 309.692 63.452 310.418 Q 63.793 311.145 64.107 311.874 Q 64.421 312.604 64.437 313.406 Q 64.453 314.208 64.086 314.846 Z" fill="#F7CF5F"/>
  <path d="M 248.400 435.074 Q 247.719 435.484 246.915 435.492 Q 246.111 435.500 245.306 435.500 Q 244.502 435.500 243.698 435.499 Q 242.893 435.498 242.093 435.436 Q 241.293 435.374 240.583 435.005 Q 239.874 434.636 239.149 434.296 Q 238.423 433.955 237.700 433.613 Q 236.976 433.270 236.361 432.758 Q 235.746 432.245 235.235 431.630 Q 234.724 431.014 234.381 430.290 Q 234.039 429.566 233.784 428.817 Q 233.528 428.067 233.514 427.263 Q 233.500 426.459 233.520 425.656 Q 233.540 424.853 233.810 424.108 Q 234.080 423.363 234.423 422.640 Q 234.767 421.917 235.285 421.307 Q 235.804 420.697 236.424 420.192 Q 237.045 419.687 237.770 419.346 Q 238.494 419.004 239.247 418.752 Q 239.999 418.500 240.752 418.249 Q 241.505 417.998 242.259 417.757 Q 243.014 417.516 243.819 417.513 Q 244.623 417.510 245.400 417.667 Q 246.177 417.824 246.910 418.131 Q 247.643 418.438 248.415 418.634 Q 249.187 418.830 249.905 419.187 Q 250.623 419.545 251.280 419.993 Q 251.938 420.442 252.490 421.025 Q 253.042 421.608 253.390 422.329 Q 253.738 423.050 254.071 423.772 Q 254.405 424.494 254.452 425.295 Q 254.500 426.096 254.500 426.901 Q 254.500 427.705 254.467 428.507 Q 254.435 429.310 254.136 430.044 Q 253.837 430.779 253.492 431.501 Q 253.147 432.223 252.563 432.760 Q 251.980 433.298 251.256 433.640 Q 250.531 433.982 249.807 434.323 Q 249.082 434.663 248.400 435.074 Z" fill="#F7CF5F"/>
</svg>
