<?xml version="1.0" encoding="UTF-8"?>
<svg xmlns="http://www.w3.org/2000/svg"
     width="3840"
     height="822"
     viewBox="0 0 3840 822"
     version="1.1">
  <title>Praeliator logo</title>
  <path fill="#f4c12e"
        fill-rule="evenodd"
        shape-rendering="geometricPrecision"
        d="M 648.000 607.078 L 647.000 607.433 L 646.000 607.528 L 639.000 607.693 L 634.000 607.465 L 630.000 607.642 L 625.000 607.551 L 530.000 607.585 L 527.000 607.693 L 526.000 607.658 L 523.000 607.318 L 522.000 607.313 L 518.000 607.612 L 514.000 607.465 L 510.000 607.823 L 508.000 607.764 L 507.000 607.625 L 506.000 607.197 L 505.783 607.000 L 505.705 606.000 L 506.233 605.000 L 507.012 604.000 L 508.202 603.000 L 509.570 602.000 L 510.676 601.000 L 514.000 597.436 L 517.000 594.593 L 518.000 593.378 L 519.000 591.944 L 521.000 589.833 L 523.217 587.000 L 525.000 584.478 L 527.000 581.934 L 528.000 579.662 L 528.408 579.000 L 529.267 578.000 L 529.960 577.000 L 531.000 574.259 L 532.355 572.000 L 532.839 571.000 L 534.172 567.000 L 535.698 564.000 L 536.109 563.000 L 536.544 561.000 L 537.000 557.794 L 537.570 556.000 L 538.491 554.000 L 538.766 553.000 L 539.615 545.000 L 539.845 542.000 L 539.993 532.000 L 540.023 194.000 L 539.912 188.000 L 539.979 182.000 L 539.767 173.000 L 539.000 166.063 L 538.822 165.000 L 538.312 163.000 L 536.937 159.000 L 536.033 154.000 L 535.664 153.000 L 534.560 151.000 L 534.105 150.000 L 533.100 147.000 L 531.802 145.000 L 531.360 144.000 L 530.303 141.000 L 528.518 138.000 L 527.000 135.118 L 524.000 131.011 L 522.000 128.700 L 521.000 126.919 L 520.307 126.000 L 519.000 124.649 L 517.787 123.000 L 517.000 122.167 L 515.678 121.000 L 512.733 118.000 L 510.912 116.000 L 509.705 115.000 L 506.712 113.000 L 505.963 112.000 L 505.890 111.000 L 506.603 110.000 L 507.000 109.733 L 508.000 109.443 L 509.000 109.375 L 510.000 109.445 L 513.000 109.910 L 514.000 109.974 L 517.000 109.640 L 518.000 109.612 L 522.000 110.007 L 524.000 109.890 L 526.000 109.592 L 527.000 109.592 L 530.000 109.798 L 695.000 109.766 L 704.000 109.863 L 707.000 109.942 L 710.000 110.142 L 719.000 111.008 L 724.000 111.824 L 728.000 113.039 L 733.000 114.216 L 735.000 114.858 L 738.000 116.129 L 739.000 116.423 L 741.000 116.741 L 742.015 117.000 L 743.000 117.578 L 744.000 118.466 L 744.955 119.000 L 747.000 119.553 L 748.000 119.951 L 750.000 121.245 L 753.779 123.000 L 756.000 124.518 L 758.597 126.000 L 762.000 128.368 L 766.000 130.892 L 767.000 131.670 L 769.000 133.491 L 771.036 135.000 L 774.000 137.530 L 776.000 139.470 L 777.781 141.000 L 779.509 143.000 L 781.823 145.000 L 783.817 147.000 L 784.621 148.000 L 786.000 150.033 L 788.000 152.255 L 792.000 157.640 L 793.098 159.000 L 794.000 160.295 L 795.000 162.037 L 796.408 164.000 L 797.960 167.000 L 799.551 169.000 L 800.034 170.000 L 801.000 173.017 L 803.157 177.000 L 804.595 181.000 L 805.525 183.000 L 806.000 184.310 L 807.000 188.023 L 808.595 192.000 L 809.000 193.950 L 809.410 197.000 L 811.136 207.000 L 811.582 210.000 L 812.059 215.000 L 812.165 218.000 L 812.131 229.000 L 812.000 231.500 L 811.811 233.000 L 810.972 237.000 L 810.442 240.000 L 809.900 245.000 L 809.465 248.000 L 808.892 251.000 L 807.363 255.000 L 806.000 259.881 L 804.236 264.000 L 803.000 268.050 L 802.555 269.000 L 801.000 271.530 L 800.007 274.000 L 799.442 275.000 L 798.095 277.000 L 797.000 279.097 L 796.420 280.000 L 794.898 282.000 L 793.819 284.000 L 793.142 285.000 L 792.000 286.345 L 790.050 289.000 L 789.000 290.120 L 787.754 292.000 L 787.000 292.856 L 785.828 294.000 L 785.000 295.067 L 784.102 296.000 L 782.941 297.000 L 781.250 299.000 L 779.990 300.000 L 777.000 302.845 L 775.971 304.000 L 775.000 304.853 L 774.000 305.566 L 772.000 307.573 L 769.963 309.000 L 767.688 311.000 L 765.000 312.710 L 763.250 314.000 L 758.819 317.000 L 756.000 318.644 L 753.984 320.000 L 751.000 321.591 L 748.603 323.000 L 745.000 324.543 L 743.000 325.805 L 742.000 326.221 L 739.000 326.830 L 738.500 327.000 L 736.000 328.210 L 734.000 329.008 L 729.000 330.144 L 725.000 331.445 L 723.000 331.940 L 718.000 332.625 L 714.000 332.960 L 709.000 333.726 L 705.000 334.010 L 696.000 333.933 L 686.000 334.125 L 679.000 333.880 L 674.000 333.861 L 670.000 334.120 L 668.000 334.139 L 658.000 333.973 L 653.000 334.147 L 649.000 334.087 L 646.000 334.467 L 645.000 334.466 L 644.000 334.345 L 642.187 334.000 L 641.115 333.000 L 642.050 332.000 L 643.000 331.694 L 645.000 331.338 L 646.000 331.045 L 648.475 330.000 L 652.000 329.054 L 661.525 326.000 L 664.000 325.048 L 667.000 323.742 L 670.000 322.858 L 671.000 322.412 L 673.000 321.259 L 676.000 320.010 L 678.000 318.817 L 681.403 317.000 L 684.000 315.373 L 686.458 314.000 L 688.000 312.934 L 696.000 307.886 L 697.000 307.139 L 699.000 305.315 L 700.690 304.000 L 702.000 302.758 L 703.073 302.000 L 705.000 300.202 L 706.587 299.000 L 708.452 297.000 L 710.000 295.827 L 714.000 291.198 L 715.231 290.000 L 717.000 287.564 L 718.567 286.000 L 719.000 285.392 L 720.000 283.529 L 722.000 280.586 L 723.954 277.000 L 727.311 272.000 L 728.000 270.596 L 728.992 268.000 L 730.202 266.000 L 730.680 265.000 L 731.792 261.000 L 733.384 257.000 L 733.697 256.000 L 734.194 254.000 L 735.000 250.083 L 736.551 245.000 L 736.817 243.000 L 737.674 232.000 L 737.826 227.000 L 737.873 215.000 L 736.962 207.000 L 736.473 204.000 L 735.208 200.000 L 734.051 195.000 L 733.255 193.000 L 732.000 190.196 L 731.000 187.140 L 730.524 186.000 L 729.000 183.386 L 727.881 181.000 L 726.025 178.000 L 725.000 176.014 L 723.000 173.618 L 722.000 171.656 L 721.437 171.000 L 720.320 170.000 L 719.627 169.000 L 719.000 167.859 L 718.255 167.000 L 717.000 165.847 L 715.231 164.000 L 713.518 162.000 L 712.000 160.879 L 711.044 160.000 L 710.000 158.645 L 707.000 156.078 L 705.500 155.000 L 704.000 153.405 L 703.489 153.000 L 701.793 152.000 L 700.000 150.377 L 697.264 149.000 L 696.000 147.853 L 694.924 147.000 L 694.000 146.588 L 692.000 145.882 L 688.788 144.000 L 685.795 143.000 L 684.000 142.313 L 681.283 141.000 L 677.000 139.570 L 673.000 138.534 L 671.000 137.893 L 670.000 137.688 L 667.000 137.401 L 662.000 136.746 L 649.000 136.066 L 645.000 136.231 L 622.000 136.255 L 620.000 136.236 L 618.000 135.990 L 617.000 135.949 L 616.000 136.216 L 615.000 137.081 L 614.525 138.000 L 614.276 139.000 L 614.215 140.000 L 614.336 143.000 L 614.240 146.000 L 614.243 534.000 L 614.522 544.000 L 614.979 548.000 L 615.861 553.000 L 617.000 557.147 L 618.000 562.184 L 618.263 563.000 L 620.000 566.860 L 620.664 569.000 L 621.000 569.817 L 623.000 573.580 L 624.025 577.000 L 624.670 578.000 L 625.587 579.000 L 626.000 579.566 L 627.366 582.000 L 629.000 584.159 L 630.000 585.787 L 631.592 588.000 L 632.863 590.000 L 636.000 593.683 L 638.000 595.862 L 639.000 597.185 L 640.000 598.265 L 642.427 600.000 L 644.000 601.546 L 645.000 602.261 L 646.360 603.000 L 647.000 603.561 L 647.371 604.000 L 647.898 605.000 L 648.309 606.000 L 648.119 607.000 L 648.000 607.078 Z M 3592.000 768.051 L 3590.000 768.049 L 3584.000 767.769 L 3578.000 767.864 L 3573.000 767.777 L 3564.000 767.875 L 3549.000 767.750 L 3538.000 767.239 L 3536.000 767.083 L 3533.000 766.711 L 3529.000 766.491 L 3528.000 766.324 L 3526.000 765.798 L 3523.000 765.391 L 3520.000 764.846 L 3515.000 764.146 L 3513.000 763.788 L 3511.000 763.250 L 3509.000 762.591 L 3508.000 762.342 L 3505.000 761.824 L 3501.000 760.771 L 3499.000 760.157 L 3497.000 759.402 L 3492.022 758.000 L 3488.000 756.442 L 3486.000 755.904 L 3485.000 755.546 L 3483.635 755.000 L 3481.000 753.755 L 3479.109 753.000 L 3477.000 752.438 L 3475.674 752.000 L 3473.000 750.620 L 3468.980 749.000 L 3466.000 747.435 L 3462.000 745.689 L 3459.352 744.000 L 3456.643 743.000 L 3456.000 742.612 L 3455.000 741.777 L 3454.000 741.151 L 3451.776 740.000 L 3450.000 738.620 L 3449.000 738.045 L 3447.000 737.147 L 3443.959 735.000 L 3442.000 733.882 L 3439.403 732.000 L 3437.000 730.583 L 3434.961 729.000 L 3433.000 727.886 L 3432.000 727.120 L 3430.811 726.000 L 3429.000 724.755 L 3427.000 723.139 L 3426.000 722.432 L 3423.293 720.000 L 3420.635 718.000 L 3416.000 713.824 L 3414.989 713.000 L 3412.000 710.010 L 3409.000 707.344 L 3408.000 706.207 L 3407.000 704.779 L 3406.000 703.691 L 3405.000 702.852 L 3402.524 700.000 L 3400.000 697.849 L 3398.588 696.000 L 3396.652 694.000 L 3395.194 692.000 L 3394.000 690.847 L 3393.272 690.000 L 3392.596 689.000 L 3392.000 687.939 L 3391.312 687.000 L 3390.000 685.522 L 3388.937 684.000 L 3387.000 681.476 L 3385.447 679.000 L 3384.000 677.207 L 3383.000 675.380 L 3381.754 674.000 L 3381.023 673.000 L 3380.000 670.838 L 3378.524 669.000 L 3378.000 668.207 L 3377.417 667.000 L 3376.815 666.000 L 3375.121 664.000 L 3374.000 661.653 L 3373.615 661.000 L 3372.000 658.859 L 3371.000 656.908 L 3369.657 655.000 L 3368.000 652.171 L 3366.953 651.000 L 3366.198 650.000 L 3365.000 647.607 L 3363.664 646.000 L 3363.000 645.014 L 3362.000 643.043 L 3359.000 638.155 L 3357.000 635.388 L 3355.831 633.000 L 3355.136 632.000 L 3354.000 630.679 L 3353.551 630.000 L 3352.457 628.000 L 3351.000 625.962 L 3350.000 624.329 L 3348.937 623.000 L 3348.270 622.000 L 3347.000 619.355 L 3345.135 617.000 L 3344.000 614.841 L 3342.629 613.000 L 3341.000 610.238 L 3339.221 608.000 L 3338.000 605.638 L 3336.000 603.066 L 3335.113 601.000 L 3334.579 600.000 L 3333.000 597.833 L 3332.000 596.088 L 3330.000 593.263 L 3329.000 591.321 L 3327.000 588.549 L 3326.000 586.731 L 3324.000 583.819 L 3322.440 581.000 L 3321.000 578.967 L 3319.795 577.000 L 3318.000 574.573 L 3316.508 572.000 L 3315.000 569.963 L 3314.000 568.097 L 3313.320 567.000 L 3312.000 565.159 L 3311.000 563.423 L 3308.653 560.000 L 3306.000 555.750 L 3304.553 553.000 L 3304.000 552.171 L 3303.000 550.934 L 3300.430 547.000 L 3298.788 544.000 L 3297.000 541.577 L 3296.000 539.932 L 3294.000 537.014 L 3292.217 534.000 L 3290.282 531.000 L 3288.676 529.000 L 3287.082 526.000 L 3285.627 524.000 L 3284.000 521.244 L 3282.415 519.000 L 3281.000 516.397 L 3279.298 514.000 L 3278.000 511.646 L 3276.056 509.000 L 3274.992 507.000 L 3273.417 505.000 L 3271.406 502.000 L 3270.802 501.000 L 3269.250 498.000 L 3266.000 493.090 L 3264.415 491.000 L 3263.816 490.000 L 3263.000 488.382 L 3261.000 485.500 L 3259.509 483.000 L 3258.082 481.000 L 3257.000 478.742 L 3256.555 478.000 L 3255.000 476.037 L 3253.877 474.000 L 3252.000 471.413 L 3251.000 469.618 L 3249.250 467.000 L 3248.089 465.000 L 3246.546 463.000 L 3245.000 460.132 L 3243.388 458.000 L 3242.000 455.526 L 3240.821 454.000 L 3240.202 453.000 L 3239.178 451.000 L 3237.682 449.000 L 3237.000 447.929 L 3236.000 445.959 L 3235.366 445.000 L 3234.000 443.226 L 3232.703 441.000 L 3231.000 438.689 L 3229.592 436.000 L 3228.079 434.000 L 3226.921 432.000 L 3225.000 429.264 L 3224.000 427.434 L 3222.000 424.635 L 3220.625 422.000 L 3220.000 421.038 L 3216.330 416.000 L 3215.758 415.000 L 3215.000 413.306 L 3214.231 412.000 L 3213.000 410.449 L 3211.619 408.000 L 3210.000 405.603 L 3209.000 403.885 L 3207.000 401.088 L 3206.000 399.397 L 3204.308 397.000 L 3202.720 394.000 L 3201.000 391.613 L 3200.000 389.938 L 3198.000 387.041 L 3197.000 385.257 L 3195.000 382.208 L 3194.303 381.000 L 3192.267 378.000 L 3191.180 376.000 L 3189.627 374.000 L 3189.022 373.000 L 3188.000 370.890 L 3186.000 368.232 L 3185.345 367.000 L 3184.708 366.000 L 3183.142 364.000 L 3182.000 361.764 L 3180.000 358.689 L 3179.000 356.962 L 3177.000 354.118 L 3175.728 352.000 L 3174.000 349.679 L 3173.000 347.838 L 3171.000 344.962 L 3170.000 343.263 L 3169.000 341.893 L 3167.250 339.000 L 3165.790 337.000 L 3165.530 336.000 L 3165.762 335.000 L 3166.000 334.661 L 3166.661 334.000 L 3167.000 333.774 L 3168.000 333.349 L 3169.944 333.000 L 3173.000 332.648 L 3181.000 331.360 L 3182.000 331.173 L 3186.036 330.000 L 3191.000 329.112 L 3193.000 328.435 L 3198.000 326.993 L 3201.868 326.000 L 3207.000 324.026 L 3214.000 321.952 L 3216.000 320.828 L 3218.000 319.972 L 3221.717 318.000 L 3224.000 317.008 L 3227.000 315.112 L 3229.309 314.000 L 3232.000 312.219 L 3234.258 311.000 L 3237.000 309.236 L 3239.000 308.189 L 3240.000 307.510 L 3242.000 305.690 L 3244.000 304.373 L 3244.446 304.000 L 3245.459 303.000 L 3247.000 301.809 L 3249.000 299.828 L 3251.000 298.240 L 3252.050 297.000 L 3254.000 295.135 L 3255.000 293.969 L 3259.000 289.898 L 3261.000 287.120 L 3262.170 286.000 L 3262.871 285.000 L 3264.000 282.776 L 3266.000 280.014 L 3267.043 278.000 L 3269.110 275.000 L 3270.395 272.000 L 3272.131 269.000 L 3274.295 264.000 L 3276.042 258.000 L 3276.705 256.000 L 3278.000 252.548 L 3278.439 251.000 L 3278.750 249.000 L 3279.041 246.000 L 3279.216 245.000 L 3279.657 243.000 L 3280.000 241.875 L 3280.373 240.000 L 3281.309 230.000 L 3281.452 224.000 L 3281.382 218.000 L 3281.299 216.000 L 3280.908 211.000 L 3280.272 207.000 L 3279.000 202.033 L 3278.566 200.000 L 3278.214 197.000 L 3277.960 196.000 L 3277.405 195.000 L 3276.636 194.000 L 3276.115 193.000 L 3275.156 189.000 L 3273.195 185.000 L 3272.000 182.319 L 3270.000 179.300 L 3268.875 177.000 L 3267.000 174.563 L 3266.000 172.833 L 3265.430 172.000 L 3264.000 170.385 L 3263.000 168.650 L 3262.449 168.000 L 3261.000 166.702 L 3259.758 165.000 L 3255.553 161.000 L 3254.000 159.132 L 3252.370 158.000 L 3250.343 156.000 L 3248.904 155.000 L 3247.000 153.360 L 3244.964 152.000 L 3243.000 150.447 L 3240.616 149.000 L 3239.000 147.482 L 3238.000 146.899 L 3235.500 146.000 L 3233.000 144.360 L 3232.000 143.906 L 3229.000 142.910 L 3226.000 141.545 L 3224.614 141.000 L 3215.000 138.059 L 3214.000 137.880 L 3205.000 136.788 L 3194.000 136.104 L 3189.000 136.231 L 3170.000 136.194 L 3165.000 136.336 L 3164.000 136.306 L 3161.000 135.867 L 3160.000 136.032 L 3159.000 136.654 L 3158.707 137.000 L 3158.116 138.000 L 3157.833 139.000 L 3157.775 140.000 L 3157.911 142.000 L 3157.766 146.000 L 3157.782 311.000 L 3157.877 318.000 L 3157.734 322.000 L 3157.822 326.000 L 3157.720 330.000 L 3158.007 335.000 L 3157.910 340.000 L 3157.718 343.000 L 3157.881 348.000 L 3157.730 352.000 L 3157.847 356.000 L 3157.782 361.000 L 3157.782 526.000 L 3157.898 539.000 L 3158.101 544.000 L 3158.695 551.000 L 3158.964 553.000 L 3159.219 554.000 L 3160.048 556.000 L 3160.713 558.000 L 3161.779 563.000 L 3162.543 565.000 L 3163.500 567.000 L 3165.000 571.018 L 3165.474 572.000 L 3167.000 574.685 L 3167.701 577.000 L 3168.148 578.000 L 3169.703 580.000 L 3171.000 582.303 L 3172.892 585.000 L 3174.000 587.012 L 3177.952 592.000 L 3181.510 596.000 L 3184.000 598.500 L 3187.910 602.000 L 3190.000 603.245 L 3190.819 604.000 L 3191.297 605.000 L 3191.402 606.000 L 3191.042 607.000 L 3190.000 607.602 L 3189.000 607.763 L 3188.000 607.771 L 3180.000 607.430 L 3174.000 607.680 L 3172.000 607.697 L 3166.000 607.585 L 3074.000 607.578 L 3071.000 607.664 L 3067.000 607.413 L 3063.000 607.647 L 3059.000 607.473 L 3057.000 607.474 L 3052.000 607.848 L 3051.000 607.830 L 3050.000 607.583 L 3049.183 607.000 L 3049.039 606.000 L 3049.549 605.000 L 3050.487 604.000 L 3052.000 602.851 L 3052.951 602.000 L 3054.000 600.848 L 3056.000 599.352 L 3057.991 597.000 L 3059.096 596.000 L 3060.000 594.913 L 3060.913 594.000 L 3062.025 593.000 L 3063.379 591.000 L 3065.000 589.056 L 3066.000 587.489 L 3068.000 585.058 L 3070.195 582.000 L 3071.000 580.603 L 3072.000 578.536 L 3073.120 577.000 L 3073.703 576.000 L 3075.000 573.018 L 3076.565 570.000 L 3078.000 566.019 L 3079.384 563.000 L 3079.914 561.000 L 3080.525 558.000 L 3081.000 556.413 L 3081.900 554.000 L 3082.155 553.000 L 3082.300 552.000 L 3082.553 549.000 L 3083.000 546.350 L 3083.300 544.000 L 3083.444 542.000 L 3083.531 539.000 L 3083.539 194.000 L 3083.473 179.000 L 3083.331 175.000 L 3082.945 169.000 L 3082.833 168.000 L 3082.388 166.000 L 3081.392 163.000 L 3080.893 161.000 L 3079.877 156.000 L 3079.269 154.000 L 3078.000 151.457 L 3077.035 148.000 L 3076.457 147.000 L 3075.653 146.000 L 3075.087 145.000 L 3074.447 143.000 L 3074.028 142.000 L 3072.711 140.000 L 3072.000 138.554 L 3071.000 136.162 L 3070.191 135.000 L 3069.000 133.570 L 3067.957 132.000 L 3066.000 129.433 L 3065.000 127.944 L 3063.000 125.550 L 3061.830 124.000 L 3060.010 122.000 L 3059.000 120.739 L 3058.000 119.716 L 3055.988 118.000 L 3054.090 116.000 L 3051.344 114.000 L 3050.214 113.000 L 3049.544 112.000 L 3049.500 111.000 L 3050.000 110.278 L 3050.417 110.000 L 3051.000 109.790 L 3053.000 109.598 L 3055.000 109.680 L 3058.000 109.991 L 3063.000 109.664 L 3067.000 109.848 L 3072.000 109.766 L 3243.000 109.734 L 3248.000 109.811 L 3253.000 110.023 L 3263.000 111.096 L 3268.000 111.991 L 3275.000 113.931 L 3278.000 114.864 L 3282.000 116.369 L 3286.000 117.588 L 3288.000 118.766 L 3291.362 120.000 L 3294.000 121.509 L 3296.000 122.371 L 3297.197 123.000 L 3300.000 124.880 L 3302.014 126.000 L 3306.487 129.000 L 3308.000 130.210 L 3310.774 132.000 L 3313.000 133.971 L 3314.440 135.000 L 3318.845 139.000 L 3324.094 144.000 L 3328.000 148.312 L 3331.000 151.859 L 3335.000 156.934 L 3336.000 158.612 L 3338.000 161.362 L 3339.580 164.000 L 3340.913 166.000 L 3341.423 167.000 L 3342.270 169.000 L 3342.836 170.000 L 3343.524 171.000 L 3344.000 171.922 L 3345.000 174.309 L 3346.116 176.000 L 3346.653 177.000 L 3347.047 178.000 L 3348.000 181.396 L 3349.295 184.000 L 3350.000 185.674 L 3350.918 190.000 L 3352.366 194.000 L 3352.625 195.000 L 3353.162 198.000 L 3353.673 202.000 L 3354.185 205.000 L 3354.553 209.000 L 3355.269 214.000 L 3355.536 217.000 L 3355.713 225.000 L 3355.592 227.000 L 3355.254 230.000 L 3353.953 240.000 L 3353.411 245.000 L 3353.000 247.536 L 3352.570 249.000 L 3351.425 252.000 L 3351.133 253.000 L 3350.309 257.000 L 3350.000 258.024 L 3347.720 264.000 L 3346.942 267.000 L 3346.491 268.000 L 3345.000 270.288 L 3343.897 273.000 L 3342.000 275.833 L 3341.000 278.038 L 3339.000 280.841 L 3338.000 282.592 L 3337.064 284.000 L 3335.000 286.855 L 3331.050 292.000 L 3330.000 293.031 L 3327.480 296.000 L 3325.628 298.000 L 3323.385 300.000 L 3321.000 302.330 L 3319.012 304.000 L 3317.000 305.929 L 3311.012 311.000 L 3309.000 312.082 L 3308.000 312.790 L 3306.000 314.464 L 3302.043 317.000 L 3300.292 318.000 L 3297.414 320.000 L 3293.000 322.298 L 3289.352 324.000 L 3287.000 325.482 L 3286.000 325.831 L 3283.000 326.516 L 3282.000 326.864 L 3279.525 328.000 L 3278.000 328.557 L 3272.000 329.946 L 3268.000 331.108 L 3260.000 332.633 L 3259.000 332.723 L 3256.000 332.754 L 3255.000 332.900 L 3254.000 333.329 L 3253.191 334.000 L 3252.798 335.000 L 3252.915 336.000 L 3253.342 337.000 L 3253.991 338.000 L 3255.000 339.457 L 3257.000 342.064 L 3258.000 344.042 L 3258.585 345.000 L 3260.000 346.962 L 3261.119 349.000 L 3261.802 350.000 L 3263.000 351.464 L 3264.353 354.000 L 3266.000 356.382 L 3267.000 358.097 L 3269.000 361.014 L 3270.693 364.000 L 3272.000 365.837 L 3273.000 367.527 L 3275.000 370.431 L 3276.000 372.230 L 3277.973 375.000 L 3279.000 376.819 L 3279.791 378.000 L 3282.000 381.226 L 3283.319 383.000 L 3284.000 384.141 L 3285.000 386.276 L 3286.955 389.000 L 3288.082 391.000 L 3289.491 393.000 L 3291.000 395.449 L 3292.100 397.000 L 3293.000 398.431 L 3294.000 400.250 L 3295.284 402.000 L 3295.908 403.000 L 3297.000 405.115 L 3299.000 407.712 L 3300.144 410.000 L 3301.669 412.000 L 3303.000 414.226 L 3304.385 416.000 L 3305.000 417.014 L 3306.000 419.034 L 3308.000 421.646 L 3309.218 424.000 L 3310.728 426.000 L 3311.356 427.000 L 3312.275 429.000 L 3312.894 430.000 L 3314.000 431.274 L 3314.469 432.000 L 3315.525 434.000 L 3317.027 436.000 L 3318.736 439.000 L 3320.000 440.671 L 3321.000 442.500 L 3322.259 444.000 L 3322.976 445.000 L 3324.000 447.112 L 3326.214 450.000 L 3327.353 452.000 L 3329.000 454.386 L 3330.388 457.000 L 3332.000 459.250 L 3333.000 460.905 L 3335.000 463.851 L 3336.000 465.645 L 3338.000 468.434 L 3339.000 470.115 L 3341.000 473.041 L 3343.935 478.000 L 3344.595 479.000 L 3346.231 481.000 L 3347.000 482.371 L 3347.707 484.000 L 3348.388 485.000 L 3349.258 486.000 L 3349.918 487.000 L 3351.000 489.274 L 3353.000 491.837 L 3354.144 494.000 L 3355.815 496.000 L 3357.000 498.355 L 3357.402 499.000 L 3359.000 501.013 L 3359.583 502.000 L 3360.545 504.000 L 3361.000 504.708 L 3362.028 506.000 L 3363.781 509.000 L 3365.000 510.757 L 3366.000 512.412 L 3368.000 515.262 L 3369.000 516.936 L 3371.000 519.512 L 3372.000 521.443 L 3374.000 524.514 L 3375.000 526.346 L 3376.272 528.000 L 3378.000 530.744 L 3379.029 532.000 L 3379.616 533.000 L 3380.613 535.000 L 3381.359 536.000 L 3382.250 537.000 L 3382.904 538.000 L 3384.000 540.258 L 3384.438 541.000 L 3387.000 544.598 L 3388.100 546.000 L 3389.000 547.516 L 3390.000 549.743 L 3392.000 552.280 L 3393.000 554.197 L 3393.500 555.000 L 3395.000 557.013 L 3396.058 559.000 L 3398.000 561.756 L 3399.153 564.000 L 3399.830 565.000 L 3401.000 566.477 L 3403.000 569.855 L 3404.000 571.224 L 3405.723 574.000 L 3407.000 575.662 L 3408.133 578.000 L 3409.779 580.000 L 3411.000 582.312 L 3412.000 583.415 L 3413.000 584.720 L 3414.073 587.000 L 3414.688 588.000 L 3416.000 589.750 L 3418.839 594.000 L 3420.000 596.329 L 3421.836 599.000 L 3423.000 601.397 L 3423.452 602.000 L 3424.430 603.000 L 3425.208 604.000 L 3426.284 606.000 L 3428.000 608.526 L 3429.000 610.276 L 3431.000 613.171 L 3432.000 614.885 L 3434.000 617.875 L 3435.779 621.000 L 3437.284 623.000 L 3438.438 625.000 L 3439.861 627.000 L 3440.992 629.000 L 3442.737 631.000 L 3444.184 634.000 L 3446.000 636.112 L 3446.507 637.000 L 3447.418 639.000 L 3448.000 639.934 L 3449.000 641.174 L 3451.588 645.000 L 3453.000 647.635 L 3455.000 650.355 L 3455.734 652.000 L 3456.273 653.000 L 3458.000 655.187 L 3459.623 658.000 L 3461.147 660.000 L 3464.863 666.000 L 3467.000 668.744 L 3468.000 670.512 L 3469.149 672.000 L 3471.000 674.772 L 3472.112 676.000 L 3474.000 678.587 L 3476.000 680.962 L 3477.481 683.000 L 3479.845 686.000 L 3482.381 689.000 L 3485.000 691.844 L 3487.000 694.245 L 3491.000 698.490 L 3493.000 700.781 L 3494.316 702.000 L 3496.163 704.000 L 3500.000 707.618 L 3501.245 709.000 L 3504.000 711.750 L 3506.587 714.000 L 3508.000 715.539 L 3508.560 716.000 L 3510.060 717.000 L 3512.415 719.000 L 3514.966 721.000 L 3516.037 722.000 L 3517.369 723.000 L 3519.750 725.000 L 3522.000 726.443 L 3522.702 727.000 L 3524.000 728.221 L 3526.000 729.640 L 3528.000 731.282 L 3530.000 732.491 L 3531.000 733.221 L 3533.808 735.000 L 3536.423 737.000 L 3539.000 738.412 L 3541.043 740.000 L 3546.177 743.000 L 3549.000 744.377 L 3552.000 746.450 L 3555.000 747.750 L 3557.103 749.000 L 3559.317 750.000 L 3562.000 751.483 L 3565.422 753.000 L 3568.000 754.592 L 3569.000 755.051 L 3571.500 756.000 L 3574.000 757.417 L 3575.000 757.890 L 3576.000 758.243 L 3578.813 759.000 L 3580.000 759.538 L 3582.000 760.629 L 3586.396 762.000 L 3589.000 763.195 L 3591.000 763.964 L 3594.000 764.725 L 3596.000 765.041 L 3597.000 765.329 L 3598.071 766.000 L 3597.868 767.000 L 3597.000 767.393 L 3593.000 767.992 L 3592.000 768.051 Z M 2846.000 584.025 L 2840.000 584.604 L 2834.000 584.844 L 2821.000 584.882 L 2809.000 584.610 L 2802.000 583.843 L 2789.000 581.572 L 2785.000 581.092 L 2784.000 580.890 L 2782.000 580.298 L 2776.969 579.000 L 2772.583 578.000 L 2767.194 576.000 L 2761.000 574.282 L 2759.000 573.202 L 2755.740 572.000 L 2753.000 570.640 L 2750.000 569.638 L 2749.000 569.216 L 2748.000 568.630 L 2747.000 567.913 L 2746.000 567.364 L 2745.104 567.000 L 2741.919 566.000 L 2741.000 565.482 L 2738.957 564.000 L 2736.770 563.000 L 2736.000 562.517 L 2735.000 561.693 L 2734.000 561.131 L 2732.000 560.362 L 2731.309 560.000 L 2729.000 558.356 L 2727.000 557.219 L 2725.000 555.843 L 2722.066 554.000 L 2720.000 552.455 L 2719.271 552.000 L 2717.319 551.000 L 2716.034 550.000 L 2715.000 548.991 L 2714.000 548.360 L 2713.000 547.877 L 2712.000 547.179 L 2710.904 546.000 L 2710.000 545.241 L 2708.000 543.639 L 2705.685 542.000 L 2703.602 540.000 L 2700.000 536.956 L 2697.927 535.000 L 2695.650 533.000 L 2693.618 531.000 L 2692.000 529.708 L 2691.353 529.000 L 2690.612 528.000 L 2690.000 527.343 L 2688.422 526.000 L 2684.000 521.046 L 2682.078 519.000 L 2680.585 517.000 L 2679.000 515.190 L 2678.000 513.823 L 2676.319 512.000 L 2675.000 509.966 L 2670.972 505.000 L 2670.000 503.486 L 2668.141 501.000 L 2666.447 498.000 L 2664.355 495.000 L 2663.000 492.697 L 2661.788 491.000 L 2661.000 489.716 L 2660.000 487.855 L 2658.750 486.000 L 2658.000 484.661 L 2657.000 482.446 L 2655.527 480.000 L 2654.000 476.500 L 2652.212 473.000 L 2651.000 469.879 L 2649.508 467.000 L 2648.000 462.870 L 2646.454 460.000 L 2646.026 459.000 L 2645.312 456.000 L 2643.777 452.000 L 2643.000 449.674 L 2641.898 445.000 L 2640.183 440.000 L 2639.599 437.000 L 2638.943 433.000 L 2638.176 430.000 L 2637.300 427.000 L 2636.891 425.000 L 2636.422 420.000 L 2635.718 414.000 L 2634.713 407.000 L 2634.474 402.000 L 2634.008 395.000 L 2633.869 387.000 L 2633.927 382.000 L 2634.543 374.000 L 2635.300 368.000 L 2636.380 357.000 L 2637.298 351.000 L 2637.693 349.000 L 2639.000 344.300 L 2640.000 338.528 L 2640.773 336.000 L 2641.194 335.000 L 2642.000 332.525 L 2643.303 327.000 L 2645.000 322.977 L 2646.347 318.000 L 2646.755 317.000 L 2648.000 314.694 L 2649.000 311.790 L 2650.730 309.000 L 2651.135 308.000 L 2651.681 306.000 L 2652.038 305.000 L 2652.526 304.000 L 2654.000 301.617 L 2654.920 299.000 L 2655.371 298.000 L 2657.000 295.422 L 2658.500 292.000 L 2659.836 290.000 L 2660.924 288.000 L 2662.509 286.000 L 2664.000 283.095 L 2665.643 281.000 L 2667.000 278.511 L 2668.873 276.000 L 2670.000 274.232 L 2672.000 271.862 L 2673.000 270.097 L 2673.736 269.000 L 2675.000 267.417 L 2677.000 264.580 L 2679.385 262.000 L 2681.775 259.000 L 2683.620 257.000 L 2685.000 255.214 L 2687.000 253.529 L 2689.000 251.170 L 2690.250 250.000 L 2692.000 248.012 L 2694.183 246.000 L 2696.011 244.000 L 2697.000 243.108 L 2698.424 242.000 L 2700.000 240.464 L 2702.076 239.000 L 2704.198 237.000 L 2707.000 234.908 L 2710.000 232.029 L 2711.280 231.000 L 2713.000 229.955 L 2715.577 228.000 L 2717.322 227.000 L 2719.830 225.000 L 2722.000 223.647 L 2723.989 222.000 L 2726.014 221.000 L 2727.000 220.408 L 2729.000 218.931 L 2734.000 216.078 L 2736.450 215.000 L 2739.981 213.000 L 2743.000 211.697 L 2746.000 209.917 L 2750.000 208.272 L 2751.000 207.728 L 2755.312 206.000 L 2758.000 204.645 L 2760.000 203.893 L 2764.000 203.025 L 2765.000 202.637 L 2767.000 201.682 L 2768.975 201.000 L 2774.000 199.858 L 2776.000 199.157 L 2778.000 198.348 L 2779.167 198.000 L 2781.000 197.665 L 2783.000 197.453 L 2784.000 197.266 L 2789.000 196.186 L 2791.000 195.676 L 2800.000 194.312 L 2802.000 194.081 L 2806.000 193.908 L 2809.000 193.277 L 2810.000 193.173 L 2813.000 193.123 L 2818.000 192.783 L 2822.000 192.645 L 2829.000 192.658 L 2834.000 192.773 L 2837.000 192.917 L 2850.000 194.341 L 2854.000 194.659 L 2860.000 195.773 L 2864.000 196.737 L 2870.000 197.701 L 2872.000 198.246 L 2875.000 199.312 L 2878.000 200.023 L 2883.000 201.526 L 2886.875 203.000 L 2890.000 203.883 L 2891.000 204.241 L 2895.000 205.890 L 2897.000 206.577 L 2900.000 208.028 L 2905.018 210.000 L 2906.000 210.474 L 2908.591 212.000 L 2912.000 213.517 L 2914.439 215.000 L 2916.515 216.000 L 2919.632 218.000 L 2921.581 219.000 L 2924.338 221.000 L 2926.823 222.000 L 2928.000 222.769 L 2929.461 224.000 L 2930.882 225.000 L 2933.466 227.000 L 2935.058 228.000 L 2937.000 229.568 L 2939.360 231.000 L 2940.000 231.474 L 2942.000 233.074 L 2945.000 235.798 L 2947.051 237.000 L 2948.000 237.894 L 2948.953 239.000 L 2950.349 240.000 L 2951.000 240.605 L 2952.000 241.758 L 2954.000 243.302 L 2955.000 244.482 L 2957.000 246.254 L 2958.000 247.534 L 2958.491 248.000 L 2960.000 249.092 L 2961.563 251.000 L 2962.534 252.000 L 2964.000 253.742 L 2965.533 255.000 L 2966.000 255.509 L 2967.039 257.000 L 2969.000 258.951 L 2970.000 260.349 L 2971.605 262.000 L 2973.000 263.967 L 2974.888 266.000 L 2976.172 268.000 L 2976.888 269.000 L 2978.000 270.337 L 2979.061 272.000 L 2981.000 274.645 L 2982.000 276.449 L 2982.384 277.000 L 2984.000 278.875 L 2985.119 281.000 L 2987.000 283.372 L 2988.294 286.000 L 2988.973 287.000 L 2990.000 288.244 L 2990.434 289.000 L 2991.302 291.000 L 2991.873 292.000 L 2993.000 293.662 L 2994.560 297.000 L 2996.000 299.439 L 2997.056 302.000 L 2999.000 305.191 L 2999.382 306.000 L 3000.517 309.000 L 3001.975 312.000 L 3003.000 315.341 L 3005.000 320.370 L 3006.000 323.729 L 3007.297 327.000 L 3007.621 328.000 L 3008.725 332.000 L 3009.733 335.000 L 3010.152 336.000 L 3010.975 339.000 L 3012.056 346.000 L 3012.287 347.000 L 3013.491 351.000 L 3013.881 353.000 L 3014.173 355.000 L 3014.836 361.000 L 3015.125 365.000 L 3016.157 376.000 L 3016.491 381.000 L 3016.720 387.000 L 3016.686 395.000 L 3016.500 398.000 L 3016.009 403.000 L 3015.543 410.000 L 3014.862 415.000 L 3014.269 422.000 L 3013.779 425.000 L 3012.917 428.000 L 3012.449 430.000 L 3011.254 437.000 L 3009.183 444.000 L 3008.000 448.976 L 3006.708 452.000 L 3006.000 453.917 L 3005.000 458.250 L 3004.269 460.000 L 3003.223 462.000 L 3002.000 465.540 L 3000.325 469.000 L 2999.098 472.000 L 2997.254 475.000 L 2996.000 478.203 L 2994.246 481.000 L 2993.000 484.129 L 2991.180 487.000 L 2990.000 489.423 L 2988.223 492.000 L 2987.000 494.322 L 2985.000 496.890 L 2983.085 500.000 L 2981.683 502.000 L 2979.991 504.000 L 2978.284 507.000 L 2977.000 508.417 L 2975.000 511.131 L 2973.380 513.000 L 2972.000 514.878 L 2970.935 516.000 L 2970.114 517.000 L 2969.000 518.490 L 2967.000 520.457 L 2964.952 523.000 L 2963.969 524.000 L 2962.000 525.786 L 2960.054 528.000 L 2959.000 528.950 L 2956.000 531.968 L 2955.000 533.167 L 2953.000 534.769 L 2951.795 536.000 L 2948.410 539.000 L 2946.967 540.000 L 2946.000 540.791 L 2944.811 542.000 L 2943.466 543.000 L 2941.107 545.000 L 2939.641 546.000 L 2937.261 548.000 L 2935.000 549.491 L 2933.000 551.198 L 2931.000 552.430 L 2926.000 555.875 L 2923.000 557.538 L 2921.000 559.029 L 2920.000 559.619 L 2916.750 561.000 L 2914.064 563.000 L 2911.000 564.342 L 2908.435 566.000 L 2905.000 567.509 L 2903.000 568.647 L 2900.000 569.836 L 2897.000 571.509 L 2895.553 572.000 L 2893.000 572.664 L 2892.021 573.000 L 2889.900 574.000 L 2888.000 574.775 L 2884.000 575.927 L 2881.000 577.010 L 2879.000 577.623 L 2875.000 578.611 L 2870.000 580.082 L 2866.038 581.000 L 2861.000 581.900 L 2857.000 582.464 L 2854.000 583.264 L 2850.000 583.518 L 2846.000 584.025 Z M 1257.000 703.196 L 1256.000 703.632 L 1255.000 703.788 L 1254.000 703.833 L 1245.000 703.331 L 1229.000 703.391 L 1225.000 703.474 L 1218.000 703.139 L 1210.000 702.553 L 1204.000 701.765 L 1201.000 701.522 L 1194.000 700.290 L 1190.000 699.127 L 1184.528 698.000 L 1183.000 697.491 L 1181.000 696.644 L 1180.000 696.306 L 1176.000 695.393 L 1174.833 695.000 L 1173.000 694.348 L 1169.000 692.679 L 1166.860 692.000 L 1165.000 691.205 L 1162.500 690.000 L 1158.000 688.300 L 1155.981 687.000 L 1153.000 685.908 L 1152.000 685.259 L 1151.000 684.405 L 1150.347 684.000 L 1148.329 683.000 L 1147.000 681.837 L 1146.000 681.144 L 1143.000 679.861 L 1140.295 678.000 L 1138.000 676.629 L 1136.000 675.155 L 1133.843 674.000 L 1132.488 673.000 L 1131.549 672.000 L 1131.000 671.541 L 1129.000 670.474 L 1128.295 670.000 L 1126.000 668.045 L 1124.000 666.026 L 1122.575 665.000 L 1122.000 664.465 L 1121.000 663.331 L 1119.292 662.000 L 1118.000 660.518 L 1117.454 660.000 L 1116.123 659.000 L 1115.000 657.664 L 1114.336 657.000 L 1113.000 655.920 L 1112.000 654.713 L 1111.287 654.000 L 1110.000 652.971 L 1108.373 651.000 L 1107.000 649.615 L 1105.708 648.000 L 1104.000 646.125 L 1103.000 644.819 L 1101.000 642.640 L 1099.173 640.000 L 1095.445 635.000 L 1094.000 632.720 L 1092.000 630.038 L 1091.000 628.345 L 1089.208 626.000 L 1088.000 623.524 L 1086.670 622.000 L 1086.025 621.000 L 1085.000 618.792 L 1083.000 615.824 L 1082.000 613.962 L 1081.342 613.000 L 1080.000 611.314 L 1078.762 609.000 L 1078.000 607.866 L 1077.000 606.643 L 1076.637 606.000 L 1075.737 604.000 L 1073.949 602.000 L 1072.914 600.000 L 1071.371 598.000 L 1070.000 595.588 L 1068.822 594.000 L 1068.000 592.614 L 1067.000 590.655 L 1065.042 588.000 L 1064.000 585.962 L 1062.000 583.295 L 1061.000 581.234 L 1060.282 580.000 L 1059.000 578.354 L 1058.000 576.716 L 1056.763 575.000 L 1055.000 572.060 L 1053.389 570.000 L 1053.000 569.319 L 1051.960 567.000 L 1050.000 564.354 L 1049.000 562.512 L 1047.100 560.000 L 1045.992 558.000 L 1044.342 556.000 L 1043.782 555.000 L 1043.000 553.250 L 1041.000 550.513 L 1040.291 549.000 L 1039.718 548.000 L 1038.000 545.679 L 1037.000 543.917 L 1035.533 542.000 L 1035.000 541.188 L 1033.976 539.000 L 1033.289 538.000 L 1031.690 536.000 L 1030.000 533.171 L 1029.000 531.894 L 1028.532 531.000 L 1027.762 529.000 L 1027.118 528.000 L 1026.000 526.784 L 1025.434 526.000 L 1023.466 523.000 L 1022.000 520.536 L 1020.746 519.000 L 1020.073 518.000 L 1019.000 515.750 L 1017.000 512.808 L 1016.000 511.039 L 1014.484 509.000 L 1013.360 507.000 L 1011.652 505.000 L 1010.755 503.000 L 1010.137 502.000 L 1009.000 500.662 L 1007.523 498.000 L 1005.000 494.526 L 1004.000 492.786 L 1002.839 491.000 L 1001.000 487.549 L 999.728 486.000 L 999.023 485.000 L 998.000 482.821 L 996.000 480.134 L 995.000 478.372 L 993.000 475.243 L 992.000 473.355 L 990.000 470.616 L 989.000 468.882 L 987.026 466.000 L 986.000 464.224 L 984.388 462.000 L 984.000 461.338 L 983.390 460.000 L 983.000 459.380 L 981.698 458.000 L 981.000 457.036 L 980.114 455.000 L 979.402 454.000 L 978.542 453.000 L 978.000 452.145 L 977.000 449.988 L 975.000 447.466 L 974.000 445.793 L 972.008 443.000 L 971.000 440.936 L 969.609 439.000 L 969.000 438.015 L 968.000 436.014 L 966.385 434.000 L 965.000 431.402 L 963.798 430.000 L 963.078 429.000 L 962.000 426.894 L 961.000 425.208 L 959.000 422.155 L 957.360 420.000 L 957.000 419.414 L 955.856 417.000 L 954.000 414.487 L 952.642 412.000 L 951.175 410.000 L 950.023 408.000 L 948.398 406.000 L 947.000 403.487 L 945.144 401.000 L 944.000 398.700 L 943.578 398.000 L 942.000 395.845 L 939.392 392.000 L 938.000 389.208 L 936.237 387.000 L 935.000 384.560 L 933.098 382.000 L 932.000 380.076 L 930.432 378.000 L 929.000 375.185 L 927.331 373.000 L 926.923 372.000 L 926.828 371.000 L 927.149 370.000 L 928.000 369.382 L 929.000 369.219 L 931.000 369.310 L 932.000 369.115 L 933.000 368.755 L 934.000 368.500 L 939.000 367.759 L 941.000 367.260 L 942.000 366.898 L 945.000 366.074 L 950.000 365.159 L 952.000 364.519 L 954.000 363.657 L 955.000 363.311 L 958.000 362.679 L 959.000 362.393 L 963.000 360.609 L 967.000 359.136 L 968.000 358.653 L 970.703 357.000 L 973.000 355.992 L 976.409 354.000 L 978.357 353.000 L 981.000 351.142 L 983.137 350.000 L 985.487 348.000 L 988.211 346.000 L 991.000 343.500 L 992.464 342.000 L 994.670 340.000 L 996.594 338.000 L 998.949 335.000 L 1000.000 333.964 L 1000.723 333.000 L 1002.000 330.932 L 1003.366 329.000 L 1004.000 327.956 L 1005.000 325.986 L 1006.890 323.000 L 1008.208 320.000 L 1010.000 316.750 L 1010.295 316.000 L 1010.547 315.000 L 1011.121 312.000 L 1012.388 309.000 L 1012.992 307.000 L 1013.894 302.000 L 1014.935 298.000 L 1015.250 296.000 L 1015.472 293.000 L 1015.716 287.000 L 1015.708 278.000 L 1015.500 276.000 L 1014.933 273.000 L 1013.007 264.000 L 1011.634 261.000 L 1011.225 260.000 L 1010.000 256.397 L 1009.292 255.000 L 1008.000 252.931 L 1007.000 251.115 L 1004.877 248.000 L 1003.763 246.000 L 1003.000 244.859 L 1001.509 243.000 L 1000.144 241.000 L 999.223 240.000 L 996.000 236.870 L 994.000 234.735 L 989.430 231.000 L 984.000 227.279 L 982.266 226.000 L 979.000 224.602 L 976.220 223.000 L 973.763 222.000 L 970.306 221.000 L 965.000 219.325 L 961.000 218.707 L 958.000 218.120 L 957.000 218.049 L 954.000 218.065 L 947.000 217.825 L 938.000 217.890 L 934.000 217.750 L 931.000 217.902 L 927.000 217.815 L 924.000 217.861 L 923.000 217.975 L 922.000 218.250 L 921.000 218.967 L 920.527 220.000 L 920.401 221.000 L 920.493 224.000 L 920.447 227.000 L 920.535 232.000 L 920.407 236.000 L 920.480 241.000 L 920.467 358.000 L 920.607 363.000 L 920.278 367.000 L 920.684 372.000 L 920.354 377.000 L 920.547 382.000 L 920.385 386.000 L 920.513 396.000 L 920.422 402.000 L 920.507 406.000 L 920.454 410.000 L 920.468 527.000 L 920.569 530.000 L 921.074 536.000 L 921.527 538.000 L 922.697 541.000 L 923.000 542.156 L 923.460 545.000 L 924.000 547.159 L 924.325 548.000 L 924.833 549.000 L 926.000 551.019 L 927.000 554.047 L 928.787 557.000 L 930.311 560.000 L 932.181 563.000 L 933.000 564.276 L 935.000 566.882 L 936.000 568.382 L 937.000 569.511 L 938.679 571.000 L 940.298 573.000 L 941.000 573.702 L 941.338 574.000 L 944.438 576.000 L 945.305 577.000 L 945.697 578.000 L 945.569 579.000 L 945.000 579.589 L 944.233 580.000 L 943.000 580.260 L 942.000 580.348 L 940.000 580.302 L 937.000 580.047 L 933.000 580.155 L 865.000 580.120 L 847.000 580.188 L 840.000 580.010 L 839.000 579.758 L 838.190 579.000 L 838.151 578.000 L 838.500 577.000 L 839.302 576.000 L 841.000 574.838 L 841.956 574.000 L 843.000 572.750 L 844.949 571.000 L 846.000 569.633 L 848.000 567.344 L 849.741 565.000 L 851.000 563.561 L 852.076 562.000 L 853.638 560.000 L 855.000 557.384 L 856.217 556.000 L 856.779 555.000 L 857.162 554.000 L 858.000 551.109 L 860.000 546.740 L 860.525 545.000 L 861.266 541.000 L 861.535 540.000 L 862.231 538.000 L 862.733 536.000 L 863.344 530.000 L 863.469 526.000 L 863.500 502.000 L 863.494 255.000 L 863.300 247.000 L 862.892 243.000 L 862.535 241.000 L 862.264 240.000 L 861.535 238.000 L 861.069 236.000 L 860.562 233.000 L 860.038 231.000 L 858.457 228.000 L 858.024 227.000 L 857.174 224.000 L 856.767 223.000 L 856.231 222.000 L 854.896 220.000 L 853.420 217.000 L 852.000 215.239 L 850.517 213.000 L 849.000 211.185 L 848.000 209.663 L 845.000 206.170 L 843.000 204.276 L 841.802 203.000 L 840.716 202.000 L 840.000 201.466 L 837.750 200.000 L 837.115 199.000 L 837.484 198.000 L 838.000 197.663 L 839.000 197.375 L 840.000 197.301 L 843.000 197.331 L 848.000 197.604 L 853.000 197.331 L 857.000 197.533 L 863.000 197.390 L 920.000 197.457 L 933.000 197.380 L 938.000 197.444 L 968.000 197.421 L 975.000 197.486 L 983.000 197.419 L 994.000 197.558 L 997.000 197.747 L 998.955 198.000 L 1002.000 198.694 L 1006.000 199.325 L 1008.306 200.000 L 1012.310 201.000 L 1016.000 202.542 L 1019.000 203.433 L 1020.000 203.809 L 1021.000 204.298 L 1023.000 205.483 L 1027.000 207.096 L 1029.000 208.536 L 1031.000 209.692 L 1033.000 211.231 L 1035.000 212.260 L 1036.000 212.920 L 1037.271 214.000 L 1040.000 215.798 L 1042.000 217.696 L 1043.615 219.000 L 1047.793 223.000 L 1050.000 225.589 L 1052.000 227.630 L 1053.723 230.000 L 1056.000 232.345 L 1057.227 234.000 L 1058.000 235.271 L 1059.000 237.171 L 1061.146 240.000 L 1062.105 242.000 L 1063.941 245.000 L 1064.345 246.000 L 1065.000 248.100 L 1067.000 252.312 L 1068.000 255.562 L 1069.432 259.000 L 1069.706 260.000 L 1070.291 263.000 L 1070.841 265.000 L 1070.992 266.000 L 1071.225 269.000 L 1072.474 276.000 L 1072.725 278.000 L 1072.831 280.000 L 1072.815 282.000 L 1072.287 293.000 L 1071.894 296.000 L 1071.000 300.458 L 1070.462 304.000 L 1070.000 305.975 L 1068.565 310.000 L 1067.000 315.479 L 1066.371 317.000 L 1065.000 319.870 L 1064.000 322.391 L 1063.669 323.000 L 1062.000 325.458 L 1060.064 329.000 L 1058.000 332.167 L 1057.000 333.512 L 1056.000 334.640 L 1054.255 337.000 L 1053.000 338.245 L 1051.000 340.790 L 1049.705 342.000 L 1048.000 343.880 L 1046.456 345.000 L 1045.276 346.000 L 1042.000 349.191 L 1041.011 350.000 L 1039.000 351.358 L 1037.115 353.000 L 1035.523 354.000 L 1034.000 355.324 L 1033.014 356.000 L 1031.141 357.000 L 1030.000 357.850 L 1029.000 358.464 L 1026.000 359.842 L 1022.000 362.008 L 1018.000 363.647 L 1015.023 365.000 L 1013.000 365.669 L 1012.000 365.867 L 1010.000 366.107 L 1009.000 366.342 L 1008.000 366.787 L 1007.000 367.417 L 1006.000 367.763 L 1005.000 367.845 L 1003.000 367.847 L 997.000 369.116 L 995.000 369.141 L 994.000 369.500 L 993.589 370.000 L 993.606 371.000 L 994.795 373.000 L 996.000 375.420 L 998.000 377.898 L 999.000 379.833 L 1001.000 382.562 L 1002.000 384.408 L 1003.723 387.000 L 1005.000 389.244 L 1007.000 392.037 L 1008.000 393.750 L 1010.000 396.671 L 1011.000 398.551 L 1013.000 401.237 L 1014.000 402.931 L 1015.409 405.000 L 1017.000 407.929 L 1018.518 410.000 L 1019.000 410.764 L 1019.574 412.000 L 1020.000 412.670 L 1021.242 414.000 L 1021.993 415.000 L 1023.000 417.112 L 1025.000 419.789 L 1026.131 422.000 L 1028.000 424.449 L 1029.195 427.000 L 1029.868 428.000 L 1030.731 429.000 L 1031.458 430.000 L 1032.570 432.000 L 1034.000 433.986 L 1035.549 437.000 L 1037.026 439.000 L 1038.848 442.000 L 1042.364 447.000 L 1044.000 449.862 L 1046.000 452.625 L 1047.000 454.526 L 1048.152 456.000 L 1050.000 459.013 L 1051.000 460.329 L 1053.000 463.903 L 1054.588 466.000 L 1056.000 468.408 L 1057.813 471.000 L 1059.000 472.859 L 1060.578 475.000 L 1062.000 477.900 L 1064.000 480.362 L 1065.000 482.403 L 1067.000 485.434 L 1067.841 487.000 L 1069.375 489.000 L 1070.000 489.937 L 1071.000 492.039 L 1071.619 493.000 L 1073.310 495.000 L 1077.000 501.321 L 1078.992 504.000 L 1079.951 506.000 L 1081.680 508.000 L 1083.000 510.487 L 1084.853 513.000 L 1086.044 515.000 L 1087.466 517.000 L 1089.000 519.851 L 1091.000 522.797 L 1092.089 525.000 L 1092.755 526.000 L 1094.000 527.522 L 1095.560 530.000 L 1097.107 532.000 L 1098.000 533.614 L 1100.000 536.597 L 1101.225 539.000 L 1103.000 541.476 L 1106.000 545.934 L 1107.652 549.000 L 1109.219 551.000 L 1110.250 553.000 L 1110.873 554.000 L 1112.000 555.524 L 1113.000 557.256 L 1115.000 559.987 L 1116.000 562.074 L 1116.534 563.000 L 1118.083 565.000 L 1119.952 568.000 L 1121.000 569.423 L 1122.482 572.000 L 1124.000 574.208 L 1125.534 577.000 L 1127.000 578.755 L 1128.250 581.000 L 1130.000 583.237 L 1131.000 585.149 L 1132.958 588.000 L 1134.059 590.000 L 1136.000 592.812 L 1137.000 594.526 L 1138.647 597.000 L 1139.856 599.000 L 1141.377 601.000 L 1142.000 601.986 L 1143.096 604.000 L 1145.000 606.776 L 1146.936 610.000 L 1150.213 615.000 L 1152.000 617.882 L 1154.000 620.662 L 1155.325 623.000 L 1157.000 625.423 L 1158.000 627.118 L 1158.588 628.000 L 1160.000 629.641 L 1161.000 631.244 L 1163.000 633.670 L 1164.000 635.170 L 1165.625 637.000 L 1167.000 638.910 L 1169.000 641.150 L 1170.405 643.000 L 1172.000 644.721 L 1173.000 646.090 L 1174.921 648.000 L 1176.314 650.000 L 1178.000 651.464 L 1182.000 655.851 L 1184.000 657.219 L 1185.500 659.000 L 1186.000 659.483 L 1188.000 661.325 L 1190.142 663.000 L 1192.000 664.971 L 1193.230 666.000 L 1194.223 667.000 L 1196.873 669.000 L 1198.000 670.202 L 1199.129 671.000 L 1201.000 671.914 L 1202.000 672.587 L 1204.000 674.356 L 1208.000 676.971 L 1211.000 679.277 L 1212.258 680.000 L 1214.000 680.831 L 1216.888 683.000 L 1218.868 684.000 L 1222.191 686.000 L 1224.217 687.000 L 1227.000 688.509 L 1230.274 690.000 L 1233.790 692.000 L 1236.150 693.000 L 1239.000 694.619 L 1239.833 695.000 L 1244.000 696.500 L 1248.000 698.257 L 1250.972 699.000 L 1252.000 699.337 L 1253.000 699.793 L 1256.881 702.000 L 1257.306 703.000 L 1257.000 703.196 Z M 1673.000 580.183 L 1672.000 580.292 L 1670.000 580.318 L 1667.000 580.028 L 1665.000 579.953 L 1661.000 580.318 L 1660.000 580.336 L 1657.000 580.066 L 1656.000 580.047 L 1653.000 580.139 L 1462.000 580.125 L 1457.000 580.302 L 1455.000 580.153 L 1454.423 580.000 L 1454.000 579.833 L 1453.083 579.000 L 1452.965 578.000 L 1453.330 577.000 L 1454.000 576.203 L 1455.000 575.430 L 1457.202 574.000 L 1458.239 573.000 L 1459.920 571.000 L 1462.000 568.872 L 1464.000 566.267 L 1466.000 563.862 L 1467.755 561.000 L 1469.245 559.000 L 1470.972 556.000 L 1472.231 554.000 L 1473.726 550.000 L 1474.759 548.000 L 1475.169 547.000 L 1475.703 545.000 L 1476.085 543.000 L 1476.369 542.000 L 1476.682 541.000 L 1477.491 539.000 L 1477.779 538.000 L 1478.135 536.000 L 1478.627 530.000 L 1478.734 528.000 L 1478.763 262.000 L 1478.635 249.000 L 1478.487 246.000 L 1478.076 241.000 L 1477.893 240.000 L 1477.585 239.000 L 1476.491 236.000 L 1476.212 235.000 L 1475.331 231.000 L 1475.000 230.190 L 1473.864 228.000 L 1472.696 225.000 L 1472.000 223.515 L 1469.451 219.000 L 1467.783 217.000 L 1466.929 215.000 L 1466.295 214.000 L 1465.000 212.756 L 1464.500 212.000 L 1463.430 210.000 L 1463.000 209.450 L 1461.000 207.585 L 1458.847 205.000 L 1452.844 200.000 L 1452.385 199.000 L 1452.708 198.000 L 1453.000 197.786 L 1454.000 197.414 L 1455.000 197.308 L 1459.000 197.553 L 1462.000 197.335 L 1468.000 197.493 L 1473.000 197.393 L 1478.000 197.450 L 1482.000 197.382 L 1486.000 197.486 L 1490.000 197.404 L 1587.000 197.451 L 1606.000 197.393 L 1610.000 197.457 L 1629.000 197.457 L 1668.000 197.396 L 1671.000 197.479 L 1674.000 197.410 L 1675.000 197.608 L 1675.758 198.000 L 1676.000 198.197 L 1676.555 199.000 L 1676.720 200.000 L 1676.664 202.000 L 1676.791 203.000 L 1677.282 205.000 L 1677.405 209.000 L 1678.295 214.000 L 1679.063 220.000 L 1679.475 226.000 L 1680.000 231.929 L 1680.794 239.000 L 1681.725 246.000 L 1682.551 255.000 L 1682.831 259.000 L 1683.205 262.000 L 1683.439 265.000 L 1683.585 266.000 L 1684.145 268.000 L 1684.129 269.000 L 1684.000 269.300 L 1683.000 269.472 L 1681.534 268.000 L 1681.000 267.656 L 1680.000 266.593 L 1679.693 266.000 L 1678.944 264.000 L 1678.404 263.000 L 1676.974 261.000 L 1673.000 254.989 L 1671.000 252.811 L 1668.650 250.000 L 1668.000 249.350 L 1666.500 248.000 L 1664.541 246.000 L 1663.000 244.683 L 1661.000 242.558 L 1659.000 241.010 L 1658.000 240.102 L 1656.389 239.000 L 1655.000 237.736 L 1654.000 237.026 L 1651.956 236.000 L 1650.000 234.567 L 1649.078 234.000 L 1647.136 233.000 L 1644.162 231.000 L 1641.000 229.509 L 1638.224 228.000 L 1631.000 224.735 L 1627.000 223.606 L 1626.000 223.210 L 1625.000 222.702 L 1623.028 222.000 L 1618.000 220.856 L 1613.000 219.391 L 1612.000 219.188 L 1609.000 218.824 L 1606.000 218.261 L 1605.000 218.190 L 1602.000 218.152 L 1594.000 217.811 L 1586.000 217.892 L 1559.000 217.825 L 1554.000 217.890 L 1550.000 217.825 L 1545.000 217.924 L 1541.000 217.853 L 1539.000 217.730 L 1538.000 217.734 L 1537.000 217.957 L 1536.000 218.677 L 1535.769 219.000 L 1535.377 220.000 L 1535.229 221.000 L 1535.201 222.000 L 1535.314 227.000 L 1535.323 238.000 L 1535.262 345.000 L 1535.417 347.000 L 1535.689 348.000 L 1536.000 348.586 L 1536.403 349.000 L 1537.000 349.384 L 1538.000 349.592 L 1541.000 349.348 L 1545.000 349.447 L 1559.000 349.447 L 1570.000 349.191 L 1574.000 348.898 L 1579.000 348.098 L 1582.000 347.731 L 1586.000 346.961 L 1588.000 346.317 L 1590.000 345.364 L 1590.935 345.000 L 1595.000 343.746 L 1598.417 342.000 L 1600.707 341.000 L 1603.879 339.000 L 1606.276 338.000 L 1607.000 337.461 L 1608.000 336.378 L 1608.451 336.000 L 1610.300 335.000 L 1611.726 334.000 L 1617.521 329.000 L 1619.425 327.000 L 1622.000 324.479 L 1623.304 323.000 L 1627.000 318.662 L 1627.457 318.000 L 1628.492 316.000 L 1629.000 315.212 L 1630.105 314.000 L 1630.765 313.000 L 1632.000 310.183 L 1633.000 309.439 L 1634.031 310.000 L 1634.484 311.000 L 1634.719 312.000 L 1634.791 313.000 L 1634.527 317.000 L 1634.591 323.000 L 1634.547 384.000 L 1634.625 388.000 L 1634.500 391.000 L 1634.621 395.000 L 1634.546 400.000 L 1634.740 404.000 L 1634.620 407.000 L 1634.493 408.000 L 1634.235 409.000 L 1634.000 409.470 L 1633.000 410.010 L 1632.000 409.271 L 1631.193 407.000 L 1630.692 406.000 L 1629.175 404.000 L 1628.189 402.000 L 1627.551 401.000 L 1626.000 399.078 L 1624.585 397.000 L 1622.542 395.000 L 1618.877 391.000 L 1618.000 390.184 L 1616.422 389.000 L 1614.309 387.000 L 1611.988 385.000 L 1610.662 384.000 L 1608.655 383.000 L 1608.000 382.500 L 1607.000 381.443 L 1606.427 381.000 L 1606.000 380.739 L 1603.979 380.000 L 1603.000 379.500 L 1600.750 378.000 L 1594.065 375.000 L 1590.925 374.000 L 1588.000 372.873 L 1583.000 371.507 L 1581.000 371.229 L 1578.000 371.066 L 1574.000 370.509 L 1568.000 369.917 L 1562.000 369.670 L 1557.000 369.896 L 1553.000 369.824 L 1543.000 369.843 L 1541.000 369.915 L 1538.000 369.705 L 1537.000 369.934 L 1536.000 370.819 L 1535.893 371.000 L 1535.507 372.000 L 1535.327 373.000 L 1535.227 375.000 L 1535.335 385.000 L 1535.319 552.000 L 1535.262 555.000 L 1535.381 557.000 L 1535.621 558.000 L 1536.163 559.000 L 1537.000 559.598 L 1538.000 559.839 L 1541.000 559.555 L 1543.000 559.634 L 1553.000 559.623 L 1556.000 559.687 L 1586.000 559.645 L 1593.000 559.573 L 1602.000 559.227 L 1605.000 559.264 L 1606.000 559.173 L 1609.000 558.347 L 1613.000 557.888 L 1616.000 557.265 L 1625.000 554.669 L 1629.000 553.300 L 1630.000 552.896 L 1632.000 551.831 L 1634.562 551.000 L 1638.000 549.277 L 1641.000 548.008 L 1642.883 547.000 L 1646.000 545.085 L 1648.000 543.723 L 1651.000 542.160 L 1653.000 540.620 L 1655.000 539.336 L 1657.000 537.713 L 1659.000 536.245 L 1660.329 535.000 L 1662.912 533.000 L 1664.000 531.989 L 1666.000 530.394 L 1666.402 530.000 L 1668.000 528.031 L 1669.255 527.000 L 1670.000 526.210 L 1671.000 524.745 L 1673.000 522.536 L 1674.000 520.962 L 1676.000 518.237 L 1677.181 516.000 L 1678.535 514.000 L 1679.081 513.000 L 1680.000 510.950 L 1680.620 510.000 L 1681.000 509.514 L 1682.000 508.917 L 1683.000 508.816 L 1683.167 509.000 L 1683.603 510.000 L 1683.677 511.000 L 1683.625 512.000 L 1682.777 518.000 L 1682.469 524.000 L 1682.287 526.000 L 1681.560 533.000 L 1680.474 541.000 L 1679.622 550.000 L 1679.231 553.000 L 1679.007 557.000 L 1678.697 560.000 L 1676.993 573.000 L 1676.727 577.000 L 1676.508 578.000 L 1675.871 579.000 L 1675.000 579.587 L 1673.000 580.183 Z M 1931.000 580.217 L 1930.000 580.298 L 1929.000 580.265 L 1926.000 579.990 L 1921.000 580.123 L 1790.000 580.173 L 1782.000 580.120 L 1778.000 580.191 L 1773.000 580.102 L 1729.000 580.136 L 1726.000 580.194 L 1720.000 580.047 L 1714.000 580.405 L 1713.000 580.349 L 1712.000 580.125 L 1711.694 580.000 L 1711.000 579.342 L 1710.809 579.000 L 1710.893 578.000 L 1711.443 577.000 L 1712.420 576.000 L 1714.989 574.000 L 1717.265 572.000 L 1718.886 570.000 L 1720.000 568.823 L 1722.000 566.324 L 1723.173 565.000 L 1724.000 563.837 L 1725.000 561.878 L 1725.570 561.000 L 1727.000 559.145 L 1728.422 556.000 L 1729.767 554.000 L 1730.221 553.000 L 1731.000 550.717 L 1732.142 548.000 L 1733.174 545.000 L 1734.211 540.000 L 1735.543 535.000 L 1736.000 532.500 L 1736.273 530.000 L 1736.362 527.000 L 1736.375 267.000 L 1736.322 252.000 L 1736.270 249.000 L 1736.103 246.000 L 1735.698 243.000 L 1735.318 241.000 L 1734.342 238.000 L 1734.000 236.656 L 1733.396 233.000 L 1732.924 231.000 L 1731.381 228.000 L 1731.000 227.022 L 1730.468 225.000 L 1730.000 223.868 L 1728.177 221.000 L 1727.000 218.476 L 1725.000 215.938 L 1724.000 213.826 L 1723.398 213.000 L 1722.000 211.683 L 1720.669 210.000 L 1719.703 209.000 L 1718.000 206.890 L 1716.000 205.046 L 1715.000 203.873 L 1712.000 201.268 L 1710.377 200.000 L 1709.923 199.000 L 1710.074 198.000 L 1711.000 197.287 L 1712.000 197.151 L 1715.000 197.541 L 1716.000 197.590 L 1717.000 197.566 L 1719.000 197.303 L 1720.000 197.254 L 1723.000 197.513 L 1726.000 197.299 L 1730.000 197.445 L 1799.000 197.418 L 1804.000 197.517 L 1807.000 197.414 L 1811.000 197.454 L 1815.000 197.302 L 1817.000 197.457 L 1818.000 197.798 L 1818.339 198.000 L 1818.849 199.000 L 1818.533 200.000 L 1817.670 201.000 L 1816.500 202.000 L 1815.000 203.134 L 1812.000 205.969 L 1811.029 207.000 L 1809.500 209.000 L 1806.775 212.000 L 1805.000 214.500 L 1803.681 216.000 L 1803.119 217.000 L 1802.454 219.000 L 1802.000 219.983 L 1800.598 222.000 L 1800.075 223.000 L 1798.960 226.000 L 1798.466 227.000 L 1797.280 229.000 L 1797.000 229.635 L 1796.578 231.000 L 1796.000 233.794 L 1795.675 235.000 L 1794.121 240.000 L 1793.724 243.000 L 1793.469 247.000 L 1793.327 252.000 L 1793.285 265.000 L 1793.276 554.000 L 1793.454 557.000 L 1793.682 558.000 L 1794.000 558.625 L 1794.318 559.000 L 1795.000 559.479 L 1796.000 559.694 L 1799.000 559.560 L 1801.000 559.652 L 1849.000 559.675 L 1859.000 559.402 L 1863.000 559.028 L 1866.000 558.482 L 1870.000 557.960 L 1872.000 557.507 L 1874.808 557.000 L 1877.000 556.394 L 1879.000 555.598 L 1880.775 555.000 L 1885.000 553.816 L 1887.000 553.047 L 1890.000 551.705 L 1893.000 550.795 L 1894.000 550.417 L 1896.145 549.000 L 1898.515 548.000 L 1901.000 546.412 L 1903.864 545.000 L 1906.662 543.000 L 1908.529 542.000 L 1910.000 541.085 L 1911.000 540.317 L 1913.208 539.000 L 1914.000 538.441 L 1916.000 536.650 L 1918.724 535.000 L 1921.411 532.000 L 1924.000 529.971 L 1924.839 529.000 L 1926.000 527.413 L 1930.198 523.000 L 1931.000 521.964 L 1932.000 520.090 L 1932.746 519.000 L 1934.352 517.000 L 1936.204 514.000 L 1938.000 510.500 L 1939.000 509.243 L 1939.405 509.000 L 1940.000 508.479 L 1941.000 507.962 L 1941.457 509.000 L 1941.474 510.000 L 1941.127 514.000 L 1940.454 520.000 L 1940.218 527.000 L 1939.647 532.000 L 1938.700 537.000 L 1938.342 540.000 L 1937.547 549.000 L 1937.288 554.000 L 1936.405 563.000 L 1936.066 566.000 L 1935.058 573.000 L 1934.694 577.000 L 1934.440 578.000 L 1934.000 578.797 L 1933.808 579.000 L 1933.000 579.594 L 1932.000 579.972 L 1931.000 580.217 Z M 2075.000 580.120 L 2073.000 580.219 L 2068.000 580.010 L 2064.000 580.213 L 2056.000 580.085 L 2051.000 580.191 L 2045.000 580.120 L 1992.000 580.120 L 1986.000 580.231 L 1982.000 580.100 L 1978.000 580.255 L 1975.000 579.989 L 1973.000 580.114 L 1971.000 580.358 L 1970.000 580.368 L 1968.883 580.000 L 1968.375 579.000 L 1968.491 578.000 L 1968.934 577.000 L 1969.777 576.000 L 1972.482 574.000 L 1974.000 572.384 L 1975.509 571.000 L 1977.000 569.245 L 1978.236 568.000 L 1979.000 567.100 L 1980.457 565.000 L 1981.975 563.000 L 1983.000 561.322 L 1984.213 560.000 L 1984.975 559.000 L 1986.000 556.339 L 1987.611 554.000 L 1988.072 553.000 L 1989.000 550.021 L 1990.000 547.935 L 1991.130 545.000 L 1992.000 540.536 L 1993.223 536.000 L 1993.619 534.000 L 1993.992 531.000 L 1994.116 528.000 L 1994.103 259.000 L 1994.174 254.000 L 1993.842 246.000 L 1993.287 242.000 L 1991.513 234.000 L 1990.893 232.000 L 1989.442 229.000 L 1989.000 227.795 L 1988.513 226.000 L 1988.000 224.621 L 1986.427 222.000 L 1985.944 221.000 L 1985.146 219.000 L 1984.631 218.000 L 1984.000 217.038 L 1983.000 215.930 L 1981.000 213.189 L 1980.000 212.032 L 1979.000 210.649 L 1977.420 209.000 L 1976.000 207.147 L 1974.000 205.435 L 1972.972 204.000 L 1972.096 203.000 L 1969.167 201.000 L 1968.324 200.000 L 1968.147 199.000 L 1968.628 198.000 L 1969.000 197.736 L 1970.000 197.366 L 1971.000 197.215 L 1972.000 197.204 L 1975.000 197.469 L 1977.000 197.516 L 1981.000 197.297 L 1985.000 197.558 L 1991.000 197.363 L 1994.000 197.445 L 2037.000 197.445 L 2041.000 197.345 L 2045.000 197.447 L 2049.000 197.399 L 2070.000 197.479 L 2074.000 197.238 L 2075.000 197.291 L 2076.000 197.555 L 2076.662 198.000 L 2076.913 199.000 L 2076.491 200.000 L 2075.509 201.000 L 2074.270 202.000 L 2070.989 205.000 L 2070.029 206.000 L 2068.471 208.000 L 2067.000 209.520 L 2065.821 211.000 L 2063.951 213.000 L 2063.202 214.000 L 2061.000 217.419 L 2059.526 220.000 L 2058.474 222.000 L 2057.000 225.484 L 2055.381 228.000 L 2054.941 229.000 L 2054.000 233.300 L 2052.526 237.000 L 2051.840 240.000 L 2051.240 247.000 L 2051.048 253.000 L 2051.047 502.000 L 2051.088 527.000 L 2051.201 530.000 L 2051.715 536.000 L 2051.979 538.000 L 2052.189 539.000 L 2053.516 543.000 L 2054.331 546.000 L 2054.976 548.000 L 2056.492 551.000 L 2056.873 552.000 L 2057.462 554.000 L 2057.934 555.000 L 2059.223 557.000 L 2060.795 560.000 L 2064.324 565.000 L 2071.534 573.000 L 2072.640 574.000 L 2074.058 575.000 L 2075.202 576.000 L 2075.880 577.000 L 2076.300 578.000 L 2076.422 579.000 L 2076.000 579.614 L 2075.393 580.000 L 2075.000 580.120 Z M 2542.000 580.043 L 2541.000 580.344 L 2538.000 580.026 L 2537.000 580.009 L 2533.000 580.259 L 2530.000 580.082 L 2527.000 580.176 L 2524.000 580.123 L 2521.000 580.209 L 2517.000 580.102 L 2450.000 580.120 L 2446.000 580.205 L 2442.000 580.090 L 2439.000 580.233 L 2437.000 580.233 L 2436.000 580.163 L 2435.000 579.891 L 2434.081 579.000 L 2434.120 578.000 L 2434.500 577.000 L 2435.230 576.000 L 2436.000 575.369 L 2438.033 574.000 L 2439.967 572.000 L 2444.336 567.000 L 2446.270 565.000 L 2447.008 564.000 L 2448.000 562.016 L 2448.657 561.000 L 2449.521 560.000 L 2450.254 559.000 L 2451.147 557.000 L 2451.682 556.000 L 2453.093 554.000 L 2454.000 551.442 L 2455.640 548.000 L 2456.562 545.000 L 2457.000 542.719 L 2457.425 541.000 L 2458.361 538.000 L 2458.809 536.000 L 2459.479 530.000 L 2459.574 528.000 L 2459.588 503.000 L 2459.558 238.000 L 2459.617 226.000 L 2459.521 224.000 L 2459.628 221.000 L 2459.527 220.000 L 2459.000 218.880 L 2458.000 218.254 L 2457.000 218.021 L 2456.000 217.913 L 2448.000 217.828 L 2443.000 217.944 L 2437.000 218.188 L 2433.000 218.583 L 2431.000 218.910 L 2428.000 219.528 L 2425.000 219.934 L 2423.000 220.592 L 2418.000 221.779 L 2414.000 223.360 L 2409.000 224.992 L 2407.000 225.933 L 2405.000 227.046 L 2404.000 227.458 L 2401.000 228.303 L 2400.000 228.882 L 2398.471 230.000 L 2396.283 231.000 L 2394.000 232.482 L 2391.257 234.000 L 2389.000 235.713 L 2386.688 237.000 L 2386.000 237.466 L 2384.000 239.149 L 2381.145 241.000 L 2380.000 241.944 L 2378.000 244.033 L 2377.000 244.969 L 2374.580 247.000 L 2373.000 248.656 L 2372.000 249.833 L 2370.000 251.885 L 2369.000 253.098 L 2367.250 255.000 L 2366.000 257.261 L 2364.000 259.679 L 2362.000 262.988 L 2361.476 264.000 L 2360.000 267.461 L 2359.000 268.569 L 2358.000 269.093 L 2357.375 269.000 L 2357.000 268.850 L 2356.776 268.000 L 2356.759 267.000 L 2357.466 259.000 L 2357.820 256.000 L 2358.040 250.000 L 2358.723 247.000 L 2358.845 244.000 L 2358.990 243.000 L 2359.472 241.000 L 2359.588 240.000 L 2359.805 237.000 L 2360.413 232.000 L 2361.000 224.062 L 2363.218 206.000 L 2363.368 204.000 L 2363.445 201.000 L 2363.581 200.000 L 2363.890 199.000 L 2364.743 198.000 L 2365.000 197.827 L 2366.000 197.523 L 2367.000 197.457 L 2373.000 197.508 L 2379.000 197.418 L 2456.000 197.399 L 2465.000 197.486 L 2507.000 197.393 L 2519.000 197.472 L 2542.000 197.393 L 2565.000 197.457 L 2589.000 197.439 L 2593.000 197.345 L 2597.000 197.514 L 2603.000 197.368 L 2607.000 197.513 L 2610.000 197.493 L 2611.000 197.716 L 2611.458 198.000 L 2612.000 198.591 L 2612.221 199.000 L 2612.385 200.000 L 2612.406 202.000 L 2612.572 203.000 L 2613.102 205.000 L 2613.167 206.000 L 2613.008 208.000 L 2613.008 209.000 L 2613.258 211.000 L 2614.708 220.000 L 2615.136 226.000 L 2615.814 233.000 L 2617.500 247.000 L 2618.318 255.000 L 2618.914 262.000 L 2619.210 267.000 L 2619.221 268.000 L 2619.000 268.938 L 2618.000 268.875 L 2617.000 268.355 L 2616.000 267.271 L 2615.419 266.000 L 2614.647 264.000 L 2614.000 262.750 L 2612.775 261.000 L 2611.509 259.000 L 2610.000 257.266 L 2608.637 255.000 L 2606.046 252.000 L 2604.775 251.000 L 2604.000 250.240 L 2603.000 248.880 L 2601.000 246.637 L 2600.375 246.000 L 2598.948 245.000 L 2598.000 244.125 L 2597.000 242.840 L 2594.000 240.441 L 2592.000 239.009 L 2590.803 238.000 L 2588.000 236.311 L 2586.000 234.721 L 2585.000 234.136 L 2583.000 233.167 L 2579.900 231.000 L 2575.000 228.491 L 2571.479 227.000 L 2569.540 226.000 L 2567.000 224.879 L 2563.917 224.000 L 2562.000 223.270 L 2561.000 222.798 L 2558.639 222.000 L 2554.000 220.956 L 2549.000 219.445 L 2548.000 219.250 L 2545.000 218.882 L 2542.000 218.283 L 2531.000 217.844 L 2528.000 217.811 L 2520.000 217.910 L 2519.000 218.021 L 2518.000 218.282 L 2517.000 218.967 L 2516.500 220.000 L 2516.356 221.000 L 2516.352 222.000 L 2516.520 224.000 L 2516.582 226.000 L 2516.457 229.000 L 2516.555 232.000 L 2516.433 235.000 L 2516.520 239.000 L 2516.480 527.000 L 2516.589 530.000 L 2517.202 536.000 L 2517.864 539.000 L 2518.542 541.000 L 2519.580 545.000 L 2520.000 546.271 L 2522.000 550.740 L 2522.954 554.000 L 2523.434 555.000 L 2525.000 557.141 L 2526.000 559.153 L 2526.508 560.000 L 2527.956 562.000 L 2529.000 563.782 L 2534.755 571.000 L 2537.830 574.000 L 2540.000 575.417 L 2540.664 576.000 L 2541.364 577.000 L 2541.875 578.000 L 2542.228 579.000 L 2542.000 580.043 Z M 1427.000 580.219 L 1425.000 580.297 L 1420.000 580.010 L 1416.000 580.155 L 1346.000 580.139 L 1343.000 580.065 L 1339.000 580.245 L 1336.000 580.123 L 1331.000 580.202 L 1327.000 580.047 L 1325.000 580.114 L 1322.000 580.406 L 1321.000 580.131 L 1320.843 580.000 L 1320.365 579.000 L 1320.445 578.000 L 1320.892 577.000 L 1321.710 576.000 L 1324.000 573.819 L 1324.687 573.000 L 1326.000 571.134 L 1327.000 569.966 L 1328.000 568.614 L 1329.218 566.000 L 1331.080 563.000 L 1332.534 559.000 L 1333.491 557.000 L 1334.000 555.553 L 1334.488 553.000 L 1335.369 546.000 L 1335.508 544.000 L 1335.465 542.000 L 1335.282 540.000 L 1334.548 534.000 L 1334.173 532.000 L 1333.926 531.000 L 1332.000 525.523 L 1331.560 524.000 L 1330.885 521.000 L 1330.534 520.000 L 1329.588 518.000 L 1329.000 516.375 L 1328.643 515.000 L 1327.391 509.000 L 1327.000 508.065 L 1326.324 507.000 L 1325.838 506.000 L 1325.000 502.075 L 1324.639 501.000 L 1323.000 496.974 L 1321.992 492.000 L 1321.213 490.000 L 1320.267 488.000 L 1320.000 487.184 L 1319.090 483.000 L 1317.583 479.000 L 1316.705 476.000 L 1316.000 472.469 L 1315.592 471.000 L 1313.850 467.000 L 1313.000 463.281 L 1312.616 462.000 L 1311.331 459.000 L 1311.000 457.971 L 1310.309 455.000 L 1309.687 453.000 L 1308.802 451.000 L 1308.041 449.000 L 1307.000 443.675 L 1306.405 442.000 L 1305.458 440.000 L 1305.000 438.738 L 1304.000 434.500 L 1302.705 431.000 L 1301.854 428.000 L 1301.388 426.000 L 1300.508 423.000 L 1298.868 419.000 L 1298.047 415.000 L 1297.766 414.000 L 1296.055 410.000 L 1295.000 405.132 L 1293.287 401.000 L 1292.993 400.000 L 1292.110 396.000 L 1290.595 392.000 L 1290.320 391.000 L 1289.785 389.000 L 1289.000 385.156 L 1288.669 384.000 L 1287.000 380.022 L 1286.000 376.125 L 1285.615 375.000 L 1284.705 373.000 L 1283.936 371.000 L 1282.856 366.000 L 1282.509 365.000 L 1281.250 362.000 L 1280.000 356.658 L 1279.435 355.000 L 1278.580 353.000 L 1278.242 352.000 L 1277.000 346.976 L 1275.861 344.000 L 1275.000 341.395 L 1273.000 334.079 L 1272.602 333.000 L 1272.073 332.000 L 1271.250 331.000 L 1271.000 330.750 L 1270.000 330.652 L 1269.652 331.000 L 1269.000 331.896 L 1268.642 333.000 L 1267.949 337.000 L 1267.637 338.000 L 1266.658 340.000 L 1266.000 341.921 L 1265.399 345.000 L 1264.884 347.000 L 1263.000 352.071 L 1262.000 356.063 L 1260.371 360.000 L 1260.000 361.265 L 1259.193 365.000 L 1258.664 367.000 L 1258.336 368.000 L 1257.000 371.140 L 1256.717 372.000 L 1255.854 376.000 L 1255.566 377.000 L 1253.942 381.000 L 1253.654 382.000 L 1252.786 386.000 L 1251.509 389.000 L 1251.000 390.395 L 1249.992 395.000 L 1249.295 397.000 L 1248.385 399.000 L 1248.023 400.000 L 1246.944 404.000 L 1245.434 408.000 L 1244.559 411.000 L 1243.873 414.000 L 1243.179 416.000 L 1242.705 417.000 L 1242.000 419.079 L 1241.383 422.000 L 1240.873 424.000 L 1238.915 429.000 L 1237.734 434.000 L 1235.993 438.000 L 1234.913 443.000 L 1234.170 445.000 L 1233.310 447.000 L 1233.000 447.975 L 1232.047 452.000 L 1231.319 454.000 L 1229.709 459.000 L 1228.342 464.000 L 1226.816 468.000 L 1225.795 472.000 L 1224.287 476.000 L 1223.000 480.738 L 1222.585 482.000 L 1221.000 485.929 L 1219.957 491.000 L 1218.000 495.690 L 1216.742 501.000 L 1216.409 502.000 L 1215.482 504.000 L 1215.000 505.375 L 1214.547 507.000 L 1214.000 509.633 L 1213.594 511.000 L 1213.190 512.000 L 1212.664 513.000 L 1212.000 514.738 L 1211.669 516.000 L 1210.895 520.000 L 1210.588 521.000 L 1209.000 524.833 L 1208.493 527.000 L 1207.348 535.000 L 1207.231 537.000 L 1207.123 542.000 L 1207.231 544.000 L 1207.373 545.000 L 1208.000 548.136 L 1209.000 554.375 L 1209.219 555.000 L 1210.300 557.000 L 1210.722 558.000 L 1211.348 560.000 L 1211.724 561.000 L 1212.218 562.000 L 1214.831 566.000 L 1216.509 568.000 L 1217.000 568.712 L 1218.000 570.451 L 1218.417 571.000 L 1221.170 574.000 L 1223.500 576.000 L 1224.120 577.000 L 1224.451 578.000 L 1224.352 579.000 L 1224.000 579.380 L 1223.000 579.872 L 1221.000 580.114 L 1219.000 580.250 L 1213.000 580.085 L 1209.000 580.223 L 1204.000 580.066 L 1201.000 580.173 L 1197.000 580.102 L 1178.000 580.102 L 1174.000 580.250 L 1171.000 580.102 L 1166.000 580.227 L 1162.000 580.123 L 1157.000 580.284 L 1156.000 580.267 L 1154.000 580.079 L 1151.500 580.000 L 1151.000 579.900 L 1150.460 579.000 L 1151.330 577.000 L 1151.970 576.000 L 1153.000 575.270 L 1155.000 574.308 L 1155.487 574.000 L 1156.656 573.000 L 1158.000 571.594 L 1160.000 569.719 L 1161.470 568.000 L 1163.726 566.000 L 1165.000 564.489 L 1168.000 561.293 L 1169.000 560.080 L 1170.000 558.684 L 1171.647 557.000 L 1173.000 554.779 L 1174.500 553.000 L 1176.000 550.446 L 1177.064 549.000 L 1177.686 548.000 L 1179.000 545.386 L 1181.000 542.109 L 1182.000 539.891 L 1183.255 538.000 L 1184.000 536.370 L 1184.531 534.000 L 1185.000 532.442 L 1186.415 530.000 L 1186.817 529.000 L 1188.000 524.250 L 1188.750 522.000 L 1189.568 520.000 L 1190.000 518.605 L 1191.000 514.690 L 1191.634 513.000 L 1192.517 511.000 L 1193.000 509.595 L 1193.365 508.000 L 1193.821 505.000 L 1194.071 504.000 L 1195.491 501.000 L 1196.000 499.675 L 1196.404 498.000 L 1196.956 495.000 L 1197.246 494.000 L 1197.623 493.000 L 1198.623 491.000 L 1199.000 490.023 L 1200.000 485.375 L 1200.491 484.000 L 1201.360 482.000 L 1202.000 480.167 L 1202.363 479.000 L 1203.000 476.281 L 1203.640 474.000 L 1205.000 470.477 L 1206.000 466.763 L 1206.568 465.000 L 1208.093 461.000 L 1209.262 456.000 L 1211.000 451.395 L 1212.640 445.000 L 1214.000 441.139 L 1215.000 437.310 L 1215.466 436.000 L 1216.360 434.000 L 1216.697 433.000 L 1218.000 427.875 L 1218.670 426.000 L 1219.508 424.000 L 1220.000 422.475 L 1221.000 418.083 L 1221.336 417.000 L 1222.183 415.000 L 1222.895 413.000 L 1224.000 408.310 L 1225.811 404.000 L 1226.087 403.000 L 1227.000 398.690 L 1227.702 397.000 L 1228.703 395.000 L 1229.000 394.079 L 1229.870 390.000 L 1231.440 386.000 L 1233.272 379.000 L 1235.000 373.974 L 1236.331 369.000 L 1237.746 365.000 L 1238.911 360.000 L 1240.430 357.000 L 1240.815 356.000 L 1241.086 355.000 L 1242.000 350.525 L 1242.575 349.000 L 1243.491 347.000 L 1243.828 346.000 L 1245.000 340.975 L 1245.694 339.000 L 1246.527 337.000 L 1247.152 335.000 L 1248.000 331.441 L 1248.430 330.000 L 1250.000 325.816 L 1251.148 321.000 L 1251.864 319.000 L 1252.767 317.000 L 1253.136 316.000 L 1253.657 314.000 L 1254.000 312.100 L 1254.294 311.000 L 1254.640 310.000 L 1256.000 306.886 L 1256.494 305.000 L 1257.000 302.472 L 1257.422 301.000 L 1259.000 297.132 L 1260.000 292.711 L 1260.588 291.000 L 1261.440 289.000 L 1263.000 283.405 L 1264.675 279.000 L 1265.000 277.917 L 1266.000 273.614 L 1267.176 271.000 L 1267.895 269.000 L 1268.921 264.000 L 1269.212 263.000 L 1269.898 261.000 L 1270.348 260.000 L 1271.000 258.205 L 1272.000 254.548 L 1272.843 252.000 L 1274.000 249.225 L 1274.371 248.000 L 1275.000 243.978 L 1275.381 243.000 L 1276.585 241.000 L 1276.913 240.000 L 1277.480 237.000 L 1277.779 236.000 L 1278.112 235.000 L 1279.412 232.000 L 1279.746 231.000 L 1281.000 225.395 L 1281.475 224.000 L 1283.000 220.325 L 1283.331 219.000 L 1284.000 215.500 L 1284.557 214.000 L 1285.464 212.000 L 1286.000 210.425 L 1287.461 205.000 L 1288.000 203.580 L 1288.793 202.000 L 1289.000 201.683 L 1290.000 200.847 L 1291.000 200.900 L 1291.830 202.000 L 1292.000 202.341 L 1292.421 204.000 L 1293.008 208.000 L 1293.280 209.000 L 1294.553 212.000 L 1295.000 213.250 L 1295.980 218.000 L 1297.730 222.000 L 1298.021 223.000 L 1298.907 227.000 L 1300.422 231.000 L 1301.300 234.000 L 1301.799 236.000 L 1304.000 242.289 L 1305.000 246.595 L 1305.500 248.000 L 1306.457 250.000 L 1307.000 251.553 L 1308.058 257.000 L 1309.746 261.000 L 1310.000 261.763 L 1311.000 266.068 L 1312.483 270.000 L 1314.000 275.604 L 1315.377 279.000 L 1315.697 280.000 L 1316.673 284.000 L 1317.500 287.000 L 1318.176 289.000 L 1319.007 291.000 L 1320.238 296.000 L 1321.602 299.000 L 1321.976 300.000 L 1323.000 304.921 L 1324.620 309.000 L 1325.000 310.132 L 1325.583 313.000 L 1325.864 314.000 L 1327.125 316.000 L 1327.465 317.000 L 1327.910 320.000 L 1329.000 324.432 L 1329.616 326.000 L 1330.157 327.000 L 1330.585 328.000 L 1331.000 329.531 L 1331.512 332.000 L 1332.167 334.000 L 1332.693 336.000 L 1333.009 337.000 L 1334.000 339.370 L 1335.216 344.000 L 1336.049 346.000 L 1336.763 348.000 L 1338.000 353.225 L 1340.068 359.000 L 1340.363 360.000 L 1340.978 363.000 L 1341.277 364.000 L 1342.455 367.000 L 1343.000 368.763 L 1343.513 371.000 L 1344.000 372.630 L 1345.457 376.000 L 1346.000 377.575 L 1346.790 381.000 L 1347.373 383.000 L 1348.945 387.000 L 1350.000 391.690 L 1351.000 394.024 L 1351.693 396.000 L 1353.000 401.833 L 1353.408 403.000 L 1354.342 405.000 L 1354.697 406.000 L 1355.582 410.000 L 1357.028 414.000 L 1359.381 422.000 L 1361.142 427.000 L 1361.688 429.000 L 1362.270 432.000 L 1362.605 433.000 L 1363.762 435.000 L 1364.133 436.000 L 1364.750 440.000 L 1365.000 441.028 L 1365.330 442.000 L 1366.250 444.000 L 1367.000 446.023 L 1368.000 449.977 L 1370.000 455.475 L 1371.000 459.658 L 1372.259 463.000 L 1372.926 465.000 L 1374.000 469.132 L 1376.000 474.735 L 1376.558 477.000 L 1377.000 479.536 L 1377.392 481.000 L 1377.813 482.000 L 1378.377 483.000 L 1379.000 484.548 L 1379.826 488.000 L 1381.250 492.000 L 1383.000 498.457 L 1384.483 502.000 L 1384.789 503.000 L 1385.375 506.000 L 1386.000 508.500 L 1388.000 513.605 L 1389.164 519.000 L 1389.492 520.000 L 1391.000 523.413 L 1391.480 525.000 L 1392.000 527.225 L 1392.605 529.000 L 1393.922 532.000 L 1394.975 535.000 L 1396.686 538.000 L 1398.000 541.439 L 1399.658 544.000 L 1400.142 545.000 L 1400.882 547.000 L 1401.392 548.000 L 1403.000 550.125 L 1404.573 553.000 L 1406.000 554.722 L 1407.000 556.221 L 1409.000 558.511 L 1410.028 560.000 L 1410.856 561.000 L 1412.546 563.000 L 1416.000 566.763 L 1417.330 568.000 L 1420.284 571.000 L 1424.000 574.025 L 1426.967 576.000 L 1427.809 577.000 L 1428.309 578.000 L 1428.500 579.000 L 1428.000 579.825 L 1427.750 580.000 L 1427.000 580.219 Z M 2378.000 580.317 L 2377.000 580.422 L 2376.000 580.375 L 2374.000 580.116 L 2373.000 580.065 L 2370.000 580.157 L 2292.000 580.120 L 2288.000 580.194 L 2279.000 580.067 L 2276.000 580.319 L 2275.000 580.314 L 2274.000 580.198 L 2273.000 579.851 L 2272.125 579.000 L 2272.029 578.000 L 2272.295 577.000 L 2272.949 576.000 L 2275.391 574.000 L 2276.000 573.256 L 2277.000 571.733 L 2278.482 570.000 L 2279.230 569.000 L 2281.658 565.000 L 2282.146 564.000 L 2283.221 561.000 L 2284.737 558.000 L 2285.118 557.000 L 2285.681 554.000 L 2286.275 549.000 L 2286.861 545.000 L 2286.934 544.000 L 2286.875 542.000 L 2286.172 536.000 L 2285.891 534.000 L 2285.321 531.000 L 2285.000 529.531 L 2284.543 528.000 L 2283.598 526.000 L 2283.000 524.405 L 2281.820 519.000 L 2281.457 518.000 L 2280.000 514.825 L 2279.000 510.289 L 2277.658 507.000 L 2277.325 506.000 L 2276.133 501.000 L 2274.000 494.738 L 2273.000 490.725 L 2272.440 489.000 L 2270.864 485.000 L 2270.133 481.000 L 2269.865 480.000 L 2268.458 477.000 L 2268.000 475.786 L 2267.000 471.553 L 2265.259 467.000 L 2264.106 462.000 L 2262.568 458.000 L 2261.000 451.921 L 2260.353 450.000 L 2259.517 448.000 L 2259.000 446.452 L 2257.913 442.000 L 2257.568 441.000 L 2256.705 439.000 L 2256.000 437.025 L 2255.020 432.000 L 2253.605 429.000 L 2253.000 427.425 L 2252.000 422.342 L 2251.491 421.000 L 2250.491 419.000 L 2250.151 418.000 L 2249.261 414.000 L 2246.865 407.000 L 2245.435 402.000 L 2244.675 400.000 L 2244.000 397.750 L 2242.798 393.000 L 2241.000 388.375 L 2240.000 383.750 L 2239.325 382.000 L 2238.325 380.000 L 2238.000 379.114 L 2237.000 374.583 L 2235.000 368.575 L 2234.000 364.675 L 2233.430 363.000 L 2232.588 361.000 L 2231.000 355.214 L 2229.125 350.000 L 2228.000 345.357 L 2226.971 343.000 L 2226.292 341.000 L 2225.470 338.000 L 2225.000 335.321 L 2224.686 334.000 L 2224.310 333.000 L 2224.000 332.446 L 2223.632 332.000 L 2223.000 331.368 L 2222.000 331.071 L 2221.000 331.554 L 2220.153 333.000 L 2220.000 333.417 L 2219.665 335.000 L 2219.244 338.000 L 2219.000 338.886 L 2217.777 342.000 L 2215.664 349.000 L 2214.408 352.000 L 2214.000 353.159 L 2213.000 357.175 L 2211.000 362.972 L 2210.000 367.711 L 2208.205 372.000 L 2207.051 377.000 L 2205.809 380.000 L 2205.000 382.357 L 2204.577 384.000 L 2204.000 387.194 L 2203.750 388.000 L 2202.353 391.000 L 2202.000 392.025 L 2201.000 396.417 L 2200.525 398.000 L 2199.000 401.886 L 2197.648 407.000 L 2196.415 410.000 L 2196.085 411.000 L 2195.000 415.595 L 2193.536 419.000 L 2193.229 420.000 L 2192.022 425.000 L 2190.000 430.441 L 2189.620 432.000 L 2189.292 434.000 L 2189.022 435.000 L 2187.640 438.000 L 2187.266 439.000 L 2186.744 441.000 L 2186.377 443.000 L 2186.000 444.525 L 2185.500 446.000 L 2184.595 448.000 L 2184.000 449.614 L 2183.399 452.000 L 2182.508 455.000 L 2181.024 459.000 L 2180.000 463.325 L 2178.225 468.000 L 2177.000 473.028 L 2176.067 476.000 L 2174.891 479.000 L 2174.591 480.000 L 2174.000 482.763 L 2173.573 484.000 L 2172.683 486.000 L 2172.353 487.000 L 2171.531 491.000 L 2171.000 492.848 L 2169.612 496.000 L 2169.000 497.659 L 2168.000 501.325 L 2166.042 507.000 L 2164.956 512.000 L 2164.206 514.000 L 2163.319 516.000 L 2163.000 517.031 L 2162.164 521.000 L 2160.545 525.000 L 2160.000 526.853 L 2159.759 528.000 L 2159.243 532.000 L 2158.750 535.000 L 2158.602 538.000 L 2158.658 542.000 L 2158.828 545.000 L 2159.448 549.000 L 2159.774 552.000 L 2159.967 553.000 L 2160.395 554.000 L 2161.647 556.000 L 2161.946 557.000 L 2162.348 559.000 L 2162.715 560.000 L 2163.371 561.000 L 2164.170 562.000 L 2164.795 563.000 L 2166.000 565.679 L 2167.908 568.000 L 2169.192 570.000 L 2172.652 574.000 L 2174.000 575.164 L 2175.192 576.000 L 2176.202 577.000 L 2176.631 578.000 L 2176.530 579.000 L 2176.000 579.603 L 2175.324 580.000 L 2174.000 580.313 L 2173.000 580.381 L 2167.000 580.106 L 2163.000 580.191 L 2159.000 580.120 L 2114.000 580.157 L 2110.000 579.990 L 2106.000 580.245 L 2104.000 580.098 L 2103.000 579.828 L 2102.054 579.000 L 2101.986 578.000 L 2102.417 577.000 L 2103.431 576.000 L 2105.197 575.000 L 2106.663 574.000 L 2108.000 572.740 L 2110.000 571.373 L 2111.000 570.448 L 2114.000 567.276 L 2118.000 562.745 L 2119.728 561.000 L 2120.479 560.000 L 2121.090 559.000 L 2121.920 558.000 L 2123.029 557.000 L 2123.822 556.000 L 2125.175 554.000 L 2126.392 552.000 L 2127.000 551.160 L 2128.029 550.000 L 2128.658 549.000 L 2130.000 546.230 L 2131.585 544.000 L 2132.097 543.000 L 2133.000 540.274 L 2135.000 537.162 L 2135.468 536.000 L 2136.090 534.000 L 2137.578 531.000 L 2139.000 526.020 L 2140.155 523.000 L 2140.828 521.000 L 2142.000 515.786 L 2142.676 514.000 L 2143.551 512.000 L 2144.000 510.625 L 2145.000 506.750 L 2146.306 503.000 L 2147.000 500.725 L 2148.000 496.643 L 2148.602 495.000 L 2149.534 493.000 L 2150.000 491.812 L 2151.246 487.000 L 2151.609 486.000 L 2152.500 484.000 L 2152.822 483.000 L 2153.441 480.000 L 2154.000 477.844 L 2154.575 476.000 L 2156.000 472.194 L 2156.919 468.000 L 2157.676 466.000 L 2158.543 464.000 L 2159.000 462.500 L 2159.801 459.000 L 2162.313 452.000 L 2163.000 449.184 L 2163.364 448.000 L 2164.612 445.000 L 2165.000 443.825 L 2165.209 443.000 L 2165.923 439.000 L 2166.184 438.000 L 2167.861 434.000 L 2169.000 430.187 L 2170.282 427.000 L 2170.959 425.000 L 2171.622 421.000 L 2172.000 419.275 L 2172.457 418.000 L 2173.420 416.000 L 2173.811 415.000 L 2174.404 413.000 L 2175.000 410.475 L 2175.536 409.000 L 2176.405 407.000 L 2176.734 406.000 L 2177.266 404.000 L 2178.000 400.500 L 2178.432 399.000 L 2180.092 395.000 L 2180.888 391.000 L 2181.189 390.000 L 2182.608 387.000 L 2182.962 386.000 L 2184.000 381.500 L 2186.000 376.125 L 2187.000 371.833 L 2188.373 368.000 L 2189.301 365.000 L 2190.107 361.000 L 2190.422 360.000 L 2191.348 358.000 L 2191.713 357.000 L 2193.000 352.262 L 2193.442 351.000 L 2194.342 349.000 L 2195.000 347.295 L 2196.284 342.000 L 2197.917 338.000 L 2198.593 335.000 L 2199.136 333.000 L 2200.808 329.000 L 2201.088 328.000 L 2202.000 323.643 L 2202.580 322.000 L 2203.412 320.000 L 2203.725 319.000 L 2204.293 317.000 L 2205.250 313.000 L 2207.000 308.119 L 2208.000 304.386 L 2208.500 303.000 L 2209.395 301.000 L 2210.000 299.237 L 2211.000 294.575 L 2212.402 291.000 L 2212.720 290.000 L 2213.945 285.000 L 2215.466 281.000 L 2216.801 276.000 L 2218.615 271.000 L 2219.218 269.000 L 2220.000 265.656 L 2220.465 264.000 L 2222.000 260.420 L 2223.000 256.225 L 2223.465 255.000 L 2224.377 253.000 L 2225.000 251.132 L 2226.275 245.000 L 2226.634 244.000 L 2227.811 242.000 L 2228.000 241.500 L 2228.146 241.000 L 2228.616 238.000 L 2228.847 237.000 L 2229.613 235.000 L 2230.491 233.000 L 2230.811 232.000 L 2231.697 228.000 L 2232.000 227.140 L 2233.466 224.000 L 2233.766 223.000 L 2234.580 219.000 L 2235.000 217.475 L 2235.809 215.000 L 2237.082 212.000 L 2237.336 211.000 L 2238.079 207.000 L 2238.356 206.000 L 2238.708 205.000 L 2240.000 202.217 L 2240.760 201.000 L 2241.000 200.697 L 2242.000 200.303 L 2242.779 201.000 L 2243.000 201.312 L 2243.220 202.000 L 2243.613 204.000 L 2243.903 206.000 L 2244.162 207.000 L 2244.475 208.000 L 2246.000 211.604 L 2246.448 213.000 L 2247.000 215.275 L 2248.612 220.000 L 2250.105 226.000 L 2250.418 227.000 L 2252.021 231.000 L 2253.183 236.000 L 2255.000 240.275 L 2256.023 245.000 L 2256.723 247.000 L 2257.575 249.000 L 2258.000 250.342 L 2259.000 254.523 L 2260.733 259.000 L 2262.270 265.000 L 2262.588 266.000 L 2263.447 268.000 L 2264.000 269.658 L 2264.628 273.000 L 2265.000 274.475 L 2266.179 277.000 L 2266.946 279.000 L 2267.759 283.000 L 2268.000 283.848 L 2269.482 287.000 L 2269.863 288.000 L 2270.866 293.000 L 2272.474 297.000 L 2273.000 298.575 L 2273.799 302.000 L 2274.358 304.000 L 2276.148 309.000 L 2277.325 314.000 L 2279.000 318.306 L 2280.000 322.925 L 2281.438 326.000 L 2281.817 327.000 L 2282.910 332.000 L 2283.616 334.000 L 2284.454 336.000 L 2285.000 337.694 L 2285.993 342.000 L 2286.308 343.000 L 2286.675 344.000 L 2287.592 346.000 L 2288.000 347.167 L 2289.000 351.775 L 2289.447 353.000 L 2290.409 355.000 L 2291.000 356.658 L 2292.162 362.000 L 2293.754 366.000 L 2295.059 371.000 L 2296.664 375.000 L 2298.000 380.452 L 2299.402 384.000 L 2299.720 385.000 L 2301.000 390.382 L 2301.482 392.000 L 2303.064 396.000 L 2303.993 400.000 L 2304.297 401.000 L 2305.163 403.000 L 2306.000 405.206 L 2307.024 410.000 L 2308.366 413.000 L 2308.737 414.000 L 2309.007 415.000 L 2309.784 419.000 L 2310.538 421.000 L 2311.465 423.000 L 2312.000 424.794 L 2312.721 428.000 L 2313.000 428.935 L 2313.398 430.000 L 2314.360 432.000 L 2314.708 433.000 L 2315.000 434.107 L 2315.558 437.000 L 2316.000 438.676 L 2316.425 440.000 L 2317.282 442.000 L 2318.021 444.000 L 2319.008 449.000 L 2319.731 451.000 L 2321.000 454.068 L 2321.518 456.000 L 2321.860 458.000 L 2322.133 459.000 L 2322.509 460.000 L 2323.473 462.000 L 2323.828 463.000 L 2324.691 467.000 L 2325.000 468.068 L 2325.773 470.000 L 2326.272 471.000 L 2327.000 472.976 L 2328.266 478.000 L 2328.588 479.000 L 2329.398 481.000 L 2330.000 482.971 L 2331.000 487.289 L 2332.775 492.000 L 2333.923 497.000 L 2334.640 499.000 L 2335.864 502.000 L 2336.152 503.000 L 2336.770 506.000 L 2337.000 506.795 L 2338.750 511.000 L 2339.058 512.000 L 2340.000 516.357 L 2342.134 522.000 L 2342.887 525.000 L 2343.336 528.000 L 2343.664 529.000 L 2345.000 531.016 L 2346.000 533.750 L 2347.716 537.000 L 2348.000 537.687 L 2349.000 540.750 L 2349.689 542.000 L 2351.000 544.078 L 2352.358 547.000 L 2353.000 548.122 L 2354.521 550.000 L 2356.090 553.000 L 2357.000 554.163 L 2358.250 556.000 L 2360.000 557.764 L 2361.000 559.330 L 2361.549 560.000 L 2363.000 561.391 L 2364.000 562.764 L 2365.242 564.000 L 2366.000 564.910 L 2367.000 566.284 L 2369.000 567.894 L 2370.000 569.210 L 2371.000 570.144 L 2372.105 571.000 L 2375.115 574.000 L 2376.000 574.685 L 2376.542 575.000 L 2378.597 576.000 L 2379.616 577.000 L 2379.989 578.000 L 2379.926 579.000 L 2379.000 579.955 L 2378.000 580.317 Z M 2836.643 564.000 L 2843.000 563.389 L 2845.577 563.000 L 2848.000 562.300 L 2850.000 561.562 L 2851.000 561.297 L 2855.000 560.606 L 2858.000 559.795 L 2859.000 559.437 L 2862.205 558.000 L 2865.795 557.000 L 2867.000 556.526 L 2869.944 555.000 L 2873.000 553.713 L 2875.827 552.000 L 2879.000 550.922 L 2880.000 550.337 L 2882.000 548.769 L 2884.000 547.767 L 2885.000 547.085 L 2886.221 546.000 L 2887.744 545.000 L 2890.000 543.280 L 2892.011 542.000 L 2893.000 541.237 L 2897.000 537.629 L 2897.869 537.000 L 2899.587 536.000 L 2900.000 535.629 L 2901.443 534.000 L 2902.730 533.000 L 2904.000 531.675 L 2905.935 530.000 L 2907.000 528.663 L 2907.627 528.000 L 2909.000 526.848 L 2910.664 525.000 L 2912.000 523.896 L 2914.598 521.000 L 2916.065 519.000 L 2918.000 517.056 L 2919.184 515.000 L 2919.856 514.000 L 2921.000 512.760 L 2924.000 509.122 L 2924.580 508.000 L 2925.219 507.000 L 2926.272 506.000 L 2927.000 505.098 L 2928.000 502.961 L 2929.517 501.000 L 2930.000 500.250 L 2931.056 498.000 L 2932.992 495.000 L 2934.000 492.986 L 2935.895 490.000 L 2937.000 487.439 L 2938.524 485.000 L 2939.000 484.106 L 2940.737 480.000 L 2942.000 477.411 L 2943.214 474.000 L 2945.000 470.919 L 2945.396 470.000 L 2946.000 467.658 L 2946.535 466.000 L 2948.000 462.860 L 2948.574 461.000 L 2949.082 459.000 L 2950.680 455.000 L 2951.993 450.000 L 2953.482 446.000 L 2953.775 445.000 L 2954.224 443.000 L 2954.875 438.000 L 2956.425 432.000 L 2957.152 428.000 L 2957.593 425.000 L 2958.364 417.000 L 2959.412 410.000 L 2960.151 398.000 L 2960.247 392.000 L 2960.219 381.000 L 2959.958 376.000 L 2959.440 369.000 L 2959.209 367.000 L 2958.440 362.000 L 2957.633 354.000 L 2957.000 349.625 L 2955.591 344.000 L 2955.000 341.038 L 2954.146 335.000 L 2953.733 333.000 L 2952.000 328.500 L 2951.000 323.833 L 2950.300 322.000 L 2949.364 320.000 L 2949.000 318.868 L 2948.000 314.938 L 2946.000 310.370 L 2944.444 306.000 L 2942.906 303.000 L 2941.798 300.000 L 2941.353 299.000 L 2939.730 296.000 L 2938.955 294.000 L 2938.000 292.017 L 2937.000 290.309 L 2936.000 288.214 L 2934.449 286.000 L 2934.000 285.221 L 2933.000 282.958 L 2931.000 279.819 L 2930.000 277.855 L 2927.914 275.000 L 2927.000 273.191 L 2926.254 272.000 L 2924.546 270.000 L 2923.360 268.000 L 2922.000 266.365 L 2921.000 264.967 L 2919.161 263.000 L 2918.000 261.202 L 2916.000 259.050 L 2915.000 257.582 L 2911.000 253.106 L 2907.114 249.000 L 2906.000 247.615 L 2905.398 247.000 L 2903.000 245.074 L 2902.000 243.910 L 2900.000 242.245 L 2898.722 241.000 L 2897.488 240.000 L 2896.000 238.991 L 2893.779 237.000 L 2889.744 234.000 L 2888.216 233.000 L 2885.695 231.000 L 2883.986 230.000 L 2882.000 228.693 L 2880.000 227.636 L 2877.000 225.755 L 2872.000 223.543 L 2869.328 222.000 L 2865.000 220.336 L 2862.000 218.929 L 2861.000 218.555 L 2857.000 217.402 L 2855.000 216.543 L 2854.000 216.254 L 2850.000 215.575 L 2846.000 214.720 L 2839.000 213.528 L 2836.000 213.118 L 2829.000 212.719 L 2823.000 212.596 L 2820.000 212.664 L 2816.000 212.992 L 2813.000 213.482 L 2809.000 213.882 L 2806.000 214.612 L 2799.000 215.799 L 2796.000 216.555 L 2792.023 218.000 L 2790.000 218.644 L 2786.000 220.125 L 2783.000 221.393 L 2781.000 222.056 L 2777.641 224.000 L 2775.000 225.149 L 2772.044 227.000 L 2770.000 228.026 L 2767.000 229.974 L 2764.882 231.000 L 2764.000 231.657 L 2762.513 233.000 L 2760.756 234.000 L 2760.000 234.527 L 2759.000 235.500 L 2758.000 236.302 L 2756.965 237.000 L 2755.000 238.760 L 2753.226 240.000 L 2752.000 240.972 L 2749.690 243.000 L 2747.875 245.000 L 2745.480 247.000 L 2743.000 249.867 L 2736.915 256.000 L 2735.000 258.456 L 2733.000 260.709 L 2732.000 262.198 L 2731.349 263.000 L 2730.000 264.433 L 2727.952 267.000 L 2726.104 270.000 L 2724.546 272.000 L 2724.000 272.868 L 2722.868 275.000 L 2721.000 277.697 L 2720.000 279.500 L 2718.192 282.000 L 2717.655 283.000 L 2716.831 285.000 L 2716.277 286.000 L 2714.904 288.000 L 2714.000 290.274 L 2712.000 293.534 L 2711.000 296.362 L 2709.000 299.828 L 2708.000 302.672 L 2706.202 306.000 L 2705.000 309.673 L 2704.342 311.000 L 2703.693 312.000 L 2703.000 313.643 L 2702.000 318.237 L 2701.405 320.000 L 2700.000 323.109 L 2699.525 325.000 L 2699.047 328.000 L 2698.811 329.000 L 2697.413 333.000 L 2696.528 336.000 L 2695.763 340.000 L 2694.518 345.000 L 2693.923 348.000 L 2692.746 358.000 L 2692.227 361.000 L 2691.518 366.000 L 2690.993 371.000 L 2690.717 376.000 L 2690.576 383.000 L 2690.635 398.000 L 2690.904 408.000 L 2691.040 410.000 L 2691.545 413.000 L 2692.348 417.000 L 2693.204 425.000 L 2694.000 430.550 L 2695.766 438.000 L 2696.721 443.000 L 2699.000 450.676 L 2699.619 453.000 L 2700.246 456.000 L 2700.526 457.000 L 2702.000 460.295 L 2703.000 464.604 L 2703.634 466.000 L 2705.000 468.278 L 2706.102 472.000 L 2706.525 473.000 L 2708.196 476.000 L 2709.720 480.000 L 2711.000 482.087 L 2712.377 485.000 L 2714.000 487.758 L 2715.000 490.347 L 2715.367 491.000 L 2717.000 493.338 L 2718.331 496.000 L 2720.440 499.000 L 2722.000 501.814 L 2723.000 503.311 L 2724.000 505.354 L 2726.000 507.920 L 2726.720 509.000 L 2728.549 511.000 L 2729.000 511.640 L 2730.000 513.398 L 2730.449 514.000 L 2732.000 515.689 L 2733.000 517.074 L 2733.777 518.000 L 2735.000 519.219 L 2737.000 521.852 L 2738.288 523.000 L 2740.838 526.000 L 2742.965 528.000 L 2744.830 530.000 L 2746.034 531.000 L 2748.000 533.034 L 2749.000 533.948 L 2755.013 539.000 L 2758.716 542.000 L 2761.000 543.700 L 2763.177 545.000 L 2765.924 547.000 L 2768.000 548.260 L 2771.000 550.427 L 2772.100 551.000 L 2774.672 552.000 L 2776.000 552.702 L 2778.000 553.950 L 2779.000 554.440 L 2782.000 555.509 L 2784.000 556.725 L 2784.611 557.000 L 2788.000 557.922 L 2791.000 559.361 L 2792.917 560.000 L 2798.000 560.920 L 2803.000 562.454 L 2805.000 562.871 L 2809.000 563.532 L 2813.000 563.770 L 2816.000 564.114 L 2820.000 564.440 L 2824.000 564.560 L 2830.000 564.543 L 2836.643 564.000 Z"/>
</svg>
