<svg xmlns="http://www.w3.org/2000/svg" viewBox="768.000 903.000 179.000 192.000">
  <path d="M 942.065 1090.670 C 940.871 1092.030, 934.112 1088.535, 930.095 1087.346 C 926.078 1086.158, 922.095 1084.445, 917.961 1083.541 C 913.826 1082.637, 909.489 1082.603, 905.289 1081.921 C 901.088 1081.239, 896.896 1080.440, 892.758 1079.452 C 888.620 1078.463, 884.525 1077.260, 880.462 1075.991 C 876.400 1074.721, 872.371 1073.321, 868.383 1071.832 C 864.395 1070.344, 860.412 1068.808, 856.534 1067.060 C 852.656 1065.312, 848.807 1063.448, 845.113 1061.346 C 841.418 1059.244, 837.815 1056.933, 834.366 1054.448 C 830.918 1051.963, 827.591 1049.271, 824.422 1046.436 C 821.254 1043.602, 818.212 1040.591, 815.356 1037.443 C 812.500 1034.295, 809.803 1030.972, 807.284 1027.547 C 804.765 1024.122, 802.422 1020.544, 800.243 1016.892 C 798.064 1013.240, 796.063 1009.464, 794.208 1005.636 C 792.354 1001.807, 790.671 997.883, 789.115 993.922 C 787.559 989.962, 786.162 985.929, 784.874 981.873 C 783.586 977.817, 782.442 973.708, 781.385 969.584 C 780.329 965.461, 779.401 961.300, 778.534 957.132 C 777.666 952.963, 776.908 948.770, 776.181 944.575 C 775.453 940.379, 774.807 936.169, 774.169 931.958 C 773.531 927.748, 772.419 923.358, 772.353 919.312 C 772.287 915.266, 771.593 908.772, 773.771 907.683 C 775.950 906.593, 781.604 910.928, 785.426 912.776 C 789.248 914.624, 793.008 916.660, 796.704 918.771 C 800.400 920.882, 804.014 923.145, 807.599 925.441 C 811.185 927.737, 814.719 930.118, 818.218 932.545 C 821.716 934.972, 825.169 937.467, 828.590 940.003 C 832.011 942.538, 835.400 945.120, 838.743 947.758 C 842.085 950.396, 845.394 953.080, 848.646 955.829 C 851.897 958.579, 855.108 961.381, 858.251 964.253 C 861.394 967.125, 864.488 970.056, 867.504 973.061 C 870.520 976.066, 873.474 979.139, 876.345 982.282 C 879.216 985.425, 882.007 988.647, 884.729 991.921 C 887.451 995.194, 890.096 998.536, 892.677 1001.923 C 895.257 1005.309, 897.767 1008.753, 900.212 1012.239 C 902.658 1015.724, 905.033 1019.262, 907.349 1022.835 C 909.665 1026.407, 911.918 1030.025, 914.108 1033.676 C 916.299 1037.327, 918.447 1041.008, 920.493 1044.741 C 922.539 1048.475, 924.524 1052.248, 926.383 1056.077 C 928.241 1059.907, 929.832 1063.866, 931.644 1067.718 C 933.456 1071.570, 935.517 1075.362, 937.254 1079.188 C 938.991 1083.013, 943.258 1089.311, 942.065 1090.670 Z" fill="#dca234"/>
</svg>
