<svg xmlns="http://www.w3.org/2000/svg" viewBox="1266.000 841.000 247.000 194.000">
  <path d="M 1284.434 1031.361 C 1280.018 1031.352, 1272.346 1032.137, 1271.314 1030.176 C 1270.281 1028.215, 1275.671 1023.093, 1278.238 1019.595 C 1280.805 1016.097, 1283.970 1012.718, 1286.716 1009.187 C 1289.463 1005.656, 1292.128 1002.057, 1294.717 998.409 C 1297.306 994.761, 1299.789 991.034, 1302.250 987.298 C 1304.712 983.562, 1307.089 979.769, 1309.489 975.993 C 1311.890 972.216, 1314.231 968.401, 1316.654 964.640 C 1319.077 960.878, 1321.489 957.106, 1324.027 953.422 C 1326.565 949.738, 1329.159 946.085, 1331.882 942.537 C 1334.604 938.989, 1337.432 935.512, 1340.361 932.132 C 1343.291 928.753, 1346.325 925.453, 1349.457 922.262 C 1352.590 919.070, 1355.829 915.971, 1359.156 912.984 C 1362.484 909.996, 1365.917 907.114, 1369.421 904.334 C 1372.925 901.555, 1376.522 898.882, 1380.179 896.308 C 1383.837 893.734, 1387.576 891.265, 1391.366 888.890 C 1395.156 886.515, 1399.017 884.242, 1402.921 882.058 C 1406.825 879.874, 1410.788 877.788, 1414.790 875.788 C 1418.791 873.788, 1422.842 871.877, 1426.929 870.058 C 1431.016 868.239, 1435.146 866.507, 1439.311 864.874 C 1443.476 863.241, 1447.682 861.703, 1451.917 860.261 C 1456.151 858.819, 1460.432 857.506, 1464.719 856.223 C 1469.005 854.940, 1473.326 853.772, 1477.634 852.562 C 1481.942 851.352, 1486.254 850.151, 1490.567 848.962 C 1494.880 847.773, 1500.739 844.390, 1503.511 845.429 C 1506.284 846.467, 1507.102 851.387, 1507.203 855.191 C 1507.304 858.996, 1505.268 863.932, 1504.116 868.254 C 1502.965 872.576, 1501.673 876.866, 1500.294 881.122 C 1498.915 885.377, 1497.439 889.607, 1495.842 893.785 C 1494.246 897.963, 1492.545 902.109, 1490.716 906.190 C 1488.886 910.271, 1486.941 914.310, 1484.864 918.270 C 1482.787 922.230, 1480.582 926.134, 1478.253 929.951 C 1475.925 933.769, 1473.463 937.516, 1470.893 941.175 C 1468.323 944.835, 1465.627 948.417, 1462.831 951.907 C 1460.034 955.396, 1457.129 958.811, 1454.115 962.114 C 1451.101 965.417, 1447.983 968.642, 1444.745 971.725 C 1441.508 974.808, 1438.151 977.785, 1434.688 980.612 C 1431.225 983.439, 1427.638 986.133, 1423.968 988.687 C 1420.299 991.241, 1416.518 993.654, 1412.672 995.935 C 1408.826 998.216, 1404.885 1000.354, 1400.894 1002.372 C 1396.903 1004.389, 1392.834 1006.268, 1388.728 1008.041 C 1384.622 1009.814, 1380.453 1011.458, 1376.258 1013.009 C 1372.062 1014.559, 1367.821 1016.001, 1363.555 1017.346 C 1359.288 1018.692, 1354.986 1019.936, 1350.661 1021.081 C 1346.337 1022.226, 1341.981 1023.271, 1337.609 1024.216 C 1333.237 1025.162, 1328.837 1026.002, 1324.428 1026.754 C 1320.018 1027.507, 1315.587 1028.152, 1311.151 1028.732 C 1306.714 1029.312, 1302.263 1029.795, 1297.811 1030.233 C 1293.358 1030.672, 1288.850 1031.371, 1284.434 1031.361 Z" fill="#dca234"/>
</svg>
