<svg xmlns="http://www.w3.org/2000/svg" viewBox="1097.000 904.000 178.000 192.000">
  <path d="M 1102.062 1091.460 C 1100.853 1090.277, 1104.935 1084.049, 1106.646 1080.280 C 1108.357 1076.512, 1110.423 1072.654, 1112.327 1068.848 C 1114.230 1065.043, 1116.126 1061.233, 1118.068 1057.447 C 1120.010 1053.661, 1121.960 1049.878, 1123.980 1046.133 C 1126.000 1042.388, 1128.053 1038.659, 1130.185 1034.978 C 1132.318 1031.296, 1134.510 1027.646, 1136.775 1024.045 C 1139.039 1020.444, 1141.369 1016.879, 1143.772 1013.369 C 1146.174 1009.858, 1148.644 1006.389, 1151.190 1002.981 C 1153.736 999.573, 1156.352 996.212, 1159.048 992.922 C 1161.743 989.631, 1164.515 986.397, 1167.365 983.239 C 1170.215 980.082, 1173.154 976.999, 1176.149 973.978 C 1179.144 970.957, 1182.220 968.012, 1185.334 965.114 C 1188.448 962.215, 1191.619 959.374, 1194.833 956.587 C 1198.048 953.801, 1201.303 951.056, 1204.621 948.393 C 1207.939 945.731, 1211.308 943.126, 1214.740 940.613 C 1218.172 938.100, 1221.685 935.693, 1225.213 933.315 C 1228.741 930.938, 1232.330 928.649, 1235.908 926.346 C 1239.487 924.044, 1242.995 921.608, 1246.683 919.501 C 1250.371 917.393, 1254.229 915.573, 1258.034 913.700 C 1261.839 911.828, 1267.324 907.226, 1269.513 908.263 C 1271.702 909.300, 1271.095 915.862, 1271.168 919.924 C 1271.241 923.985, 1270.418 928.402, 1269.950 932.631 C 1269.481 936.860, 1269.007 941.093, 1268.355 945.295 C 1267.704 949.498, 1266.944 953.692, 1266.042 957.847 C 1265.139 962.003, 1264.093 966.135, 1262.943 970.229 C 1261.792 974.323, 1260.512 978.388, 1259.139 982.413 C 1257.766 986.439, 1256.304 990.442, 1254.704 994.382 C 1253.105 998.322, 1251.406 1002.234, 1249.542 1006.054 C 1247.677 1009.875, 1245.687 1013.651, 1243.517 1017.305 C 1241.348 1020.959, 1239.027 1024.546, 1236.525 1027.979 C 1234.022 1031.412, 1231.346 1034.746, 1228.504 1037.903 C 1225.663 1041.060, 1222.632 1044.077, 1219.477 1046.921 C 1216.322 1049.765, 1213.006 1052.465, 1209.575 1054.969 C 1206.143 1057.472, 1202.566 1059.815, 1198.889 1061.940 C 1195.212 1064.066, 1191.386 1065.973, 1187.513 1067.721 C 1183.640 1069.469, 1179.654 1070.996, 1175.651 1072.428 C 1171.648 1073.861, 1167.583 1075.150, 1163.494 1076.316 C 1159.405 1077.483, 1155.273 1078.538, 1151.116 1079.429 C 1146.959 1080.321, 1142.756 1081.031, 1138.551 1081.665 C 1134.345 1082.300, 1129.992 1082.286, 1125.884 1083.238 C 1121.775 1084.190, 1117.871 1086.007, 1113.901 1087.377 C 1109.931 1088.748, 1103.271 1092.643, 1102.062 1091.460 Z" fill="#dca234"/>
</svg>
