<?xml version="1.0" encoding="UTF-8"?>
<svg xmlns="http://www.w3.org/2000/svg" version="1.2" baseProfile="tiny-ps" viewBox="0 0 500 500" width="500" height="500" shape-rendering="geometricPrecision">
  <path d="M 237.749 281.892 Q 237.718 282.484 236.918 282.492 Q 236.117 282.500 235.317 282.500 Q 234.516 282.500 233.716 282.500 Q 232.915 282.500 232.114 282.500 Q 231.314 282.500 230.513 282.500 Q 229.713 282.500 228.912 282.500 Q 228.112 282.500 227.311 282.500 Q 226.511 282.500 225.710 282.500 Q 224.910 282.500 224.109 282.500 Q 223.309 282.500 222.508 282.500 Q 221.707 282.500 220.907 282.500 Q 220.106 282.500 219.306 282.500 Q 218.505 282.500 217.705 282.500 Q 216.904 282.500 216.104 282.500 Q 215.303 282.500 214.503 282.500 Q 213.702 282.500 212.902 282.500 Q 212.101 282.500 211.300 282.500 Q 210.500 282.500 209.699 282.500 Q 208.899 282.500 208.098 282.500 Q 207.298 282.500 206.497 282.500 Q 205.697 282.500 204.896 282.500 Q 204.096 282.500 203.295 282.500 Q 202.495 282.500 201.694 282.500 Q 200.894 282.500 200.093 282.500 Q 199.292 282.500 198.492 282.500 Q 197.691 282.500 196.891 282.500 Q 196.090 282.500 195.290 282.500 Q 194.489 282.500 193.689 282.500 Q 192.888 282.500 192.088 282.500 Q 191.287 282.500 190.487 282.500 Q 189.686 282.500 188.885 282.500 Q 188.085 282.500 187.284 282.500 Q 186.484 282.500 185.683 282.500 Q 184.883 282.500 184.082 282.500 Q 183.282 282.500 182.481 282.500 Q 181.681 282.500 180.880 282.500 Q 180.080 282.500 179.279 282.500 Q 178.478 282.500 177.678 282.500 Q 176.877 282.500 176.077 282.500 Q 175.276 282.500 174.476 282.500 Q 173.675 282.500 172.875 282.500 Q 172.074 282.500 171.274 282.500 Q 170.473 282.500 169.673 282.500 Q 168.872 282.500 168.071 282.500 Q 167.271 282.500 166.470 282.500 Q 165.670 282.500 164.869 282.500 Q 164.069 282.500 163.272 282.449 Q 162.475 282.398 162.339 281.858 Q 162.203 281.317 162.764 280.746 Q 163.325 280.175 163.891 279.609 Q 164.457 279.043 165.040 278.496 Q 165.623 277.949 166.339 277.600 Q 167.054 277.251 167.664 276.739 Q 168.273 276.226 168.780 275.611 Q 169.287 274.997 169.636 274.281 Q 169.984 273.565 170.537 272.987 Q 171.090 272.410 171.620 271.814 Q 172.150 271.218 172.494 270.499 Q 172.837 269.780 173.195 269.067 Q 173.552 268.354 173.936 267.653 Q 174.319 266.952 174.657 266.230 Q 174.995 265.508 175.333 264.786 Q 175.672 264.064 176.030 263.355 Q 176.389 262.645 176.537 261.860 Q 176.686 261.076 177.035 260.361 Q 177.384 259.647 177.449 258.850 Q 177.514 258.054 177.745 257.300 Q 177.975 256.546 178.225 255.798 Q 178.474 255.050 178.487 254.250 Q 178.500 253.450 178.500 252.649 Q 178.500 251.849 178.500 251.048 Q 178.500 250.248 178.500 249.447 Q 178.500 248.646 178.500 247.846 Q 178.500 247.045 178.500 246.245 Q 178.500 245.444 178.500 244.644 Q 178.500 243.843 178.500 243.043 Q 178.500 242.242 178.500 241.442 Q 178.500 240.641 178.500 239.841 Q 178.500 239.040 178.500 238.239 Q 178.500 237.439 178.500 236.638 Q 178.500 235.838 178.500 235.037 Q 178.500 234.237 178.500 233.436 Q 178.500 232.636 178.500 231.835 Q 178.500 231.035 178.500 230.234 Q 178.500 229.434 178.500 228.633 Q 178.500 227.832 178.500 227.032 Q 178.500 226.231 178.500 225.431 Q 178.500 224.630 178.500 223.830 Q 178.500 223.029 178.500 222.229 Q 178.500 221.428 178.500 220.628 Q 178.500 219.827 178.500 219.027 Q 178.500 218.226 178.500 217.425 Q 178.500 216.625 178.500 215.824 Q 178.500 215.024 178.500 214.223 Q 178.500 213.423 178.500 212.622 Q 178.500 211.822 178.500 211.021 Q 178.500 210.221 178.500 209.420 Q 178.500 208.620 178.500 207.819 Q 178.500 207.018 178.500 206.218 Q 178.500 205.417 178.500 204.617 Q 178.500 203.816 178.500 203.016 Q 178.500 202.215 178.500 201.415 Q 178.500 200.614 178.500 199.814 Q 178.500 199.013 178.500 198.213 Q 178.500 197.412 178.500 196.611 Q 178.500 195.811 178.500 195.010 Q 178.500 194.210 178.500 193.409 Q 178.500 192.609 178.500 191.808 Q 178.500 191.008 178.500 190.207 Q 178.500 189.407 178.500 188.606 Q 178.500 187.806 178.500 187.005 Q 178.500 186.204 178.500 185.404 Q 178.500 184.603 178.500 183.803 Q 178.500 183.002 178.500 182.202 Q 178.500 181.401 178.500 180.601 Q 178.500 179.800 178.500 179.000 Q 178.500 178.199 178.500 177.399 Q 178.500 176.598 178.500 175.797 Q 178.500 174.997 178.500 174.196 Q 178.500 173.396 178.500 172.595 Q 178.500 171.795 178.500 170.994 Q 178.500 170.194 178.500 169.393 Q 178.500 168.593 178.500 167.792 Q 178.500 166.992 178.500 166.191 Q 178.500 165.390 178.500 164.590 Q 178.500 163.789 178.500 162.989 Q 178.500 162.188 178.500 161.388 Q 178.500 160.587 178.500 159.787 Q 178.500 158.986 178.500 158.186 Q 178.500 157.385 178.500 156.585 Q 178.500 155.784 178.500 154.984 Q 178.500 154.183 178.500 153.382 Q 178.500 152.582 178.500 151.781 Q 178.500 150.981 178.500 150.180 Q 178.500 149.380 178.500 148.579 Q 178.500 147.779 178.500 146.978 Q 178.500 146.178 178.500 145.377 Q 178.500 144.577 178.500 143.776 Q 178.500 142.975 178.500 142.175 Q 178.500 141.374 178.500 140.574 Q 178.500 139.773 178.500 138.973 Q 178.500 138.172 178.500 137.372 Q 178.500 136.571 178.500 135.771 Q 178.500 134.970 178.500 134.170 Q 178.500 133.369 178.500 132.568 Q 178.500 131.768 178.500 130.967 Q 178.500 130.167 178.500 129.366 Q 178.500 128.566 178.500 127.765 Q 178.500 126.965 178.500 126.164 Q 178.500 125.364 178.500 124.563 Q 178.500 123.763 178.500 122.962 Q 178.500 122.161 178.500 121.361 Q 178.500 120.560 178.500 119.760 Q 178.500 118.959 178.500 118.159 Q 178.500 117.358 178.500 116.558 Q 178.500 115.757 178.500 114.957 Q 178.500 114.156 178.500 113.356 Q 178.500 112.555 178.500 111.754 Q 178.500 110.954 178.500 110.153 Q 178.500 109.353 178.500 108.552 Q 178.500 107.752 178.500 106.951 Q 178.500 106.151 178.500 105.350 Q 178.500 104.550 178.500 103.749 Q 178.500 102.949 178.500 102.148 Q 178.500 101.347 178.500 100.547 Q 178.500 99.746 178.500 98.946 Q 178.500 98.145 178.500 97.345 Q 178.500 96.544 178.500 95.744 Q 178.500 94.943 178.500 94.143 Q 178.500 93.342 178.500 92.542 Q 178.500 91.741 178.500 90.940 Q 178.500 90.140 178.500 89.339 Q 178.500 88.539 178.500 87.738 Q 178.500 86.938 178.500 86.137 Q 178.500 85.337 178.500 84.536 Q 178.500 83.736 178.500 82.935 Q 178.500 82.135 178.500 81.334 Q 178.500 80.533 178.500 79.733 Q 178.500 78.932 178.500 78.132 Q 178.500 77.331 178.500 76.531 Q 178.500 75.730 178.500 74.930 Q 178.500 74.129 178.500 73.329 Q 178.500 72.528 178.500 71.728 Q 178.500 70.927 178.500 70.126 Q 178.500 69.326 178.500 68.525 Q 178.500 67.725 178.500 66.924 Q 178.500 66.124 178.500 65.323 Q 178.500 64.523 178.500 63.722 Q 178.500 62.922 178.500 62.121 Q 178.500 61.321 178.500 60.520 Q 178.500 59.719 178.500 58.919 Q 178.500 58.118 178.500 57.318 Q 178.500 56.517 178.500 55.717 Q 178.500 54.916 178.500 54.116 Q 178.500 53.315 178.498 52.515 Q 178.495 51.714 178.418 50.920 Q 178.340 50.126 177.983 49.415 Q 177.625 48.703 177.556 47.907 Q 177.488 47.111 177.270 46.353 Q 177.052 45.596 176.713 44.874 Q 176.375 44.152 176.002 43.447 Q 175.628 42.743 175.492 41.954 Q 175.356 41.165 174.975 40.463 Q 174.593 39.760 174.218 39.062 Q 173.842 38.364 173.325 37.757 Q 172.808 37.150 172.459 36.434 Q 172.111 35.718 171.574 35.128 Q 171.037 34.537 170.491 33.954 Q 169.944 33.371 169.596 32.655 Q 169.247 31.939 168.734 31.330 Q 168.220 30.721 167.605 30.215 Q 166.990 29.709 166.274 29.360 Q 165.559 29.012 164.981 28.458 Q 164.404 27.904 163.808 27.375 Q 163.211 26.846 162.495 26.497 Q 161.779 26.148 161.184 25.618 Q 160.588 25.087 160.292 24.459 Q 159.996 23.832 160.754 23.670 Q 161.511 23.508 162.311 23.504 Q 163.112 23.500 163.912 23.500 Q 164.713 23.500 165.514 23.500 Q 166.314 23.500 167.115 23.500 Q 167.915 23.500 168.716 23.500 Q 169.516 23.500 170.317 23.500 Q 171.117 23.500 171.918 23.500 Q 172.718 23.500 173.519 23.500 Q 174.319 23.500 175.120 23.500 Q 175.921 23.500 176.721 23.500 Q 177.522 23.500 178.322 23.500 Q 179.123 23.500 179.923 23.500 Q 180.724 23.500 181.524 23.500 Q 182.325 23.500 183.125 23.500 Q 183.926 23.500 184.726 23.500 Q 185.527 23.500 186.328 23.500 Q 187.128 23.500 187.929 23.500 Q 188.729 23.500 189.530 23.500 Q 190.330 23.500 191.131 23.500 Q 191.931 23.500 192.732 23.500 Q 193.532 23.500 194.333 23.500 Q 195.133 23.500 195.934 23.500 Q 196.735 23.500 197.535 23.500 Q 198.336 23.500 199.136 23.500 Q 199.937 23.500 200.737 23.500 Q 201.538 23.500 202.338 23.500 Q 203.139 23.500 203.939 23.500 Q 204.740 23.500 205.540 23.500 Q 206.341 23.500 207.141 23.500 Q 207.942 23.500 208.743 23.500 Q 209.543 23.500 210.344 23.500 Q 211.144 23.500 211.945 23.500 Q 212.745 23.500 213.546 23.500 Q 214.346 23.500 215.147 23.500 Q 215.947 23.500 216.748 23.500 Q 217.548 23.500 218.349 23.500 Q 219.150 23.500 219.950 23.500 Q 220.751 23.500 221.551 23.500 Q 222.352 23.500 223.152 23.500 Q 223.953 23.500 224.753 23.500 Q 225.554 23.500 226.354 23.500 Q 227.155 23.500 227.955 23.500 Q 228.756 23.500 229.557 23.500 Q 230.357 23.500 231.158 23.500 Q 231.958 23.500 232.759 23.500 Q 233.559 23.500 234.360 23.500 Q 235.160 23.500 235.961 23.500 Q 236.761 23.500 237.562 23.500 Q 238.362 23.500 239.163 23.500 Q 239.964 23.500 240.764 23.500 Q 241.565 23.500 242.365 23.500 Q 243.166 23.500 243.966 23.500 Q 244.767 23.500 245.567 23.500 Q 246.368 23.500 247.168 23.500 Q 247.969 23.500 248.769 23.500 Q 249.570 23.500 250.371 23.500 Q 251.171 23.500 251.972 23.500 Q 252.772 23.500 253.573 23.500 Q 254.373 23.500 255.174 23.500 Q 255.974 23.500 256.771 23.553 Q 257.569 23.605 258.288 23.940 Q 259.007 24.275 259.793 24.384 Q 260.578 24.493 261.379 24.497 Q 262.179 24.500 262.980 24.500 Q 263.780 24.500 264.581 24.500 Q 265.381 24.500 266.182 24.508 Q 266.982 24.516 267.734 24.754 Q 268.486 24.992 269.236 25.236 Q 269.986 25.480 270.786 25.490 Q 271.586 25.500 272.386 25.523 Q 273.185 25.546 273.926 25.818 Q 274.666 26.090 275.428 26.290 Q 276.190 26.490 276.986 26.564 Q 277.782 26.637 278.492 26.999 Q 279.202 27.360 279.998 27.435 Q 280.794 27.509 281.557 27.706 Q 282.320 27.902 283.058 28.183 Q 283.797 28.465 284.557 28.683 Q 285.318 28.901 286.056 29.183 Q 286.794 29.464 287.555 29.682 Q 288.315 29.899 289.053 30.182 Q 289.791 30.464 290.552 30.681 Q 291.313 30.898 292.051 31.181 Q 292.789 31.463 293.549 31.680 Q 294.310 31.897 295.029 32.243 Q 295.747 32.589 296.445 32.980 Q 297.142 33.371 297.863 33.710 Q 298.585 34.049 299.307 34.388 Q 300.029 34.726 300.733 35.102 Q 301.438 35.478 302.113 35.890 Q 302.789 36.302 303.409 36.802 Q 304.029 37.303 304.745 37.652 Q 305.460 38.000 306.055 38.534 Q 306.649 39.068 307.365 39.416 Q 308.081 39.765 308.688 40.281 Q 309.296 40.796 309.868 41.355 Q 310.441 41.915 311.150 42.272 Q 311.859 42.630 312.486 43.121 Q 313.112 43.613 313.678 44.179 Q 314.244 44.744 314.810 45.310 Q 315.377 45.877 315.943 46.443 Q 316.509 47.009 317.072 47.577 Q 317.636 48.145 318.064 48.811 Q 318.492 49.477 318.911 50.148 Q 319.331 50.820 319.894 51.388 Q 320.457 51.957 321.022 52.525 Q 321.586 53.092 322.027 53.751 Q 322.467 54.409 322.874 55.088 Q 323.281 55.767 323.784 56.385 Q 324.287 57.003 324.627 57.723 Q 324.968 58.444 325.306 59.166 Q 325.644 59.888 326.033 60.586 Q 326.422 61.284 326.774 62.000 Q 327.126 62.716 327.464 63.438 Q 327.802 64.160 328.117 64.885 Q 328.433 65.611 328.622 66.381 Q 328.810 67.152 329.121 67.880 Q 329.432 68.608 329.621 69.379 Q 329.809 70.149 330.116 70.878 Q 330.422 71.607 330.485 72.404 Q 330.548 73.200 330.823 73.940 Q 331.098 74.680 331.292 75.443 Q 331.487 76.206 331.500 77.006 Q 331.513 77.807 331.711 78.569 Q 331.908 79.332 332.181 80.072 Q 332.453 80.812 332.477 81.611 Q 332.500 82.411 332.500 83.211 Q 332.500 84.012 332.500 84.812 Q 332.500 85.613 332.500 86.413 Q 332.500 87.214 332.500 88.015 Q 332.500 88.815 332.500 89.616 Q 332.500 90.416 332.500 91.217 Q 332.500 92.017 332.500 92.818 Q 332.500 93.618 332.474 94.417 Q 332.449 95.217 332.172 95.955 Q 331.895 96.694 331.704 97.458 Q 331.512 98.222 331.506 99.023 Q 331.500 99.823 331.459 100.621 Q 331.418 101.419 331.107 102.147 Q 330.797 102.874 330.653 103.651 Q 330.509 104.427 330.493 105.227 Q 330.478 106.028 330.232 106.777 Q 329.986 107.526 329.740 108.277 Q 329.495 109.028 329.241 109.775 Q 328.986 110.523 328.648 111.245 Q 328.310 111.967 327.958 112.679 Q 327.605 113.391 327.451 114.174 Q 327.296 114.956 326.922 115.662 Q 326.547 116.368 326.148 117.052 Q 325.749 117.735 325.243 118.351 Q 324.736 118.966 324.395 119.686 Q 324.054 120.407 323.714 121.128 Q 323.374 121.849 322.886 122.478 Q 322.399 123.107 321.962 123.768 Q 321.526 124.429 321.115 125.105 Q 320.705 125.782 320.142 126.351 Q 319.579 126.921 319.013 127.487 Q 318.447 128.053 317.881 128.619 Q 317.315 129.185 316.749 129.751 Q 316.183 130.317 315.617 130.883 Q 315.051 131.449 314.485 132.015 Q 313.919 132.581 313.353 133.147 Q 312.786 133.714 312.220 134.280 Q 311.654 134.846 311.081 135.404 Q 310.508 135.963 309.794 136.314 Q 309.080 136.665 308.457 137.161 Q 307.833 137.657 307.164 138.080 Q 306.494 138.502 305.826 138.927 Q 305.158 139.351 304.534 139.846 Q 303.910 140.341 303.188 140.680 Q 302.467 141.019 301.745 141.357 Q 301.023 141.696 300.321 142.076 Q 299.619 142.457 298.907 142.817 Q 298.195 143.177 297.473 143.515 Q 296.751 143.853 296.020 144.152 Q 295.288 144.450 294.523 144.655 Q 293.758 144.860 293.024 145.155 Q 292.291 145.450 291.526 145.654 Q 290.760 145.858 290.027 146.154 Q 289.293 146.449 288.528 146.653 Q 287.763 146.857 287.028 147.147 Q 286.294 147.437 285.497 147.500 Q 284.701 147.563 283.967 147.854 Q 283.233 148.145 282.463 148.317 Q 281.694 148.489 280.894 148.502 Q 280.093 148.514 279.337 148.735 Q 278.581 148.956 277.835 149.212 Q 277.089 149.468 276.289 149.484 Q 275.489 149.500 274.689 149.501 Q 273.888 149.502 273.092 149.564 Q 272.295 149.625 271.584 149.983 Q 270.872 150.341 270.078 150.418 Q 269.284 150.495 268.484 150.498 Q 267.683 150.500 266.883 150.500 Q 266.082 150.500 265.282 150.500 Q 264.481 150.500 263.680 150.500 Q 262.880 150.500 262.079 150.500 Q 261.279 150.500 260.478 150.500 Q 259.678 150.500 258.877 150.500 Q 258.077 150.500 257.276 150.500 Q 256.476 150.500 255.675 150.500 Q 254.875 150.500 254.074 150.500 Q 253.273 150.500 252.473 150.497 Q 251.672 150.494 250.881 150.407 Q 250.089 150.320 249.376 149.970 Q 248.662 149.619 247.865 149.560 Q 247.068 149.502 246.268 149.501 Q 245.467 149.500 244.668 149.481 Q 243.868 149.462 243.125 149.199 Q 242.381 148.935 241.622 148.725 Q 240.863 148.514 240.063 148.501 Q 239.262 148.488 238.496 148.306 Q 237.729 148.125 236.993 147.841 Q 236.256 147.557 235.460 147.494 Q 234.663 147.431 233.931 147.134 Q 233.199 146.836 232.432 146.638 Q 231.664 146.439 231.368 145.950 Q 231.072 145.460 231.730 145.036 Q 232.388 144.612 233.185 144.556 Q 233.981 144.501 234.782 144.496 Q 235.582 144.491 236.358 144.345 Q 237.134 144.199 237.862 143.890 Q 238.590 143.580 239.388 143.539 Q 240.186 143.497 240.982 143.430 Q 241.778 143.363 242.488 143.002 Q 243.199 142.640 243.995 142.572 Q 244.790 142.504 245.591 142.499 Q 246.391 142.493 247.179 142.392 Q 247.967 142.290 248.684 141.950 Q 249.401 141.609 250.198 141.546 Q 250.995 141.483 251.746 141.243 Q 252.497 141.002 253.247 140.760 Q 253.998 140.518 254.795 140.455 Q 255.591 140.392 256.309 140.053 Q 257.027 139.713 257.808 139.556 Q 258.590 139.398 259.303 139.049 Q 260.016 138.700 260.738 138.362 Q 261.460 138.024 262.207 137.766 Q 262.953 137.508 263.705 137.266 Q 264.457 137.023 265.179 136.686 Q 265.902 136.348 266.600 135.960 Q 267.299 135.572 268.014 135.219 Q 268.729 134.867 269.449 134.524 Q 270.168 134.181 270.774 133.662 Q 271.379 133.143 272.080 132.771 Q 272.780 132.399 273.416 131.923 Q 274.052 131.447 274.618 130.881 Q 275.185 130.315 275.751 129.749 Q 276.317 129.183 276.890 128.624 Q 277.462 128.065 278.174 127.711 Q 278.885 127.356 279.485 126.840 Q 280.084 126.324 280.433 125.608 Q 280.782 124.892 281.300 124.287 Q 281.818 123.682 282.384 123.116 Q 282.950 122.550 283.498 121.968 Q 284.046 121.386 284.395 120.670 Q 284.743 119.954 285.251 119.340 Q 285.758 118.725 286.155 118.040 Q 286.552 117.355 286.935 116.654 Q 287.318 115.953 287.656 115.231 Q 287.995 114.509 288.333 113.787 Q 288.671 113.065 289.030 112.356 Q 289.388 111.646 289.537 110.861 Q 289.686 110.077 290.037 109.363 Q 290.388 108.649 290.536 107.864 Q 290.685 107.079 291.034 106.365 Q 291.383 105.650 291.441 104.854 Q 291.499 104.057 291.550 103.260 Q 291.600 102.463 291.930 101.742 Q 292.260 101.021 292.377 100.237 Q 292.493 99.453 292.496 98.653 Q 292.500 97.852 292.500 97.052 Q 292.500 96.251 292.500 95.450 Q 292.500 94.650 292.500 93.849 Q 292.500 93.049 292.500 92.248 Q 292.500 91.448 292.500 90.647 Q 292.500 89.847 292.500 89.046 Q 292.500 88.246 292.500 87.445 Q 292.500 86.645 292.500 85.844 Q 292.500 85.043 292.500 84.243 Q 292.500 83.442 292.499 82.642 Q 292.497 81.841 292.432 81.045 Q 292.368 80.249 292.006 79.539 Q 291.644 78.829 291.568 78.033 Q 291.492 77.238 291.302 76.473 Q 291.113 75.708 290.827 74.971 Q 290.540 74.234 290.327 73.472 Q 290.114 72.710 289.828 71.973 Q 289.541 71.237 289.328 70.475 Q 289.116 69.712 288.829 68.976 Q 288.541 68.240 288.323 67.481 Q 288.104 66.722 287.578 66.122 Q 287.051 65.523 286.699 64.810 Q 286.347 64.097 285.959 63.398 Q 285.572 62.699 285.219 61.984 Q 284.866 61.269 284.523 60.550 Q 284.180 59.830 283.655 59.230 Q 283.130 58.630 282.564 58.064 Q 281.998 57.498 281.432 56.932 Q 280.866 56.366 280.300 55.800 Q 279.734 55.234 279.168 54.668 Q 278.602 54.102 278.036 53.536 Q 277.470 52.970 276.904 52.404 Q 276.337 51.837 275.771 51.272 Q 275.205 50.706 274.588 50.202 Q 273.972 49.697 273.256 49.349 Q 272.540 49.000 271.965 48.445 Q 271.389 47.889 270.791 47.362 Q 270.193 46.834 269.474 46.491 Q 268.754 46.148 268.040 45.793 Q 267.326 45.438 266.627 45.052 Q 265.927 44.666 265.204 44.329 Q 264.482 43.991 263.732 43.744 Q 262.982 43.497 262.233 43.244 Q 261.485 42.992 260.735 42.745 Q 259.984 42.497 259.236 42.245 Q 258.487 41.993 257.736 41.754 Q 256.984 41.516 256.184 41.503 Q 255.383 41.490 254.609 41.336 Q 253.835 41.182 253.105 40.879 Q 252.376 40.575 251.577 40.538 Q 250.779 40.500 249.979 40.500 Q 249.178 40.500 248.378 40.500 Q 247.577 40.500 246.776 40.500 Q 245.976 40.500 245.175 40.500 Q 244.375 40.500 243.574 40.500 Q 242.774 40.500 241.973 40.500 Q 241.173 40.500 240.372 40.500 Q 239.572 40.500 238.771 40.500 Q 237.971 40.500 237.170 40.500 Q 236.370 40.500 235.569 40.500 Q 234.768 40.500 233.968 40.500 Q 233.167 40.500 232.367 40.500 Q 231.566 40.500 230.766 40.500 Q 229.965 40.500 229.165 40.500 Q 228.364 40.500 227.564 40.500 Q 226.763 40.500 225.963 40.500 Q 225.162 40.500 224.361 40.500 Q 223.561 40.500 222.760 40.501 Q 221.960 40.501 221.164 40.565 Q 220.369 40.628 219.958 41.234 Q 219.547 41.840 219.523 42.639 Q 219.500 43.439 219.500 44.239 Q 219.500 45.040 219.500 45.840 Q 219.500 46.641 219.500 47.441 Q 219.500 48.242 219.500 49.042 Q 219.500 49.843 219.500 50.643 Q 219.500 51.444 219.500 52.244 Q 219.500 53.045 219.500 53.846 Q 219.500 54.646 219.500 55.447 Q 219.500 56.247 219.500 57.048 Q 219.500 57.848 219.500 58.649 Q 219.500 59.449 219.500 60.250 Q 219.500 61.050 219.500 61.851 Q 219.500 62.651 219.500 63.452 Q 219.500 64.253 219.500 65.053 Q 219.500 65.854 219.500 66.654 Q 219.500 67.455 219.500 68.255 Q 219.500 69.056 219.500 69.856 Q 219.500 70.657 219.500 71.457 Q 219.500 72.258 219.500 73.058 Q 219.500 73.859 219.500 74.660 Q 219.500 75.460 219.500 76.261 Q 219.500 77.061 219.500 77.862 Q 219.500 78.662 219.500 79.463 Q 219.500 80.263 219.500 81.064 Q 219.500 81.864 219.500 82.665 Q 219.500 83.465 219.500 84.266 Q 219.500 85.067 219.500 85.867 Q 219.500 86.668 219.500 87.468 Q 219.500 88.269 219.500 89.069 Q 219.500 89.870 219.500 90.670 Q 219.500 91.471 219.500 92.271 Q 219.500 93.072 219.500 93.872 Q 219.500 94.673 219.500 95.474 Q 219.500 96.274 219.500 97.075 Q 219.500 97.875 219.500 98.676 Q 219.500 99.476 219.500 100.277 Q 219.500 101.077 219.500 101.878 Q 219.500 102.678 219.500 103.479 Q 219.500 104.279 219.500 105.080 Q 219.500 105.880 219.500 106.681 Q 219.500 107.482 219.500 108.282 Q 219.500 109.083 219.500 109.883 Q 219.500 110.684 219.500 111.484 Q 219.500 112.285 219.500 113.085 Q 219.500 113.886 219.500 114.686 Q 219.500 115.487 219.500 116.287 Q 219.500 117.088 219.500 117.889 Q 219.500 118.689 219.500 119.490 Q 219.500 120.290 219.500 121.091 Q 219.500 121.891 219.500 122.692 Q 219.500 123.492 219.500 124.293 Q 219.500 125.093 219.500 125.894 Q 219.500 126.694 219.500 127.495 Q 219.500 128.296 219.500 129.096 Q 219.500 129.897 219.500 130.697 Q 219.500 131.498 219.500 132.298 Q 219.500 133.099 219.500 133.899 Q 219.500 134.700 219.500 135.500 Q 219.500 136.301 219.500 137.101 Q 219.500 137.902 219.500 138.703 Q 219.500 139.503 219.500 140.304 Q 219.500 141.104 219.500 141.905 Q 219.500 142.705 219.500 143.506 Q 219.500 144.306 219.500 145.107 Q 219.500 145.907 219.500 146.708 Q 219.500 147.508 219.500 148.309 Q 219.500 149.110 219.500 149.910 Q 219.500 150.711 219.500 151.511 Q 219.500 152.312 219.500 153.112 Q 219.500 153.913 219.500 154.713 Q 219.500 155.514 219.500 156.314 Q 219.500 157.115 219.500 157.915 Q 219.500 158.716 219.500 159.517 Q 219.500 160.317 219.500 161.118 Q 219.500 161.918 219.500 162.719 Q 219.500 163.519 219.500 164.320 Q 219.500 165.120 219.500 165.921 Q 219.500 166.721 219.500 167.522 Q 219.500 168.322 219.500 169.123 Q 219.500 169.924 219.500 170.724 Q 219.500 171.525 219.500 172.325 Q 219.500 173.126 219.500 173.926 Q 219.500 174.727 219.500 175.527 Q 219.500 176.328 219.500 177.128 Q 219.500 177.929 219.500 178.729 Q 219.500 179.530 219.500 180.331 Q 219.500 181.131 219.500 181.932 Q 219.500 182.732 219.500 183.533 Q 219.500 184.333 219.500 185.134 Q 219.500 185.934 219.500 186.735 Q 219.500 187.535 219.500 188.336 Q 219.500 189.136 219.500 189.937 Q 219.500 190.738 219.500 191.538 Q 219.500 192.339 219.500 193.139 Q 219.500 193.940 219.500 194.740 Q 219.500 195.541 219.500 196.341 Q 219.500 197.142 219.500 197.942 Q 219.500 198.743 219.500 199.543 Q 219.500 200.344 219.500 201.145 Q 219.500 201.945 219.500 202.746 Q 219.500 203.546 219.500 204.347 Q 219.500 205.147 219.500 205.948 Q 219.500 206.748 219.500 207.549 Q 219.500 208.349 219.500 209.150 Q 219.500 209.950 219.500 210.751 Q 219.500 211.552 219.500 212.352 Q 219.500 213.153 219.500 213.953 Q 219.500 214.754 219.500 215.554 Q 219.500 216.355 219.500 217.155 Q 219.500 217.956 219.500 218.756 Q 219.500 219.557 219.500 220.357 Q 219.500 221.158 219.500 221.958 Q 219.500 222.759 219.500 223.560 Q 219.500 224.360 219.500 225.161 Q 219.500 225.961 219.500 226.762 Q 219.500 227.562 219.500 228.363 Q 219.500 229.163 219.500 229.964 Q 219.500 230.764 219.500 231.565 Q 219.500 232.365 219.500 233.166 Q 219.500 233.967 219.500 234.767 Q 219.500 235.568 219.500 236.368 Q 219.500 237.169 219.500 237.969 Q 219.500 238.770 219.500 239.570 Q 219.500 240.371 219.500 241.171 Q 219.500 241.972 219.500 242.772 Q 219.500 243.573 219.500 244.374 Q 219.500 245.174 219.500 245.975 Q 219.500 246.775 219.500 247.576 Q 219.500 248.376 219.500 249.177 Q 219.500 249.977 219.505 250.778 Q 219.509 251.578 219.654 252.355 Q 219.799 253.131 220.109 253.859 Q 220.419 254.586 220.459 255.384 Q 220.500 256.182 220.506 256.983 Q 220.513 257.783 220.705 258.547 Q 220.897 259.311 221.180 260.049 Q 221.463 260.787 221.679 261.548 Q 221.896 262.309 222.179 263.046 Q 222.463 263.784 222.679 264.545 Q 222.895 265.306 223.241 266.024 Q 223.588 266.743 224.056 267.384 Q 224.524 268.025 224.980 268.674 Q 225.436 269.323 225.827 270.012 Q 226.218 270.700 226.728 271.313 Q 227.239 271.925 227.587 272.641 Q 227.936 273.357 228.481 273.941 Q 229.025 274.525 229.591 275.091 Q 230.157 275.657 230.728 276.219 Q 231.298 276.780 231.987 277.172 Q 232.675 277.563 233.324 278.019 Q 233.973 278.475 234.614 278.943 Q 235.255 279.412 235.951 279.790 Q 236.648 280.169 237.214 280.734 Q 237.781 281.299 237.749 281.892 Z" fill="#F7CF5F"/>
</svg>
